<?xml version="1.0" standalone="no"?>
<!DOCTYPE svg PUBLIC "-//W3C//DTD SVG 20010904//EN"
 "http://www.w3.org/TR/2001/REC-SVG-20010904/DTD/svg10.dtd">
<svg version="1.0" xmlns="http://www.w3.org/2000/svg"
 width="82.000000pt" height="82.000000pt" viewBox="0 0 82.000000 82.000000"
 preserveAspectRatio="xMidYMid meet">
<metadata>
Created by potrace 1.11, written by Peter Selinger 2001-2013
</metadata>
<g transform="translate(0.000000,82.000000) scale(0.100000,-0.100000)"
fill="#000000" stroke="none">
<path d="M270 795 c0 -26 2 -27 38 -20 20 3 95 7 167 6 115 0 127 1 105 14
-16 8 -59 13 -122 13 -53 1 -117 4 -142 7 -45 7 -46 7 -46 -20z"/>
<path d="M590 737 c-25 -22 -32 -22 -243 -22 -167 1 -220 -2 -229 -12 -8 -11
33 -13 224 -13 l235 0 39 35 c32 28 35 34 19 34 -11 0 -31 -10 -45 -22z"/>
<path d="M76 643 c-4 -10 30 -13 180 -13 l186 0 137 -71 c139 -73 221 -96 221
-64 0 10 -11 15 -35 15 -19 0 -58 13 -87 28 -29 16 -91 49 -138 73 l-85 44
-187 1 c-147 0 -188 -2 -192 -13z"/>
<path d="M257 536 l5 -35 -63 20 c-76 24 -160 30 -166 12 -3 -9 8 -13 36 -13
22 0 76 -11 120 -25 l80 -26 8 -52 c10 -70 9 -109 -7 -146 l-12 -31 -104 0
c-88 0 -103 -2 -98 -15 8 -21 167 -20 254 1 36 9 72 17 80 19 8 2 46 10 83 19
43 10 114 16 193 16 94 0 125 3 122 12 -3 9 -38 12 -116 13 l-113 0 -24 43
c-13 23 -21 42 -18 42 3 0 43 -11 89 -26 89 -27 194 -30 202 -6 3 9 -14 12
-61 12 -44 0 -94 9 -158 30 -52 16 -99 30 -106 30 -6 0 -13 4 -15 8 -9 25
-141 109 -195 126 -20 6 -21 4 -16 -28z"/>
<path d="M57 343 c-42 -5 -47 -27 -6 -29 13 -1 39 -5 57 -9 30 -7 32 -6 32 19
0 28 1 27 -83 19z"/>
<path d="M467 164 l-119 -74 -91 0 c-79 -1 -90 -2 -74 -14 12 -9 44 -13 100
-12 l82 2 112 72 113 71 86 3 c59 2 89 7 92 16 3 9 -19 12 -90 11 l-93 0 -118
-75z"/>
<path d="M522 82 c-87 -55 -116 -78 -102 -80 12 -2 64 24 126 64 67 42 116 67
136 68 47 2 48 26 1 26 -30 0 -63 -16 -161 -78z"/>
</g>
</svg>
