<svg width="337" height="197" viewBox="0 0 337 197" fill="none" xmlns="http://www.w3.org/2000/svg">
<path d="M251.701 113.869C254.847 104.787 256.945 95.0071 256.945 84.8777C256.945 38.0727 218.84 0 171.995 0C126.549 0 89.8429 35.2784 87.0463 79.6383C85.2983 79.289 83.2008 79.289 81.1033 79.289C56.2828 79.289 36.0068 99.5479 36.0068 124.348C36.0068 149.147 56.2828 169.406 81.1033 169.406C96.4851 169.406 151.37 169.406 171.646 169.406C190.523 169.406 236.669 169.406 248.205 169.406C263.587 169.406 276.172 156.832 276.172 141.463C276.521 127.142 265.684 115.615 251.701 113.869Z" fill="#CDE6F5"/>
<path d="M32.1618 197H304.838C322.667 197 337 182.679 337 164.865C337 147.051 322.667 132.73 304.838 132.73H32.1618C14.333 132.73 0 147.051 0 164.865C0 182.33 14.333 197 32.1618 197Z" fill="#CDE6F5"/>
<path d="M241.213 171.152C268.436 171.152 290.505 149.102 290.505 121.902C290.505 94.702 268.436 72.652 241.213 72.652C213.99 72.652 191.922 94.702 191.922 121.902C191.922 149.102 213.99 171.152 241.213 171.152Z" fill="#CDE6F5"/>
<path d="M92.6401 182.679C92.6401 181.282 91.5913 179.885 89.8434 179.885H73.4129C72.0145 179.885 70.6162 180.933 70.6162 182.679C70.6162 184.076 71.665 185.473 73.4129 185.473H89.8434C91.5913 185.473 92.6401 184.076 92.6401 182.679Z" fill="#83B7D1"/>
<path d="M85.9979 184.425C84.5995 184.425 83.2012 183.378 83.2012 181.631V165.214C83.2012 163.817 84.2499 162.42 85.9979 162.42C87.3962 162.42 88.7945 163.468 88.7945 165.214V181.631C88.7945 183.028 87.3962 184.425 85.9979 184.425Z" fill="#D27228"/>
<path d="M117.811 86.2753H144.729C147.525 86.2753 149.972 88.7203 149.972 91.5146C149.972 94.3089 147.525 96.754 144.729 96.754H117.811V86.2753Z" fill="#D27228"/>
<path d="M114.314 98.5005H141.232C144.029 98.5005 146.476 100.946 146.476 103.74C146.476 106.534 144.029 108.979 141.232 108.979H114.314V98.5005Z" fill="#D27228"/>
<path d="M114.314 71.6046C104.526 71.6046 96.4855 79.6383 96.4855 89.4184V120.505H0C0 120.505 39.5031 169.057 92.9896 169.057C120.607 169.057 132.143 150.544 132.143 126.094V125.745V120.505V89.4184C132.143 79.6383 124.103 71.6046 114.314 71.6046Z" fill="#C9C9C9"/>
<path opacity="0.5" d="M132.142 126.093V125.744V121.203C129.346 120.854 126.898 120.854 124.102 120.854C96.4846 120.854 84.9482 139.366 84.9482 163.816V164.166V168.706C87.7449 169.056 90.192 169.056 92.9887 169.056C120.606 169.056 132.142 150.543 132.142 126.093Z" fill="white"/>
<path opacity="0.5" d="M114.315 71.6046C113.266 71.6046 112.217 71.6046 111.168 71.9539C119.558 73.3511 125.851 80.6862 125.851 89.4184V120.505V125.745V126.094C125.851 149.496 115.363 167.66 89.8438 169.057C90.8925 169.057 91.9413 169.057 92.99 169.057C120.607 169.057 132.144 150.544 132.144 126.094V125.745V120.505V89.4184C132.144 79.6383 124.103 71.6046 114.315 71.6046Z" fill="white"/>
<path d="M101.03 103.39C106.629 103.39 111.168 98.8545 111.168 93.2602C111.168 87.6658 106.629 83.1307 101.03 83.1307C95.4305 83.1307 90.8916 87.6658 90.8916 93.2602C90.8916 98.8545 95.4305 103.39 101.03 103.39Z" fill="white"/>
<path d="M101.03 93.61V87.3228C101.03 87.3228 101.03 87.3228 100.68 87.3228C97.534 87.3228 94.7373 89.7678 94.7373 93.2607C94.7373 96.4043 97.1844 99.1986 100.68 99.1986C103.827 99.1986 106.274 96.7536 106.274 93.61H101.03Z" fill="#525254"/>
<path d="M111.168 99.5464C109.421 103.389 105.575 105.834 101.03 105.834C95.7867 105.834 91.2421 102.341 89.8438 97.4507C90.1933 103.039 95.0875 107.58 100.681 107.58C105.575 107.231 109.77 104.087 111.168 99.5464Z" fill="#525254"/>
<path d="M69.567 147.052H68.5182C63.6241 147.052 58.7299 144.956 55.234 141.463L22.0234 108.979H69.567C80.0546 108.979 88.4446 117.362 88.4446 127.841C88.7942 138.669 80.0546 147.052 69.567 147.052Z" fill="#525254"/>
<path d="M66.0716 142.161C55.584 142.161 42.2998 129.237 42.2998 129.237L55.2344 141.812C58.7303 145.305 63.6245 147.4 68.5187 147.4H69.5674C80.055 147.4 88.445 139.017 88.445 128.539C83.9004 137.969 76.5591 142.161 66.0716 142.161Z" fill="#6B6B6D"/>
<path d="M143.68 92.2132C144.838 92.2132 145.777 91.2749 145.777 90.1175C145.777 88.96 144.838 88.0217 143.68 88.0217C142.521 88.0217 141.582 88.96 141.582 90.1175C141.582 91.2749 142.521 92.2132 143.68 92.2132Z" fill="#F09B40"/>
<path d="M32.1628 140.415C31.4636 141.114 30.7644 141.114 30.0653 140.415L28.3173 138.669C27.6182 137.97 27.6182 137.272 28.3173 136.573C29.0165 135.875 29.7157 135.875 30.4149 136.573L32.1628 138.32C32.5124 139.018 32.5124 139.717 32.1628 140.415Z" fill="#525254"/>
<path d="M248.905 182.679C248.905 181.282 247.856 179.885 246.108 179.885H229.678C228.279 179.885 226.881 180.933 226.881 182.679C226.881 184.076 227.93 185.473 229.678 185.473H246.108C247.506 185.473 248.905 184.076 248.905 182.679Z" fill="#83B7D1"/>
<path d="M234.922 184.425C236.32 184.425 237.718 183.378 237.718 181.631V165.214C237.718 163.817 236.67 162.42 234.922 162.42C233.523 162.42 232.125 163.468 232.125 165.214V181.631C232.475 183.028 233.523 184.425 234.922 184.425Z" fill="#D27228"/>
<path d="M203.109 100.245H176.191C173.394 100.245 170.947 102.69 170.947 105.484C170.947 108.278 173.394 110.723 176.191 110.723H203.109V100.245Z" fill="#D27228"/>
<path d="M206.605 112.47H179.687C176.89 112.47 174.443 114.915 174.443 117.709C174.443 120.503 176.89 122.948 179.687 122.948H206.605V112.47Z" fill="#D27228"/>
<path d="M231.426 91.8621V120.155H299.944C299.944 120.155 281.416 168.706 227.93 168.706C200.313 168.706 188.776 150.194 188.776 125.743V120.504V92.2114C188.776 80.3356 198.565 70.5554 210.451 70.9047C222.337 70.9047 231.426 80.3356 231.426 91.8621Z" fill="#F8DBB3"/>
<g opacity="0.5">
<path opacity="0.5" d="M197.516 127.141V126.791V121.552V93.2593C197.516 82.082 205.906 73.0005 217.093 71.9526C214.995 71.254 212.898 70.9047 210.8 70.9047C198.914 70.5554 189.126 80.3356 189.126 92.2114V120.504V125.743V126.093C189.126 149.844 199.963 168.008 226.182 169.055C205.906 164.515 197.516 148.098 197.516 127.141Z" fill="white"/>
</g>
<path opacity="0.5" d="M188.776 126.093V125.744V121.203C191.573 120.854 194.02 120.854 196.817 120.854C224.434 120.854 235.97 139.366 235.97 163.816V164.166V168.706C233.174 169.056 230.727 169.056 227.93 169.056C200.313 169.056 188.776 150.543 188.776 126.093Z" fill="white"/>
<path d="M214.646 99.8967C218.314 99.8967 221.288 96.9254 221.288 93.2602C221.288 89.5949 218.314 86.6237 214.646 86.6237C210.978 86.6237 208.004 89.5949 208.004 93.2602C208.004 96.9254 210.978 99.8967 214.646 99.8967Z" fill="#E8C7A0"/>
<path d="M251.352 147.049H252.401C257.295 147.049 262.189 144.954 265.685 141.461L298.896 108.977H251.352C240.865 108.977 232.475 117.36 232.475 127.838C232.475 138.667 240.865 147.049 251.352 147.049Z" fill="#525254"/>
<path d="M255.198 142.161C265.685 142.161 278.969 129.237 278.969 129.237L265.685 141.812C262.189 145.305 257.295 147.4 252.401 147.4H251.352C240.865 147.4 232.475 139.017 232.475 128.539C237.019 137.969 244.361 142.161 255.198 142.161Z" fill="#6B6B6D"/>
<path d="M177.24 106.182C178.399 106.182 179.338 105.244 179.338 104.087C179.338 102.929 178.399 101.991 177.24 101.991C176.082 101.991 175.143 102.929 175.143 104.087C175.143 105.244 176.082 106.182 177.24 106.182Z" fill="#F09B40"/>
<path d="M281.417 140.413C282.116 141.111 282.815 141.111 283.514 140.413L285.262 138.666C285.962 137.968 285.962 137.269 285.262 136.571C284.563 135.872 283.864 135.872 283.165 136.571L281.417 138.317C280.718 139.016 280.718 139.714 281.417 140.413Z" fill="#525254"/>
<path d="M221.287 94.6577C219.889 92.562 217.791 90.8156 214.995 90.8156C212.198 90.8156 209.751 92.2127 208.702 94.6577" stroke="#58595B" stroke-miterlimit="10"/>
<path d="M180.037 82.4316H243.662L211.849 50.9955L180.037 82.4316Z" fill="#D1A176"/>
<path d="M207.305 77.1923C202.061 77.1923 198.915 71.2543 201.711 67.0629L211.849 50.9955L180.037 82.4316H243.662L238.418 77.1923H207.305Z" fill="#E2BFA1"/>
<path d="M226.532 82.0834V108.629C226.532 118.759 218.142 127.142 208.004 127.142H188.776" stroke="#D1A176" stroke-width="0.7087" stroke-miterlimit="10"/>
<path d="M221.287 99.5474C218.84 101.992 214.994 102.691 211.499 101.643C207.304 100.246 204.856 96.0545 205.206 91.863C203.808 96.4038 206.255 101.294 210.799 102.691C214.994 104.437 219.189 103.04 221.287 99.5474Z" fill="#E8C7A0"/>
</svg>
