<svg width="179" height="140" viewBox="0 0 179 140" fill="none" xmlns="http://www.w3.org/2000/svg">
<g clip-path="url(#clip0)">
<path d="M9.17949 140H170.05C175.099 140 179.229 135.889 179.229 130.864C179.229 125.84 175.099 121.729 170.05 121.729H9.17949C4.13077 121.729 0 125.84 0 130.864C0 135.889 4.13077 140 9.17949 140Z" fill="#C1A7C1"/>
<path d="M159.953 133.605H61.9619V116.476C61.9619 95.4648 79.1735 78.3359 100.286 78.3359H121.399C142.512 78.3359 159.723 95.4648 159.723 116.476V133.605H159.953Z" fill="#FFD400"/>
<path d="M153.527 133.605H79.8613V120.816C79.8613 105.057 92.7126 92.0391 108.777 92.0391H124.611C140.446 92.0391 153.527 104.829 153.527 120.816V133.605Z" fill="#FFC20E"/>
<path d="M88.8114 120.587C88.8114 108.026 99.1383 97.7484 111.76 97.7484H134.25C135.397 97.7484 136.315 97.7484 137.463 97.9768C133.791 96.1497 129.66 95.0078 125.07 95.0078H110.383C95.696 95.0078 83.5332 106.884 83.5332 121.729V133.605H88.8114V120.587Z" fill="#FFD400"/>
<path d="M73.8949 133.605H46.1269C44.75 133.605 43.6025 132.463 43.6025 131.093C43.6025 130.179 44.0615 129.494 44.75 129.037L61.9615 118.988H73.6654V133.605H73.8949Z" fill="#FFD400"/>
<path d="M160.871 133.605H135.168V125.612H160.871C162.706 125.612 164.083 126.982 164.083 128.809V130.408C164.083 132.235 162.477 133.605 160.871 133.605Z" fill="#FFC20E"/>
<path d="M47.5039 132.463C48.2643 132.463 48.8808 131.85 48.8808 131.093C48.8808 130.336 48.2643 129.723 47.5039 129.723C46.7434 129.723 46.127 130.336 46.127 131.093C46.127 131.85 46.7434 132.463 47.5039 132.463Z" fill="#FFF200"/>
<path d="M120.94 82.9039H109.925C109.007 82.9039 108.318 82.2188 108.318 81.3052C108.318 80.3917 109.007 79.7065 109.925 79.7065H120.94C121.858 79.7065 122.547 80.3917 122.547 81.3052C122.776 81.9904 121.858 82.9039 120.94 82.9039Z" fill="#FFF200"/>
<path d="M95.9257 85.6441C95.0078 85.6441 94.0898 84.959 94.0898 83.817V73.0829C94.0898 72.1694 94.7783 71.2559 95.9257 71.2559C96.8437 71.2559 97.7616 71.941 97.7616 73.0829V83.817C97.7616 84.959 96.8437 85.6441 95.9257 85.6441Z" fill="#D27228"/>
<path d="M116.809 21.6963H134.479C136.315 21.6963 137.921 23.295 137.921 25.1221C137.921 26.9491 136.315 28.5478 134.479 28.5478H116.809V21.6963Z" fill="#D27228"/>
<path d="M114.514 29.4614H132.184C134.02 29.4614 135.627 31.0601 135.627 32.8872C135.627 34.7143 134.02 36.313 132.184 36.313H114.514V29.4614Z" fill="#D27228"/>
<path d="M114.514 12.104C108.088 12.104 102.81 17.3569 102.81 23.7516V44.0779H39.4717C39.4717 44.0779 65.4037 75.8234 100.515 75.8234C118.645 75.8234 126.218 63.719 126.218 47.7321V47.5037V44.0779V23.7516C126.218 17.1285 120.94 12.104 114.514 12.104Z" fill="#C9C9C9"/>
<path opacity="0.5" d="M126.218 47.7324V47.504V44.535C124.382 44.3066 122.776 44.3066 120.94 44.3066C102.81 44.3066 95.2373 56.411 95.2373 72.398V72.6264V75.367C97.0732 75.5954 98.6796 75.5954 100.516 75.5954C118.874 75.8238 126.218 63.491 126.218 47.7324Z" fill="white"/>
<path opacity="0.5" d="M114.514 12.104C113.826 12.104 113.137 12.104 112.449 12.3324C117.957 13.2459 122.087 18.042 122.087 23.7516V44.0779V47.5037V47.7321C122.087 63.0339 115.203 74.9099 98.4502 75.8234C99.1387 75.8234 99.8271 75.8234 100.516 75.8234C118.645 75.8234 126.218 63.719 126.218 47.7321V47.5037V44.0779V23.7516C126.218 17.1285 120.94 12.104 114.514 12.104Z" fill="white"/>
<path d="M105.794 32.887C109.469 32.887 112.449 29.9217 112.449 26.2638C112.449 22.6059 109.469 19.6406 105.794 19.6406C102.118 19.6406 99.1387 22.6059 99.1387 26.2638C99.1387 29.9217 102.118 32.887 105.794 32.887Z" fill="white"/>
<path d="M105.794 26.2639V22.3813C105.794 22.3813 105.794 22.3813 105.564 22.3813C103.499 22.3813 101.663 23.98 101.663 26.2639C101.663 28.3194 103.27 30.1464 105.564 30.1464C107.63 30.1464 109.236 28.5477 109.236 26.4923H105.794V26.2639Z" fill="#525254"/>
<path d="M112.449 30.1462C111.301 32.6584 108.777 34.2571 105.794 34.2571C102.351 34.2571 99.3681 31.9733 98.4502 28.7759C98.6797 32.43 101.892 35.399 105.564 35.399C109.007 35.399 111.531 33.1152 112.449 30.1462Z" fill="#525254"/>
<path d="M85.1399 61.4355H84.4515C81.2387 61.4355 78.0258 60.0652 75.731 57.7813L53.9297 36.5415H85.1399C92.0245 36.5415 97.5322 42.0227 97.5322 48.8743C97.7617 55.9542 92.0245 61.4355 85.1399 61.4355Z" fill="#525254"/>
<path d="M82.8444 58.0096C75.9598 58.0096 67.2393 49.5593 67.2393 49.5593L75.7303 57.7812C78.0252 60.065 81.238 61.4353 84.4508 61.4353H85.1393C92.0239 61.4353 97.5316 55.9541 97.5316 49.1025C94.5482 55.2689 89.729 58.0096 82.8444 58.0096Z" fill="#6B6B6D"/>
<path d="M133.791 25.3505C134.551 25.3505 135.168 24.737 135.168 23.9802C135.168 23.2234 134.551 22.6099 133.791 22.6099C133.031 22.6099 132.414 23.2234 132.414 23.9802C132.414 24.737 133.031 25.3505 133.791 25.3505Z" fill="#F09B40"/>
<path d="M60.5844 57.096C60.1254 57.5528 59.6665 57.5528 59.2075 57.096L58.0601 55.9541C57.6011 55.4973 57.6011 55.0406 58.0601 54.5838C58.519 54.127 58.978 54.127 59.437 54.5838L60.5844 55.7257C60.8139 56.1825 60.8139 56.6393 60.5844 57.096Z" fill="#525254"/>
<path d="M99.5977 15.9869H127.825V10.9625C127.825 4.79609 122.776 0 116.809 0H110.613C104.417 0 99.5977 5.02447 99.5977 10.9625V15.9869Z" fill="#FFD400"/>
<path d="M101.434 15.9869H122.546V12.3327C122.546 7.765 118.875 4.11084 114.285 4.11084H109.695C105.105 4.11084 101.434 7.765 101.434 12.3327V15.9869Z" fill="#FFC20E"/>
<path d="M120.022 12.1046C120.022 8.45042 117.039 5.48141 113.367 5.48141H106.941C106.712 5.48141 106.253 5.48141 106.023 5.48141C107.171 5.02464 108.318 4.56787 109.466 4.56787H113.597C117.957 4.56787 121.399 7.99365 121.399 12.333V15.9871H119.793V12.1046H120.022Z" fill="#FFD400"/>
<path d="M124.152 15.9873H132.184C132.643 15.9873 132.873 15.7589 132.873 15.3021C132.873 15.0737 132.643 14.8453 132.414 14.617L127.365 11.6479H123.923V15.9873H124.152Z" fill="#FFD400"/>
<path d="M99.1387 15.987H106.482V13.7031H99.1387C98.6797 13.7031 98.2207 14.1599 98.2207 14.6167V15.0734C98.2207 15.5302 98.6797 15.987 99.1387 15.987Z" fill="#FFC20E"/>
<path d="M131.726 15.5298C131.979 15.5298 132.185 15.3252 132.185 15.073C132.185 14.8207 131.979 14.6162 131.726 14.6162C131.472 14.6162 131.267 14.8207 131.267 15.073C131.267 15.3252 131.472 15.5298 131.726 15.5298Z" fill="#FFF200"/>
<path d="M110.613 1.37057H113.826C114.056 1.37057 114.285 1.14219 114.285 0.913801C114.285 0.685416 114.056 0.457031 113.826 0.457031H110.613C110.384 0.457031 110.154 0.685416 110.154 0.913801C110.154 1.14219 110.384 1.37057 110.613 1.37057Z" fill="#FFF200"/>
</g>
<defs>
<clipPath id="clip0">
<rect width="179" height="140" fill="white"/>
</clipPath>
</defs>
</svg>
