<svg width="87" height="12" viewBox="0 0 87 12" fill="none" xmlns="http://www.w3.org/2000/svg">
<path d="M5.69906 5.02887C5.69906 5.88923 5.56181 6.46281 5.42457 7.03639C5.28733 7.60996 5.01285 8.04015 4.73836 8.32694C4.46388 8.61372 4.05215 8.90051 3.64042 9.04391C3.2287 9.1873 2.67973 9.33069 2.268 9.33069C1.71903 9.33069 1.17006 9.1873 0.621094 9.04391V0.870445C0.895578 0.870445 1.17006 0.727051 1.44455 0.727051C1.71903 0.727051 1.99352 0.727051 2.268 0.727051C2.81697 0.727051 3.2287 0.870443 3.64042 1.01384C4.05215 1.15723 4.46388 1.44402 4.73836 1.73081C5.01285 2.0176 5.28733 2.59117 5.42457 3.02136C5.56181 3.59493 5.69906 4.3119 5.69906 5.02887ZM4.60112 5.02887C4.60112 4.45529 4.60112 3.88172 4.46388 3.45154C4.32663 3.02135 4.18939 2.73457 4.05215 2.44778C3.91491 2.16099 3.64042 2.0176 3.36594 1.8742C3.09145 1.73081 2.67973 1.73081 2.268 1.73081C2.13076 1.73081 1.99352 1.73081 1.99352 1.73081C1.85627 1.73081 1.71903 1.73081 1.71903 1.73081V8.32694C1.85627 8.32694 1.99352 8.32694 1.99352 8.32694C2.13076 8.32694 2.268 8.32694 2.268 8.32694C2.67973 8.32694 3.09145 8.32693 3.36594 8.18354C3.64042 8.04014 3.91491 7.89675 4.05215 7.60997C4.18939 7.32318 4.32663 7.03639 4.46388 6.60621C4.46388 6.17602 4.60112 5.60244 4.60112 5.02887Z" fill="#4D4D4F"/>
<path d="M10.091 3.88201C9.8165 3.73862 9.54202 3.73862 9.26753 3.73862C8.99305 3.73862 8.71857 3.73862 8.44409 3.88201V9.33098H7.4834V3.16504C7.75788 3.02165 8.03237 3.02165 8.30685 2.87826C8.58133 2.73486 8.85581 2.73486 9.26753 2.73486C9.40478 2.73486 9.67926 2.73486 9.8165 2.73486C9.95374 2.73486 10.2282 2.73486 10.3655 2.87826L10.091 3.88201Z" fill="#4D4D4F"/>
<path d="M12.1492 6.31971C12.1492 6.6065 12.1492 6.89329 12.2864 7.18007C12.2864 7.46686 12.4237 7.61026 12.5609 7.89704C12.6981 8.04044 12.8354 8.18384 12.9726 8.32723C13.1099 8.47063 13.3843 8.47062 13.6588 8.47062C13.9333 8.47062 14.0705 8.47063 14.345 8.32723C14.4823 8.32723 14.6195 8.18383 14.7568 8.18383L14.894 9.0442C14.7568 9.1876 14.6195 9.18759 14.345 9.33098C14.0705 9.47438 13.7961 9.47438 13.5216 9.47438C13.1099 9.47438 12.6981 9.33099 12.4237 9.18759C12.1492 9.0442 11.8747 8.75741 11.7374 8.47062C11.6002 8.18384 11.463 7.89705 11.3257 7.46686C11.1885 7.03668 11.1885 6.6065 11.1885 6.17632C11.1885 5.02917 11.3257 4.1688 11.7374 3.59523C12.1492 3.02165 12.5609 2.73486 13.2471 2.73486C13.9333 2.73486 14.4823 3.02165 14.7568 3.59523C15.0312 4.1688 15.1685 4.88577 15.1685 5.88953C15.1685 6.03293 15.1685 6.03293 15.1685 6.17632C15.1685 6.31972 15.1685 6.31971 15.1685 6.4631H12.1492V6.31971ZM13.1099 3.59523C12.8354 3.59523 12.5609 3.73862 12.4237 4.1688C12.2864 4.45559 12.1492 5.02917 12.1492 5.60274H14.0705C14.0705 5.02917 14.0706 4.59899 13.9333 4.1688C13.6588 3.73862 13.5216 3.59523 13.1099 3.59523Z" fill="#4D4D4F"/>
<path d="M16.8151 3.02165C16.9523 2.87826 17.2268 2.87826 17.5013 2.87826C17.7757 2.87826 17.913 2.73486 18.1875 2.73486C18.7364 2.73486 19.1482 2.87826 19.5599 3.30844C19.9716 3.59523 20.1089 4.1688 20.1089 5.02917V9.33099C19.8344 9.47438 19.5599 9.47438 19.2854 9.47438C19.0109 9.47438 18.7364 9.61777 18.462 9.61777C18.1875 9.61777 17.913 9.61778 17.6385 9.47438C17.364 9.33099 17.2268 9.33099 16.9523 9.18759C16.815 9.0442 16.6778 8.75741 16.5406 8.61402C16.4033 8.32723 16.4033 8.04044 16.4033 7.75365C16.4033 7.46687 16.4033 7.18008 16.5406 6.89329C16.6778 6.6065 16.815 6.46311 16.9523 6.31971C17.0895 6.17632 17.364 6.03293 17.5013 5.88953C17.6385 5.74614 18.0502 5.74614 18.3247 5.74614C18.5992 5.74614 18.8737 5.74614 19.1482 5.88953V4.88577C19.1482 4.45559 19.0109 4.02541 18.8737 3.88201C18.7364 3.73862 18.462 3.59523 18.0502 3.59523C17.913 3.59523 17.6385 3.59523 17.5013 3.59523C17.364 3.59523 17.2268 3.73862 16.9523 3.73862L16.8151 3.02165ZM17.364 7.46686C17.364 7.89705 17.5013 8.18384 17.6385 8.32723C17.7757 8.47063 18.0502 8.61402 18.462 8.61402C18.7364 8.61402 18.8737 8.61402 19.1482 8.47062V6.31971C18.8737 6.31971 18.7364 6.17632 18.462 6.17632C18.3247 6.17632 18.1875 6.17632 18.0502 6.17632C17.913 6.17632 17.7757 6.31971 17.6385 6.31971C17.5013 6.46311 17.5013 6.46311 17.364 6.6065C17.364 7.03668 17.364 7.18008 17.364 7.46686Z" fill="#4D4D4F"/>
<path d="M22.0308 3.02198C22.3053 2.87859 22.5798 2.87858 22.8543 2.73519C23.1287 2.73519 23.4032 2.5918 23.6777 2.5918C23.9522 2.5918 24.2267 2.5918 24.3639 2.73519C24.6384 2.87858 24.7757 2.87858 24.9129 3.16537C25.0501 3.02198 25.3246 2.87859 25.5991 2.87859C25.8736 2.73519 26.1481 2.73519 26.4226 2.73519C26.697 2.73519 26.9715 2.73519 27.246 2.87859C27.5205 3.02198 27.6577 3.16537 27.795 3.30877C27.9322 3.45216 28.0695 3.73895 28.2067 4.16913C28.344 4.45592 28.344 4.8861 28.344 5.45967V9.3313H27.3832V5.60307C27.3832 5.02949 27.246 4.45592 27.1088 4.16913C26.9715 3.88234 26.697 3.73895 26.2853 3.73895C26.1481 3.73895 26.0108 3.73895 25.8736 3.88234C25.7363 3.88234 25.5991 4.02573 25.4619 4.16913C25.4619 4.31252 25.5991 4.59931 25.5991 4.7427C25.5991 5.02949 25.5991 5.17288 25.5991 5.60307V9.4747H24.6384V5.74646C24.6384 5.17288 24.5012 4.59931 24.3639 4.31252C24.2267 4.02573 23.9522 3.88234 23.5405 3.88234C23.4032 3.88234 23.1287 3.88234 22.8543 4.02573V9.4747H21.8936V3.02198H22.0308Z" fill="#4D4D4F"/>
<path d="M33.1475 9.33085V0.870605H36.853V1.87436H34.2454V4.45546H36.5785V5.31582H34.2454V8.3271H36.9902V9.33085H33.1475Z" fill="#4D4D4F"/>
<path d="M38.6367 3.02198C38.9112 2.87859 39.1857 2.87859 39.5974 2.73519C39.8719 2.73519 40.2836 2.5918 40.5581 2.5918C40.8326 2.5918 41.1071 2.5918 41.3816 2.73519C41.656 2.87859 41.7933 3.02198 42.0678 3.16537C42.205 3.30877 42.3422 3.59555 42.4795 4.02574C42.6167 4.31252 42.6167 4.7427 42.6167 5.31628V9.18791H41.5188V5.45968C41.5188 4.8861 41.3816 4.31252 41.2443 4.02574C41.1071 3.73895 40.8326 3.59555 40.4209 3.59555C40.1464 3.59555 40.0091 3.59556 39.5974 3.73895V9.18791H38.6367V3.02198Z" fill="#4D4D4F"/>
<path d="M48.1069 9.04436C48.1069 9.47454 48.1069 9.90473 47.9697 10.1915C47.8324 10.4783 47.6952 10.7651 47.558 10.9085C47.4207 11.0519 47.1462 11.1953 46.8717 11.3387C46.5973 11.4821 46.3228 11.4821 46.0483 11.4821C45.7738 11.4821 45.4993 11.4821 45.3621 11.3387C45.0876 11.3387 44.9503 11.1953 44.6759 11.0519L44.9503 10.1915C45.0876 10.3349 45.2248 10.3349 45.4993 10.4783C45.6366 10.4783 45.911 10.6217 46.1855 10.6217C46.5973 10.6217 46.8717 10.4783 47.1462 10.3349C47.4207 10.0481 47.4207 9.76133 47.4207 9.18775V8.90097C47.2835 8.90097 47.1462 9.04436 47.009 9.04436C46.8717 9.04436 46.7345 9.04436 46.5973 9.04436C45.911 9.04436 45.3621 8.75757 44.9503 8.184C44.5386 7.61042 44.4014 6.89345 44.4014 5.8897C44.4014 5.31612 44.4014 4.88594 44.5386 4.45576C44.6759 4.02558 44.8131 3.73879 44.9503 3.452C45.0876 3.16521 45.3621 2.87842 45.6366 2.73503C45.911 2.59164 46.3228 2.44824 46.7345 2.44824C47.009 2.44824 47.2835 2.44824 47.558 2.59164C47.8324 2.59164 48.1069 2.73503 48.2442 2.87843V9.04436H48.1069ZM47.1462 3.73879C47.009 3.73879 46.8717 3.73879 46.8717 3.73879C46.7345 3.73879 46.7345 3.73879 46.5973 3.73879C46.1855 3.73879 45.7738 3.88218 45.6366 4.31236C45.3621 4.74255 45.3621 5.31612 45.3621 6.17649C45.3621 6.89346 45.4993 7.46703 45.6366 7.75382C45.911 8.0406 46.1855 8.184 46.5973 8.184C46.7345 8.184 46.8717 8.184 47.009 8.184C47.1462 8.184 47.2835 8.04061 47.4207 8.04061V3.73879H47.1462Z" fill="#4D4D4F"/>
<path d="M50.715 1.7313C50.5777 1.7313 50.4405 1.73131 50.3033 1.58791C50.166 1.44452 50.166 1.30112 50.166 1.01433C50.166 0.87094 50.166 0.584152 50.3033 0.440758C50.4405 0.297364 50.5777 0.297363 50.715 0.297363C50.8522 0.297363 50.9895 0.297364 51.1267 0.440758C51.2639 0.584152 51.2639 0.727546 51.2639 1.01433C51.2639 1.15773 51.2639 1.44452 51.1267 1.58791C50.9895 1.73131 50.8522 1.7313 50.715 1.7313ZM51.1267 9.33119H50.166V2.87846H51.1267V9.33119Z" fill="#4D4D4F"/>
<path d="M53.1855 3.02198C53.46 2.87859 53.7345 2.87859 54.1462 2.73519C54.4207 2.73519 54.8325 2.5918 55.1069 2.5918C55.3814 2.5918 55.6559 2.5918 55.9304 2.73519C56.2049 2.87859 56.3421 3.02198 56.6166 3.16537C56.7538 3.30877 56.8911 3.59555 57.0283 4.02574C57.1656 4.31252 57.1656 4.7427 57.1656 5.31628V9.18791H56.2049V5.45968C56.2049 4.8861 56.0676 4.31252 55.9304 4.02574C55.7931 3.73895 55.5187 3.59555 55.1069 3.59555C54.8325 3.59555 54.6952 3.59556 54.2835 3.73895V9.18791H53.3228V3.02198H53.1855Z" fill="#4D4D4F"/>
<path d="M59.7732 6.31971C59.7732 6.6065 59.7732 6.89329 59.9104 7.18007C59.9104 7.46686 60.0477 7.61026 60.1849 7.89704C60.3222 8.04044 60.4594 8.18384 60.5967 8.32723C60.7339 8.47063 61.0084 8.47062 61.2829 8.47062C61.5574 8.47062 61.6946 8.47063 61.9691 8.32723C62.1063 8.32723 62.2436 8.18383 62.3808 8.18383L62.5181 9.0442C62.3808 9.1876 62.2436 9.18759 61.9691 9.33098C61.6946 9.47438 61.4201 9.47438 61.1456 9.47438C60.7339 9.47438 60.3222 9.33099 60.0477 9.18759C59.7732 9.0442 59.4987 8.75741 59.3615 8.47062C59.2242 8.18384 59.087 7.89705 58.9497 7.46686C58.8125 7.03668 58.8125 6.6065 58.8125 6.17632C58.8125 5.02917 58.9497 4.1688 59.3615 3.59523C59.7732 3.02165 60.1849 2.73486 60.8711 2.73486C61.5574 2.73486 62.1063 3.02165 62.3808 3.59523C62.6553 4.1688 62.7925 4.88577 62.7925 5.88953C62.7925 6.03293 62.7925 6.03293 62.7925 6.17632C62.7925 6.31972 62.7925 6.31971 62.7925 6.4631H59.7732V6.31971ZM60.8711 3.59523C60.5967 3.59523 60.3222 3.73862 60.1849 4.1688C60.0477 4.45559 59.9104 5.02917 59.9104 5.60274H61.8318C61.8318 5.02917 61.8318 4.59899 61.6946 4.1688C61.4201 3.73862 61.1456 3.59523 60.8711 3.59523Z" fill="#4D4D4F"/>
<path d="M65.1257 6.31971C65.1257 6.6065 65.1257 6.89329 65.263 7.18007C65.263 7.46686 65.4002 7.61026 65.5375 7.89704C65.6747 8.04044 65.812 8.18384 65.9492 8.32723C66.0865 8.47063 66.3609 8.47062 66.6354 8.47062C66.9099 8.47062 67.0472 8.47063 67.3216 8.32723C67.4589 8.32723 67.5961 8.18383 67.7334 8.18383L67.8706 9.0442C67.7334 9.1876 67.5961 9.18759 67.3216 9.33098C67.0472 9.47438 66.7727 9.47438 66.4982 9.47438C66.0864 9.47438 65.6747 9.33099 65.4002 9.18759C65.1257 9.0442 64.8513 8.75741 64.714 8.47062C64.5768 8.18384 64.4395 7.89705 64.3023 7.46686C64.165 7.03668 64.165 6.6065 64.165 6.17632C64.165 5.02917 64.3023 4.1688 64.714 3.59523C65.1257 3.02165 65.5375 2.73486 66.2237 2.73486C66.9099 2.73486 67.4589 3.02165 67.7334 3.59523C68.0079 4.1688 68.1451 4.88577 68.1451 5.88953C68.1451 6.03293 68.1451 6.03293 68.1451 6.17632C68.1451 6.31972 68.1451 6.31971 68.1451 6.4631H65.1257V6.31971ZM66.2237 3.59523C65.9492 3.59523 65.6747 3.73862 65.5375 4.1688C65.4002 4.45559 65.263 5.02917 65.263 5.60274H67.1844C67.1844 5.02917 67.1844 4.59899 67.0471 4.1688C66.7727 3.73862 66.4982 3.59523 66.2237 3.59523Z" fill="#4D4D4F"/>
<path d="M72.3996 3.88201C72.1251 3.73862 71.8506 3.73862 71.5761 3.73862C71.3017 3.73862 71.0272 3.73862 70.7527 3.88201V9.33098H69.792V3.16504C70.0665 3.02165 70.341 3.02165 70.6154 2.87826C70.8899 2.73486 71.1644 2.73486 71.5761 2.73486C71.7134 2.73486 71.9879 2.73486 72.1251 2.73486C72.2623 2.73486 72.5368 2.73486 72.6741 2.87826L72.3996 3.88201Z" fill="#4D4D4F"/>
<path d="M74.3205 1.7313C74.1832 1.7313 74.046 1.73131 73.9087 1.58791C73.7715 1.44452 73.7715 1.30112 73.7715 1.01433C73.7715 0.87094 73.7715 0.584152 73.9087 0.440758C74.046 0.297364 74.1832 0.297363 74.3205 0.297363C74.4577 0.297363 74.5949 0.297364 74.7322 0.440758C74.8694 0.584152 74.8694 0.727546 74.8694 1.01433C74.8694 1.15773 74.8694 1.44452 74.7322 1.58791C74.7322 1.73131 74.5949 1.7313 74.3205 1.7313ZM74.8694 9.33119H73.9087V2.87846H74.8694V9.33119Z" fill="#4D4D4F"/>
<path d="M76.9277 3.02198C77.2022 2.87859 77.4767 2.87859 77.8884 2.73519C78.1629 2.73519 78.5746 2.5918 78.8491 2.5918C79.1236 2.5918 79.3981 2.5918 79.6726 2.73519C79.947 2.87859 80.0843 3.02198 80.3588 3.16537C80.496 3.30877 80.6332 3.59555 80.7705 4.02574C80.9077 4.31252 80.9077 4.7427 80.9077 5.31628V9.18791H79.947V5.45968C79.947 4.8861 79.8098 4.31252 79.6726 4.02574C79.5353 3.73895 79.2608 3.59555 78.8491 3.59555C78.5746 3.59555 78.4374 3.59556 78.0257 3.73895V9.18791H77.065V3.02198H76.9277Z" fill="#4D4D4F"/>
<path d="M86.5346 9.04436C86.5346 9.47454 86.5346 9.90473 86.3974 10.1915C86.2602 10.4783 86.1229 10.7651 85.9857 10.9085C85.8484 11.0519 85.5739 11.1953 85.2995 11.3387C85.025 11.4821 84.7505 11.4821 84.476 11.4821C84.2015 11.4821 83.927 11.4821 83.7898 11.3387C83.5153 11.3387 83.3781 11.1953 83.1036 11.0519L83.3781 10.1915C83.5153 10.3349 83.6526 10.3349 83.927 10.4783C84.0643 10.4783 84.3388 10.6217 84.6133 10.6217C85.025 10.6217 85.2995 10.4783 85.5739 10.3349C85.8484 10.0481 85.8484 9.76133 85.8484 9.18775V8.90097C85.7112 8.90097 85.5739 9.04436 85.4367 9.04436C85.2995 9.04436 85.1622 9.04436 85.025 9.04436C84.3388 9.04436 83.7898 8.75757 83.3781 8.184C82.9663 7.61042 82.8291 6.89345 82.8291 5.8897C82.8291 5.31612 82.8291 4.88594 82.9663 4.45576C83.1036 4.02558 83.2408 3.73879 83.3781 3.452C83.5153 3.16521 83.7898 2.87842 84.0643 2.73503C84.3388 2.59164 84.7505 2.44824 85.1622 2.44824C85.4367 2.44824 85.7112 2.44824 85.9857 2.59164C86.2602 2.59164 86.5346 2.73503 86.6719 2.87843V9.04436H86.5346ZM85.4367 3.73879C85.2995 3.73879 85.1622 3.73879 85.1622 3.73879C85.025 3.73879 85.025 3.73879 84.8877 3.73879C84.476 3.73879 84.0643 3.88218 83.927 4.31236C83.6526 4.74255 83.6526 5.31612 83.6526 6.17649C83.6526 6.89346 83.7898 7.46703 83.927 7.75382C84.2015 8.0406 84.476 8.184 84.8877 8.184C85.025 8.184 85.1622 8.184 85.2995 8.184C85.4367 8.184 85.5739 8.04061 85.7112 8.04061V3.73879H85.4367Z" fill="#4D4D4F"/>
</svg>
