<svg width="185" height="168" viewBox="0 0 185 168" fill="none" xmlns="http://www.w3.org/2000/svg">
<path d="M160.126 168H24.8739C11.1044 168 -1.52588e-05 156.991 -1.52588e-05 143.339V79.7065C-1.52588e-05 66.0551 11.1044 55.0459 24.8739 55.0459H160.126C173.896 55.0459 185 66.0551 185 79.7065V143.339C185 156.991 173.896 168 160.126 168Z" fill="#CDE6F5"/>
<path d="M107.491 68.917H37.7553C30.4264 68.917 24.43 74.8619 24.43 82.128C24.43 89.3941 30.4264 95.339 37.7553 95.339H107.491V68.917Z" fill="#D27228"/>
<path d="M115.043 99.9634H45.3071C37.9781 99.9634 31.9817 105.908 31.9817 113.174C31.9817 120.44 37.9781 126.385 45.3071 126.385H115.043V99.9634Z" fill="#D27228"/>
<path d="M115.265 0C140.805 0 161.459 20.4771 161.459 45.7982V167.56L69.07 167.78V45.7982C69.07 20.4771 89.7243 0 115.265 0Z" fill="#C9C9C9"/>
<path opacity="0.5" d="M85.5043 46.0184V125.505V168H69.0697V125.505V46.0184C69.0697 20.6973 89.7239 0.220215 115.264 0.220215C118.151 0.220215 120.816 0.440398 123.481 0.880765C101.939 4.84407 85.5043 23.5597 85.5043 46.0184Z" fill="white"/>
<path d="M40.8652 83.8901C37.9214 83.8901 35.535 81.5242 35.535 78.6057C35.535 75.6872 37.9214 73.3213 40.8652 73.3213C43.8089 73.3213 46.1953 75.6872 46.1953 78.6057C46.1953 81.5242 43.8089 83.8901 40.8652 83.8901Z" fill="#F09B40"/>
<path d="M106.042 46.1968L74.2832 46.1968V39.1509H106.042V46.1968Z" fill="#525254"/>
<path d="M169.454 20.9175H151.021L123.704 47.7799L130.144 54.1652L156.573 27.9634H169.454V20.9175Z" fill="#808285"/>
<path d="M119.262 64.5139H104.382C97.0531 64.5139 91.2788 58.7892 91.2788 51.5231V38.9727H132.365V51.5231C132.365 58.7892 126.591 64.5139 119.262 64.5139Z" fill="#414042"/>
<path d="M99.7182 39.1928L91.5009 47.3396V51.5231C91.5009 53.0644 91.723 54.3855 92.1672 55.7066L109.046 38.9727H99.7182V39.1928Z" fill="#525254"/>
<path d="M132.365 39.1929H120.15L96.831 62.3121C99.0519 63.8534 101.495 64.7342 104.382 64.7342H110.601L132.143 43.3764V39.1929H132.365Z" fill="#525254"/>
<path d="M73.2903 64.5139H58.4104C51.0814 64.5139 45.3071 58.7892 45.3071 51.5231V38.9727H86.3936V51.5231C86.3936 58.7892 80.6192 64.5139 73.2903 64.5139Z" fill="#414042"/>
<path d="M53.7469 39.1929L45.5296 47.3397V51.5231C45.5296 53.0644 45.7517 54.3855 46.1959 55.7066L62.8525 39.1929H53.7469Z" fill="#525254"/>
<path d="M86.3936 39.1929H74.1787L50.8593 62.3121C53.0802 63.8534 55.5232 64.7342 58.4104 64.7342H64.6289L86.1715 43.3764V39.1929H86.3936Z" fill="#525254"/>
<path d="M154.797 167.78V160.294C154.797 124.624 125.481 95.5596 89.5028 95.5596H69.0706V167.78H154.797Z" fill="#FFEFCF"/>
</svg>
