<svg width="130" height="130" viewBox="0 0 130 130" fill="none" xmlns="http://www.w3.org/2000/svg">
<g clip-path="url(#clip0)">
<path d="M108.93 66.35H21.2301C12.0456 66.35 4.6001 73.7955 4.6001 82.98C4.6001 92.1645 12.0456 99.61 21.2301 99.61H108.93C118.115 99.61 125.56 92.1645 125.56 82.98C125.56 73.7955 118.115 66.35 108.93 66.35Z" fill="#C3E8F5"/>
<path d="M65.0801 29.26C76.0707 29.26 86.6111 33.626 94.3826 41.3975C102.154 49.169 106.52 59.7094 106.52 70.7V77.56H23.6401V70.7C23.6401 59.7094 28.0061 49.169 35.7776 41.3975C43.5491 33.626 54.0896 29.26 65.0801 29.26Z" fill="#C3E8F5"/>
<path d="M73.0001 98C72.5652 98 72.148 97.8272 71.8405 97.5197C71.5329 97.2121 71.3601 96.795 71.3601 96.36V86.16C71.3601 85.7251 71.5329 85.3079 71.8405 85.0004C72.148 84.6928 72.5652 84.52 73.0001 84.52C73.4351 84.52 73.8522 84.6928 74.1598 85.0004C74.4673 85.3079 74.6401 85.7251 74.6401 86.16V96.33C74.6441 96.5479 74.6046 96.7644 74.524 96.9668C74.4434 97.1693 74.3232 97.3536 74.1705 97.5091C74.0178 97.6646 73.8357 97.7881 73.6347 97.8724C73.4338 97.9567 73.218 98.0001 73.0001 98Z" fill="#D17228"/>
<path d="M91.26 35.21H108.08C108.929 35.21 109.743 35.5471 110.343 36.1472C110.943 36.7473 111.28 37.5613 111.28 38.41C111.28 39.2587 110.943 40.0726 110.343 40.6727C109.743 41.2728 108.929 41.61 108.08 41.61H91.26V35.21Z" fill="#D17228"/>
<path d="M105.93 50.76H89.1101V44.35H105.93C106.779 44.35 107.593 44.6872 108.193 45.2873C108.793 45.8874 109.13 46.7013 109.13 47.55C109.131 47.9711 109.05 48.3883 108.889 48.7777C108.729 49.1671 108.494 49.521 108.196 49.8192C107.899 50.1174 107.546 50.354 107.157 50.5155C106.768 50.6769 106.351 50.76 105.93 50.76Z" fill="#D17228"/>
<path d="M107.32 38.83C108.038 38.83 108.62 38.2479 108.62 37.53C108.62 36.812 108.038 36.23 107.32 36.23C106.602 36.23 106.02 36.812 106.02 37.53C106.02 38.2479 106.602 38.83 107.32 38.83Z" fill="#F09A40"/>
<path d="M90.69 26C89.2262 26 87.7768 26.2885 86.4245 26.8489C85.0723 27.4094 83.8438 28.2309 82.8092 29.2664C81.7747 30.3019 80.9543 31.5311 80.3951 32.8838C79.8358 34.2366 79.5486 35.6862 79.55 37.15V58.08H19.45C19.45 58.08 44 88.43 77.4199 88.43C94.7199 88.43 101.83 76.87 101.83 61.65V37.15C101.831 35.6862 101.544 34.2366 100.985 32.8838C100.426 31.5311 99.6052 30.3019 98.5707 29.2664C97.5361 28.2309 96.3076 27.4094 94.9554 26.8489C93.6031 26.2885 92.1537 26 90.69 26Z" fill="#C8C8C8"/>
<path opacity="0.5" d="M90.6901 26C90.0191 26.0031 89.3497 26.0667 88.6901 26.19C91.265 26.6555 93.5936 28.0132 95.2669 30.0249C96.9402 32.0365 97.8513 34.5734 97.8401 37.19V61.66C97.8401 76.29 91.2501 87.54 75.3701 88.38C76.0401 88.38 76.7101 88.44 77.3701 88.44C94.6701 88.44 101.78 76.88 101.78 61.66V37.15C101.783 34.2024 100.617 31.3739 98.5385 29.284C96.4599 27.1941 93.6377 26.0132 90.6901 26Z" fill="white"/>
<path opacity="0.5" d="M101.83 61.6601V58.5601C100.18 58.4101 98.5199 58.3101 96.8299 58.3101C79.5299 58.3101 72.4199 69.8701 72.4199 85.0901V88.1901C74.0699 88.3401 75.7299 88.4401 77.4199 88.4401C94.7099 88.4301 101.83 76.8701 101.83 61.6601Z" fill="white"/>
<path d="M82.4401 47.52C85.925 47.52 88.7501 44.6949 88.7501 41.21C88.7501 37.7251 85.925 34.9 82.4401 34.9C78.9552 34.9 76.1301 37.7251 76.1301 41.21C76.1301 44.6949 78.9552 47.52 82.4401 47.52Z" fill="white"/>
<path d="M82.4401 41.35V37.57H82.3201C81.6155 37.567 80.9256 37.7709 80.3358 38.1563C79.746 38.5417 79.2823 39.0917 79.002 39.7382C78.7218 40.3846 78.6375 41.0991 78.7594 41.793C78.8813 42.4869 79.2042 43.1298 79.688 43.642C80.1718 44.1542 80.7953 44.5131 81.4811 44.6744C82.167 44.8356 82.8851 44.7921 83.5464 44.5491C84.2078 44.3062 84.7833 43.8745 85.2017 43.3076C85.62 42.7407 85.8629 42.0636 85.9001 41.36L82.4401 41.35Z" fill="#525254"/>
<path d="M88.74 45.0001C88.0791 46.2879 87.0433 47.3452 85.7694 48.0325C84.4954 48.7198 83.043 49.0049 81.6038 48.85C80.1645 48.6951 78.806 48.1077 77.7074 47.1651C76.6088 46.2225 75.8217 44.9691 75.45 43.5701C75.5489 45.1674 76.2097 46.6782 77.3154 47.8352C78.4211 48.9922 79.9004 49.7208 81.4916 49.892C83.0829 50.0632 84.6833 49.6661 86.0099 48.7708C87.3364 47.8755 88.3035 46.5398 88.74 45.0001Z" fill="#525254"/>
<path d="M57.6993 44.7373L51.5474 40.8075L35.6989 65.6176L41.8509 69.5474L57.6993 44.7373Z" fill="#1B75BB"/>
<path d="M41 64.16C39.4746 63.1857 37.6945 62.6856 35.8848 62.7232C34.0752 62.7607 32.3173 63.3341 30.8336 64.3709C29.3499 65.4076 28.207 66.8611 27.5496 68.5475C26.8921 70.2339 26.7495 72.0774 27.14 73.8449C27.5304 75.6123 28.4362 77.2242 29.7429 78.4767C31.0496 79.7292 32.6985 80.5661 34.4808 80.8813C36.2632 81.1966 38.099 80.9762 39.7561 80.2479C41.4131 79.5196 42.817 78.3162 43.79 76.79C45.0938 74.7449 45.5323 72.2658 45.0092 69.8975C44.486 67.5292 43.044 65.4656 41 64.16ZM40.1 74.44L35.86 76.64L31.86 74.07L32 69.3L36.24 67.1L40.24 69.67L40.1 74.44Z" fill="#F37A63"/>
<path d="M67.6201 31.93L62.4001 40.1L56.5201 39.83L53.8001 34.6L59.0201 26.43L53.1701 26.17L46.8401 36.07L52.2601 46.5L63.9901 47.03L70.3101 37.13L67.6201 31.93Z" fill="#F37A63"/>
<path d="M62.8399 74.82H62.0799C58.9663 74.8205 55.9775 73.5956 53.7599 71.41L33.1599 51.11H62.8399C64.3994 51.11 65.9436 51.4178 67.384 52.0158C68.8243 52.6138 70.1324 53.4903 71.2333 54.5949C72.3342 55.6995 73.2062 57.0106 73.7994 58.4529C74.3926 59.8952 74.6952 61.4405 74.6899 63C74.682 66.1376 73.43 69.144 71.2085 71.3598C68.9871 73.5756 65.9775 74.82 62.8399 74.82Z" fill="#525254"/>
<path d="M60.54 71.63C53.95 71.63 45.75 63.48 45.75 63.48L53.8 71.41C56.0176 73.5956 59.0064 74.8205 62.12 74.82H62.88C66.0176 74.82 69.0272 73.5756 71.2486 71.3598C73.4701 69.144 74.7221 66.1376 74.73 63C71.69 69 67.13 71.63 60.54 71.63Z" fill="#6B6A6D"/>
</g>
<defs>
<clipPath id="clip0">
<rect width="130" height="130" fill="white"/>
</clipPath>
</defs>
</svg>
