<svg width="79" height="82" viewBox="0 0 79 82" fill="none" xmlns="http://www.w3.org/2000/svg">
<path d="M7.30068 51.7725H11.9607V46.9036H7.30068V48.0396H0.155334C0 48.0396 0 48.0396 0 48.2019C0.155334 48.8511 0.310667 49.6626 0.466001 50.3118C0.466001 50.4741 0.621334 50.4741 0.776668 50.4741H7.45601V51.7725H7.30068Z" fill="white"/>
<path d="M29.8241 3.73269H57.7841C57.9394 3.73269 58.0948 3.4081 57.9394 3.4081C56.5414 2.59662 54.9881 1.94743 53.2794 1.29825C53.1241 1.29825 53.1241 1.29825 52.9688 1.29825H29.8241V-0.00012207H25.1641V4.86876H29.8241V3.73269Z" fill="white"/>
<path d="M74.8707 58.2644H56.5414L33.086 73.0334H15.0673C14.912 73.0334 14.7567 73.1957 14.912 73.358C15.844 74.1694 16.776 74.8186 17.8633 75.4678C18.0187 75.6301 18.174 75.6301 18.3293 75.6301H33.7074L57.3181 60.8611H73.6281C73.7834 60.8611 73.9387 60.6988 73.9387 60.6988C74.2494 60.0497 74.7154 59.4005 75.0261 58.589C75.1814 58.4267 75.0261 58.2644 74.8707 58.2644Z" fill="white"/>
<path d="M70.2112 66.0544H62.5999L37.9018 81.6349C37.7465 81.7972 37.7465 81.9595 38.0572 81.9595C38.5232 81.9595 38.9892 81.9595 39.2998 81.9595C40.2318 81.9595 41.1638 81.9595 42.0958 81.7972C42.2512 81.7972 42.4065 81.7972 42.5618 81.6349L63.3765 68.4889H68.3472C68.5025 68.4889 68.6579 68.4889 68.6579 68.3266C69.2792 67.6774 69.9005 66.8659 70.3665 66.2167C70.5219 66.2167 70.3665 66.0544 70.2112 66.0544Z" fill="white"/>
<path d="M78.5986 45.1183L66.0166 44.956L45.2019 38.4642C38.3672 31.3231 29.2025 26.6166 23.6105 25.1559C23.4552 25.1559 23.2999 25.3182 23.2999 25.4805C23.7659 28.0772 24.0765 30.0248 24.3872 31.9723L9.94117 27.5903H9.78583H1.39782C1.24249 27.5903 1.24249 27.5903 1.08715 27.7526C0.931821 28.4018 0.621154 29.2133 0.46582 29.8625C0.46582 30.0248 0.46582 30.0248 0.621154 30.0248L9.47517 30.1871L24.8532 34.8937C25.4745 38.6265 25.9405 41.8724 26.7172 46.9036C27.1832 50.1495 24.8532 55.6676 23.7659 58.102H23.4552H3.26182C3.10649 58.102 3.10649 58.2643 3.10649 58.4266C3.41716 59.0758 3.72783 59.8873 4.19383 60.5365C4.19383 60.6988 4.34916 60.6988 4.50449 60.6988H23.6105L51.8812 54.0446H76.2686C76.4239 54.0446 76.5793 53.8823 76.7346 53.72C76.8899 53.0708 77.2006 52.4217 77.3559 51.7725C77.3559 51.6102 77.3559 51.6102 77.2006 51.6102H53.4346C52.3472 48.202 50.4832 45.1183 48.4639 42.3593L65.5506 47.7151H65.7059L78.2879 47.8774C78.4433 47.8774 78.5986 47.7151 78.5986 47.7151C78.7539 47.0659 78.7539 46.2544 78.9093 45.6052C78.7539 45.2806 78.7539 45.1183 78.5986 45.1183Z" fill="white"/>
<path d="M5.12627 18.9887H42.5616L70.211 33.4331L70.5217 33.5954H78.4437C78.599 33.5954 78.599 33.4331 78.599 33.4331C78.4437 32.6216 78.2883 31.9724 78.133 31.1609C78.133 30.9986 77.9777 30.9986 77.9777 30.9986H71.143L43.183 16.392H6.6796C6.52427 16.392 6.36893 16.392 6.36893 16.5543C5.90293 17.2034 5.43693 18.0149 5.12627 18.6641C4.97093 18.8264 4.97093 18.9887 5.12627 18.9887Z" fill="white"/>
<path d="M9.16412 13.1459H54.9875L63.0649 6.97868C63.2202 6.97868 63.2202 6.81638 63.0649 6.65408C62.4435 6.16719 61.8222 5.68031 61.2009 5.35571H61.0455L54.2108 10.5492H11.1835C11.0281 10.5492 11.0281 10.5492 10.8728 10.7115C10.2515 11.3607 9.63012 12.1722 9.00879 12.8213C9.00879 12.9836 9.00879 13.1459 9.16412 13.1459Z" fill="white"/>
</svg>
