<svg id="Layer_1" data-name="Layer 1" xmlns="http://www.w3.org/2000/svg" viewBox="0 0 468.39 170.33"><defs><style>.cls-1{fill:#4d4d4f;}.cls-2{fill:#00a2d2;}</style></defs><title>wdnshrk_logo_</title><path class="cls-1" d="M197.48,64.22q.49,2.29,1.07,4.84t1.2,5.07q.63,2.51,1.28,4.88t1.22,4.3q.45-2.13.87-4.74t.81-5.47q.4-2.86.74-5.91t.57-6.1h3.35q-.87,7.66-2,14.1T204.11,87.5h-3.47q-.57-1.87-1.24-4.15t-1.31-4.74q-.65-2.46-1.26-5t-1.1-4.88q-.5,2.36-1.11,4.88t-1.26,5q-.65,2.46-1.31,4.74t-1.24,4.15h-3.46q-1.46-5.87-2.55-12.31t-2-14.1h3.47q.23,3,.58,6.08t.75,5.91q.4,2.88.82,5.49t.88,4.74q.57-1.94,1.22-4.3t1.28-4.88q.63-2.51,1.2-5.07t1.07-4.84Z"/><path class="cls-1" d="M232.55,74.32a26.44,26.44,0,0,1-.55,5.62,13.16,13.16,0,0,1-1.71,4.34,8.23,8.23,0,0,1-2.93,2.8,9.28,9.28,0,0,1-8.34,0,8.22,8.22,0,0,1-2.93-2.8,13.44,13.44,0,0,1-1.73-4.34,25.57,25.57,0,0,1-.57-5.62,25.84,25.84,0,0,1,.57-5.64,13.45,13.45,0,0,1,1.73-4.36A8.4,8.4,0,0,1,219,61.5a9.12,9.12,0,0,1,8.34,0,8.41,8.41,0,0,1,2.93,2.82A13.18,13.18,0,0,1,232,68.68,26.72,26.72,0,0,1,232.55,74.32Zm-3.66,0a29,29,0,0,0-.3-4.38,12.16,12.16,0,0,0-1-3.41,5.83,5.83,0,0,0-1.77-2.23,4.78,4.78,0,0,0-5.3,0,5.83,5.83,0,0,0-1.77,2.23,12.55,12.55,0,0,0-1,3.41,29.79,29.79,0,0,0,0,8.76,12.27,12.27,0,0,0,1,3.39,5.69,5.69,0,0,0,1.77,2.19,4.88,4.88,0,0,0,5.3,0,5.69,5.69,0,0,0,1.77-2.19,11.89,11.89,0,0,0,1-3.39A29,29,0,0,0,228.89,74.32Z"/><path class="cls-1" d="M257.12,74.32a26.44,26.44,0,0,1-.55,5.62,13.16,13.16,0,0,1-1.71,4.34,8.23,8.23,0,0,1-2.93,2.8,9.28,9.28,0,0,1-8.34,0,8.22,8.22,0,0,1-2.93-2.8,13.44,13.44,0,0,1-1.73-4.34,25.58,25.58,0,0,1-.57-5.62,25.85,25.85,0,0,1,.57-5.64,13.46,13.46,0,0,1,1.73-4.36,8.4,8.4,0,0,1,2.93-2.82,9.12,9.12,0,0,1,8.34,0,8.41,8.41,0,0,1,2.93,2.82,13.18,13.18,0,0,1,1.71,4.36A26.72,26.72,0,0,1,257.12,74.32Zm-3.66,0a29,29,0,0,0-.3-4.38,12.16,12.16,0,0,0-1-3.41,5.83,5.83,0,0,0-1.77-2.23,4.78,4.78,0,0,0-5.3,0,5.83,5.83,0,0,0-1.77,2.23,12.55,12.55,0,0,0-1,3.41,29.78,29.78,0,0,0,0,8.76,12.26,12.26,0,0,0,1,3.39,5.69,5.69,0,0,0,1.77,2.19,4.88,4.88,0,0,0,5.3,0,5.69,5.69,0,0,0,1.77-2.19,11.89,11.89,0,0,0,1-3.39A29,29,0,0,0,253.46,74.32Z"/><path class="cls-1" d="M280.62,74.28a21.8,21.8,0,0,1-.78,6.27,10.66,10.66,0,0,1-2.25,4.17A8.55,8.55,0,0,1,274.05,87a14,14,0,0,1-4.63.72,23.82,23.82,0,0,1-5.49-.69V61.48q1.45-.3,2.82-.5a19.21,19.21,0,0,1,2.63-.19,14.13,14.13,0,0,1,4.67.72,8.55,8.55,0,0,1,3.54,2.32A10.66,10.66,0,0,1,279.84,68,21.8,21.8,0,0,1,280.62,74.28Zm-3.66,0a23.59,23.59,0,0,0-.42-4.8,8.83,8.83,0,0,0-1.3-3.24,5,5,0,0,0-2.31-1.83,9.17,9.17,0,0,0-3.41-.57c-.36,0-.71,0-1.07,0s-.72.06-1.1.11V84.57q.57.08,1.1.11t1,0a9.14,9.14,0,0,0,3.43-.57,5.21,5.21,0,0,0,2.3-1.81,8.44,8.44,0,0,0,1.31-3.22A23.82,23.82,0,0,0,277,74.28Z"/><path class="cls-1" d="M287.44,87.5V61.1h11.85V64h-8.42v8.19h7.62v2.86h-7.62v9.49h9V87.5Z"/><path class="cls-1" d="M319.29,87.5q-.91-2.25-2.08-4.86t-2.44-5.26q-1.28-2.65-2.61-5.26t-2.63-4.86V87.5h-3.2V61.1h2.86q1.45,2.36,2.8,4.84t2.57,4.9q1.22,2.42,2.3,4.76t2,4.44V61.1h3.2V87.5Z"/><path class="cls-1" d="M333.27,85.14A4.26,4.26,0,0,0,336.45,84a4.21,4.21,0,0,0,1.12-3.09,4.61,4.61,0,0,0-.34-1.83,5.65,5.65,0,0,0-.9-1.45,7.61,7.61,0,0,0-1.28-1.18l-1.49-1.07-1.83-1.3a9.78,9.78,0,0,1-1.73-1.6,7.72,7.72,0,0,1-1.28-2.13,7.55,7.55,0,0,1-.5-2.86,7.3,7.3,0,0,1,.55-2.9,6.48,6.48,0,0,1,1.52-2.21A6.72,6.72,0,0,1,332.65,61a8.43,8.43,0,0,1,2.91-.5,10,10,0,0,1,2.82.38,9.2,9.2,0,0,1,2.17.91l-1.07,2.71a6.56,6.56,0,0,0-1.73-.82,6.66,6.66,0,0,0-2-.29,4.31,4.31,0,0,0-3,1,3.76,3.76,0,0,0-1.12,3,4.48,4.48,0,0,0,.36,1.87,5.48,5.48,0,0,0,1,1.45,7.76,7.76,0,0,0,1.37,1.18L336,72.95q.88.57,1.79,1.26a9.78,9.78,0,0,1,1.66,1.58,7.39,7.39,0,0,1,1.7,4.93,8.64,8.64,0,0,1-.46,2.82,6.27,6.27,0,0,1-1.43,2.34,6.9,6.9,0,0,1-2.44,1.6,9.21,9.21,0,0,1-3.45.59,11,11,0,0,1-3.2-.42,9.72,9.72,0,0,1-2.44-1.1l1.07-2.74a10.26,10.26,0,0,0,2,1A7.39,7.39,0,0,0,333.27,85.14Z"/><path class="cls-1" d="M358.88,61.1h3.43V87.5h-3.43V75.23h-8.69V87.5h-3.43V61.1h3.43V72.26h8.69Z"/><path class="cls-1" d="M378.44,61.1q.91,2.85,1.81,5.77T382,73q.86,3.2,1.71,6.78t1.72,7.74H382q-.3-1.72-.62-3.39t-.66-3.35H372.4q-.38,1.68-.69,3.35t-.6,3.39h-3.31q.84-4.15,1.72-7.73T371.25,73q.86-3.2,1.76-6.11t1.82-5.78ZM376.57,65q-.93,3.17-1.81,6.37t-1.68,6.55H380q-.76-3.35-1.63-6.55T376.57,65Z"/><path class="cls-1" d="M390.91,61.48a21.78,21.78,0,0,1,5.14-.65,13,13,0,0,1,3.58.46,7.1,7.1,0,0,1,2.74,1.45,6.54,6.54,0,0,1,1.77,2.55,10.11,10.11,0,0,1,.63,3.77,8.35,8.35,0,0,1-1,4.44,6.77,6.77,0,0,1-2.84,2.57q.46.76,1.16,2.08t1.45,2.9q.74,1.58,1.45,3.26t1.2,3.2H402.7q-.42-1.14-1-2.59T400.35,82q-.68-1.43-1.36-2.74t-1.21-2.23q-.61.08-1.26.11t-1.3,0h-1V87.5h-3.35Zm3.35,12.92h1.45a6.06,6.06,0,0,0,4-1.2q1.41-1.2,1.41-4.13a7.46,7.46,0,0,0-.36-2.5,3.81,3.81,0,0,0-1-1.6,4.06,4.06,0,0,0-1.6-.86,7.55,7.55,0,0,0-2.08-.27,13.65,13.65,0,0,0-1.83.11Z"/><path class="cls-1" d="M427.11,61.1q-.84,1.29-1.88,2.85l-2.15,3.22q-1.1,1.65-2.23,3.25t-2.15,3a29.74,29.74,0,0,1,2.47,2.88q1.33,1.74,2.63,3.66t2.44,3.91a30.64,30.64,0,0,1,1.83,3.66h-3.84q-.8-1.75-1.85-3.59t-2.21-3.53q-1.16-1.7-2.36-3.15a20.74,20.74,0,0,0-2.34-2.44V87.5H412V61.1h3.43V72.74q1-1.26,2.09-2.85l2.19-3.19q1.09-1.6,2-3.06t1.6-2.53Z"/><path class="cls-1" d="M193.18,106.75a11.91,11.91,0,0,1-.43,3.42,5.81,5.81,0,0,1-1.23,2.27,4.65,4.65,0,0,1-1.93,1.27,7.63,7.63,0,0,1-2.52.4,13,13,0,0,1-3-.37v-14q.79-.17,1.54-.27a10.48,10.48,0,0,1,1.43-.1,7.7,7.7,0,0,1,2.55.39,4.67,4.67,0,0,1,1.93,1.27,5.81,5.81,0,0,1,1.23,2.28A11.9,11.9,0,0,1,193.18,106.75Zm-2,0a12.88,12.88,0,0,0-.23-2.62,4.81,4.81,0,0,0-.71-1.77,2.74,2.74,0,0,0-1.26-1,5,5,0,0,0-1.86-.31l-.58,0-.6.06v11.22l.6.06.56,0a5,5,0,0,0,1.87-.31,2.84,2.84,0,0,0,1.26-1,4.59,4.59,0,0,0,.72-1.76A13,13,0,0,0,191.18,106.75Z"/><path class="cls-1" d="M201.07,104.67a3.71,3.71,0,0,0-1.5-.29,3.79,3.79,0,0,0-1.43.27V114h-1.79V103.53a7.31,7.31,0,0,1,1.38-.49,7,7,0,0,1,1.71-.2,8.08,8.08,0,0,1,1,.06,4,4,0,0,1,.94.23Z"/><path class="cls-1" d="M204.6,109a9,9,0,0,0,.15,1.44,3.64,3.64,0,0,0,.41,1.14,2,2,0,0,0,.75.76,2.36,2.36,0,0,0,1.19.27,3.38,3.38,0,0,0,1.11-.18,5.3,5.3,0,0,0,.74-.3l.33,1.43a4,4,0,0,1-.9.41,4.64,4.64,0,0,1-1.51.22,4,4,0,0,1-1.92-.42,3.4,3.4,0,0,1-1.27-1.16,5,5,0,0,1-.7-1.79,11.67,11.67,0,0,1-.21-2.29,7.67,7.67,0,0,1,1-4.41,3.1,3.1,0,0,1,2.64-1.39,2.74,2.74,0,0,1,2.62,1.39,8.17,8.17,0,0,1,.77,3.91v.47c0,.16,0,.32,0,.49Zm1.81-4.74a1.35,1.35,0,0,0-1.3.89,6.77,6.77,0,0,0-.49,2.39h3.3a7.44,7.44,0,0,0-.31-2.4A1.19,1.19,0,0,0,206.41,104.3Z"/><path class="cls-1" d="M213,103.28a6.74,6.74,0,0,1,1.14-.36,6,6,0,0,1,1.31-.13,3.23,3.23,0,0,1,2.37.9,3.82,3.82,0,0,1,.91,2.82v7.23a13.89,13.89,0,0,1-1.53.33,9.73,9.73,0,0,1-1.53.12,5.08,5.08,0,0,1-1.4-.19,3,3,0,0,1-1.14-.6,3,3,0,0,1-.78-1,3.69,3.69,0,0,1-.29-1.55,3.89,3.89,0,0,1,.26-1.49,3,3,0,0,1,.72-1.06,3,3,0,0,1,1.08-.64,4.06,4.06,0,0,1,1.35-.22,7.83,7.83,0,0,1,1.52.17v-1a2.39,2.39,0,0,0-.47-1.68,1.79,1.79,0,0,0-1.34-.48,4.22,4.22,0,0,0-.9.09,5,5,0,0,0-.9.3Zm.85,7.5a1.83,1.83,0,0,0,.5,1.41,2,2,0,0,0,1.41.46,5.78,5.78,0,0,0,1.23-.15V109a4.77,4.77,0,0,0-1.23-.17,2.91,2.91,0,0,0-.75.09,1.56,1.56,0,0,0-.61.31,1.43,1.43,0,0,0-.41.58A2.5,2.5,0,0,0,213.87,110.78Z"/><path class="cls-1" d="M222.29,103.36a13.27,13.27,0,0,1,1.58-.38,8.75,8.75,0,0,1,1.56-.16,4.35,4.35,0,0,1,1.32.19,2.66,2.66,0,0,1,1,.62,5.74,5.74,0,0,1,1.16-.58,4,4,0,0,1,1.37-.23,4,4,0,0,1,1.36.22,2.41,2.41,0,0,1,1,.74,3.75,3.75,0,0,1,.69,1.4,8.2,8.2,0,0,1,.25,2.19V114h-1.79v-6.44a5.6,5.6,0,0,0-.37-2.37,1.43,1.43,0,0,0-1.41-.75,2.36,2.36,0,0,0-.8.15,3.15,3.15,0,0,0-.76.4,5.68,5.68,0,0,1,.25,1.08,10,10,0,0,1,.08,1.35V114h-1.79v-6.44a5.59,5.59,0,0,0-.37-2.37,1.43,1.43,0,0,0-1.41-.75,4.3,4.3,0,0,0-1.23.21V114h-1.79Z"/><path class="cls-1" d="M241.8,114V99.56h6.46v1.6h-4.59v4.47h4.16v1.56h-4.16v5.17h4.92V114Z"/><path class="cls-1" d="M251.57,103.36a14.76,14.76,0,0,1,1.66-.38,9.64,9.64,0,0,1,1.64-.16,4.72,4.72,0,0,1,1.48.22,2.59,2.59,0,0,1,1.13.74,3.57,3.57,0,0,1,.73,1.4,7.89,7.89,0,0,1,.26,2.19V114h-1.79v-6.44a5.1,5.1,0,0,0-.42-2.37,1.62,1.62,0,0,0-1.56-.75,5.11,5.11,0,0,0-1.35.21V114h-1.79Z"/><path class="cls-1" d="M268.48,113.65a5.61,5.61,0,0,1-.3,2,3.46,3.46,0,0,1-.82,1.3,3.14,3.14,0,0,1-1.22.73,4.72,4.72,0,0,1-1.49.23,6.23,6.23,0,0,1-1.33-.15,4.94,4.94,0,0,1-1.23-.44l.37-1.5a4.8,4.8,0,0,0,.91.37,3.79,3.79,0,0,0,1.12.17,2.16,2.16,0,0,0,1.6-.58,2.77,2.77,0,0,0,.58-2v-.52a4.49,4.49,0,0,1-.71.24,3.53,3.53,0,0,1-.85.09,3.2,3.2,0,0,1-2.86-1.34,6.75,6.75,0,0,1-.9-3.79,10.63,10.63,0,0,1,.24-2.36,5.1,5.1,0,0,1,.75-1.79,3.29,3.29,0,0,1,1.32-1.12,4.58,4.58,0,0,1,2-.38,7.24,7.24,0,0,1,1.51.16,7.08,7.08,0,0,1,1.32.41Zm-1.79-9.14a3.59,3.59,0,0,0-.56-.11l-.5,0a2,2,0,0,0-1.82,1,6.36,6.36,0,0,0-.57,3.12,5,5,0,0,0,.56,2.75,1.84,1.84,0,0,0,1.6.8,2.7,2.7,0,0,0,.68-.08,3.12,3.12,0,0,0,.61-.23Z"/><path class="cls-1" d="M273,101.12a1.16,1.16,0,0,1-.82-.32,1.26,1.26,0,0,1,0-1.72,1.21,1.21,0,0,1,1.64,0,1.26,1.26,0,0,1,0,1.72A1.15,1.15,0,0,1,273,101.12Zm.89,12.84h-1.79V103.05h1.79Z"/><path class="cls-1" d="M277.56,103.36a14.75,14.75,0,0,1,1.66-.38,9.64,9.64,0,0,1,1.64-.16,4.72,4.72,0,0,1,1.48.22,2.59,2.59,0,0,1,1.13.74,3.58,3.58,0,0,1,.73,1.4,7.89,7.89,0,0,1,.26,2.19V114h-1.79v-6.44a5.1,5.1,0,0,0-.42-2.37,1.62,1.62,0,0,0-1.56-.75,5.11,5.11,0,0,0-1.35.21V114h-1.79Z"/><path class="cls-1" d="M289.22,109a9,9,0,0,0,.15,1.44,3.64,3.64,0,0,0,.41,1.14,2,2,0,0,0,.75.76,2.36,2.36,0,0,0,1.19.27,3.38,3.38,0,0,0,1.11-.18,5.3,5.3,0,0,0,.74-.3l.33,1.43a4,4,0,0,1-.9.41,4.64,4.64,0,0,1-1.51.22,4,4,0,0,1-1.92-.42,3.4,3.4,0,0,1-1.27-1.16,5,5,0,0,1-.7-1.79,11.67,11.67,0,0,1-.21-2.29,7.67,7.67,0,0,1,1-4.41,3.1,3.1,0,0,1,2.64-1.39,2.74,2.74,0,0,1,2.62,1.39,8.17,8.17,0,0,1,.77,3.91v.47c0,.16,0,.32,0,.49ZM291,104.3a1.35,1.35,0,0,0-1.3.89,6.77,6.77,0,0,0-.49,2.39h3.3a7.44,7.44,0,0,0-.31-2.4A1.19,1.19,0,0,0,291,104.3Z"/><path class="cls-1" d="M298.7,109a9,9,0,0,0,.15,1.44,3.64,3.64,0,0,0,.41,1.14,2,2,0,0,0,.75.76,2.36,2.36,0,0,0,1.19.27,3.38,3.38,0,0,0,1.11-.18,5.3,5.3,0,0,0,.74-.3l.33,1.43a4,4,0,0,1-.9.41,4.64,4.64,0,0,1-1.51.22,4,4,0,0,1-1.92-.42,3.4,3.4,0,0,1-1.27-1.16,5,5,0,0,1-.7-1.79,11.67,11.67,0,0,1-.21-2.29,7.67,7.67,0,0,1,1-4.41,3.1,3.1,0,0,1,2.64-1.39,2.74,2.74,0,0,1,2.62,1.39,8.17,8.17,0,0,1,.77,3.91v.47c0,.16,0,.32,0,.49Zm1.81-4.74a1.35,1.35,0,0,0-1.3.89,6.77,6.77,0,0,0-.49,2.39H302a7.44,7.44,0,0,0-.31-2.4A1.19,1.19,0,0,0,300.51,104.3Z"/><path class="cls-1" d="M311.66,104.67a3.71,3.71,0,0,0-1.5-.29,3.79,3.79,0,0,0-1.43.27V114h-1.79V103.53a7.31,7.31,0,0,1,1.38-.49,7,7,0,0,1,1.71-.2,8.08,8.08,0,0,1,1,.06,4,4,0,0,1,.94.23Z"/><path class="cls-1" d="M315.07,101.12a1.15,1.15,0,0,1-.82-.32,1.26,1.26,0,0,1,0-1.72,1.21,1.21,0,0,1,1.64,0,1.26,1.26,0,0,1,0,1.72A1.16,1.16,0,0,1,315.07,101.12ZM316,114h-1.79V103.05H316Z"/><path class="cls-1" d="M319.62,103.36a14.76,14.76,0,0,1,1.66-.38,9.64,9.64,0,0,1,1.64-.16,4.72,4.72,0,0,1,1.48.22,2.59,2.59,0,0,1,1.13.74,3.57,3.57,0,0,1,.73,1.4,7.89,7.89,0,0,1,.26,2.19V114h-1.79v-6.44a5.1,5.1,0,0,0-.42-2.37,1.62,1.62,0,0,0-1.56-.75,5.11,5.11,0,0,0-1.35.21V114h-1.79Z"/><path class="cls-1" d="M336.54,113.65a5.6,5.6,0,0,1-.3,2,3.46,3.46,0,0,1-.82,1.3,3.15,3.15,0,0,1-1.22.73,4.73,4.73,0,0,1-1.49.23,6.22,6.22,0,0,1-1.33-.15,4.92,4.92,0,0,1-1.23-.44l.37-1.5a4.8,4.8,0,0,0,.91.37,3.79,3.79,0,0,0,1.12.17,2.16,2.16,0,0,0,1.6-.58,2.77,2.77,0,0,0,.58-2v-.52a4.47,4.47,0,0,1-.71.24,3.52,3.52,0,0,1-.85.09,3.2,3.2,0,0,1-2.86-1.34,6.75,6.75,0,0,1-.9-3.79,10.63,10.63,0,0,1,.24-2.36,5.09,5.09,0,0,1,.75-1.79,3.29,3.29,0,0,1,1.32-1.12,4.58,4.58,0,0,1,2-.38,7.25,7.25,0,0,1,1.51.16,7.08,7.08,0,0,1,1.32.41Zm-1.79-9.14a3.6,3.6,0,0,0-.56-.11l-.5,0a2,2,0,0,0-1.82,1,6.35,6.35,0,0,0-.57,3.12,5,5,0,0,0,.56,2.75,1.84,1.84,0,0,0,1.6.8,2.69,2.69,0,0,0,.68-.08,3.11,3.11,0,0,0,.61-.23Z"/><path class="cls-2" d="M49.11,106.2h7.34V98.83H49.11v1.76H37.83a.28.28,0,0,0-.27.33q.31,1.62.71,3.21a.41.41,0,0,0,.4.31H49.11Z"/><path class="cls-2" d="M84.37,34.08h43.79a.27.27,0,0,0,.13-.51,62.23,62.23,0,0,0-7.19-3.25,1.39,1.39,0,0,0-.49-.09H84.37V28.54H77v7.37h7.34Z"/><path class="cls-2" d="M155.05,115.91l-28.63,0-37,22.26-28.26-.05a.28.28,0,0,0-.17.49q2.19,1.68,4.53,3.16a1.38,1.38,0,0,0,.73.21l24.23,0,37-22.26,25.58,0a.69.69,0,0,0,.6-.35q.86-1.53,1.63-3.11A.28.28,0,0,0,155.05,115.91Z"/><path class="cls-2" d="M147.68,127.55H135.63L96.81,151a.27.27,0,0,0,.13.51q1,0,2.06,0,2.18,0,4.33-.15a1.38,1.38,0,0,0,.62-.2L136.7,131.4h8a.69.69,0,0,0,.51-.22q1.42-1.55,2.73-3.18A.28.28,0,0,0,147.68,127.55Z"/><path class="cls-2" d="M160.86,96.25l-19.75-.15-32.54-9.63c-10.83-10.82-25-17.77-33.81-19.94a.43.43,0,0,0-.52.49c.64,3.79,1.17,6.94,1.65,9.77L53.3,70.1,53,70,39.65,69.9a.41.41,0,0,0-.4.29q-.5,1.59-.91,3.21a.28.28,0,0,0,.26.34l13.86.13L76.59,81c.93,5.62,1.71,10.52,2.89,18,.77,4.85-2.92,13.25-4.58,16.71l-.4.09-31.6,0a.28.28,0,0,0-.25.4q.77,1.58,1.62,3.1a.69.69,0,0,0,.6.35l30.05,0,44.42-9.87h38.19a.69.69,0,0,0,.65-.46q.52-1.5,1-3a.28.28,0,0,0-.26-.35H121.32a48.37,48.37,0,0,0-7.87-14l26.83,7.94.26.08,19.71.15a.41.41,0,0,0,.41-.34q.28-1.59.47-3.2A.28.28,0,0,0,160.86,96.25Z"/><path class="cls-2" d="M45.65,56.95h58.7l43.33,21.7.41.2h12.39a.28.28,0,0,0,.27-.32q-.28-1.67-.64-3.32a.28.28,0,0,0-.27-.21H149L105.26,53.1H48a.69.69,0,0,0-.57.3q-1.06,1.54-2,3.14A.28.28,0,0,0,45.65,56.95Z"/><path class="cls-2" d="M51.94,48.31h71.93l12.55-9.15a.28.28,0,0,0,0-.44q-1.4-1-2.86-2a.28.28,0,0,0-.31,0l-10.63,7.75H55.2a.69.69,0,0,0-.49.2q-1.54,1.54-3,3.2A.28.28,0,0,0,51.94,48.31Z"/></svg>