<svg width="1912" height="55" viewBox="0 0 1912 55" fill="none" xmlns="http://www.w3.org/2000/svg">
<path d="M0 0H1920V49H380.5L356 55H0L0 0Z" fill="white"/>
<path d="M375.101 35.2583C369.062 28.949 360.965 24.7905 356.024 23.5C355.887 23.5 355.75 23.6434 355.75 23.7868C356.161 26.0811 356.436 27.8018 356.71 29.5225L357.122 32.1036C357.491 34.321 357.798 36.3439 358.168 38.7824C358.349 39.9709 358.544 41.2582 358.769 42.7148C359.181 45.5827 357.122 50.4581 356.161 52.609H355.887H0V54.9033H356.024L381.002 49.0241H1920.1V46.8732H382.374C381.414 43.8619 379.767 41.1374 377.983 38.6998L375.101 35.2583Z" fill="#00A2D2"/>
</svg>
