<svg width="70" height="73" viewBox="0 0 70 73" fill="none" xmlns="http://www.w3.org/2000/svg">
<path d="M6.45038 45.7423H10.5676V41.4404H6.45038V42.4442H0.137242C0 42.4442 0 42.4442 0 42.5876C0.137242 43.1612 0.274484 43.8781 0.411726 44.4517C0.411726 44.5951 0.548968 44.5951 0.686211 44.5951H6.58762V45.7423H6.45038Z" fill="#00A2D2"/>
<path d="M26.3497 3.29806H51.0533C51.1905 3.29806 51.3277 3.01127 51.1905 3.01127C49.9553 2.2943 48.5829 1.72073 47.0732 1.14715C46.936 1.14715 46.936 1.14715 46.7988 1.14715H26.3497V0H22.2324V4.30182H26.3497V3.29806Z" fill="#00A2D2"/>
<path d="M66.1505 51.478H49.9559L29.2323 64.5269H13.3123C13.175 64.5269 13.0378 64.6703 13.175 64.8137C13.9985 65.5306 14.8219 66.1042 15.7826 66.6778C15.9199 66.8212 16.0571 66.8212 16.1943 66.8212H29.7813L50.6421 53.7723H65.0525C65.1898 53.7723 65.327 53.6289 65.327 53.6289C65.6015 53.0554 66.0132 52.4818 66.2877 51.7648C66.4249 51.6214 66.2877 51.478 66.1505 51.478Z" fill="#00A2D2"/>
<path d="M62.033 58.3608H55.3081L33.4866 72.1266C33.3494 72.27 33.3494 72.4134 33.6239 72.4134C34.0356 72.4134 34.4473 72.4134 34.7218 72.4134C35.5453 72.4134 36.3687 72.4134 37.1922 72.27C37.3294 72.27 37.4667 72.27 37.6039 72.1266L55.9943 60.5117H60.3861C60.5233 60.5117 60.6606 60.5117 60.6606 60.3684C61.2095 59.7948 61.7585 59.0778 62.1702 58.5042C62.3075 58.5042 62.1702 58.3608 62.033 58.3608Z" fill="#00A2D2"/>
<path d="M69.4439 39.8635L58.3273 39.7201L39.9369 33.9844C33.8982 27.675 25.8009 23.5166 20.8602 22.2261C20.723 22.2261 20.5857 22.3695 20.5857 22.5129C20.9975 24.8072 21.2719 26.5279 21.5464 28.2486L8.7829 24.377H8.64566H1.23459C1.09734 24.377 1.09734 24.377 0.960101 24.5204C0.822859 25.094 0.548375 25.8109 0.411133 26.3845C0.411133 26.5279 0.411133 26.5279 0.548375 26.5279L8.37118 26.6713L21.9581 30.8297C22.5071 34.1278 22.9188 36.9956 23.6051 41.4409C24.0168 44.3087 21.9581 49.1841 20.9975 51.335H20.723H2.88149C2.74425 51.335 2.74425 51.4784 2.74425 51.6218C3.01873 52.1954 3.29322 52.9124 3.70494 53.4859C3.70494 53.6293 3.84219 53.6293 3.97943 53.6293H20.8602L45.8383 47.7502H67.3853C67.5225 47.7502 67.6598 47.6068 67.797 47.4634C67.9343 46.8898 68.2087 46.3162 68.346 45.7427C68.346 45.5993 68.346 45.5993 68.2087 45.5993H47.2107C46.25 42.588 44.6031 39.8635 42.819 37.4258L57.9156 42.1578H58.0528L69.1694 42.3012C69.3067 42.3012 69.4439 42.1578 69.4439 42.1578C69.5812 41.5842 69.5812 40.8673 69.7184 40.2937C69.5812 40.0069 69.5812 39.8635 69.4439 39.8635Z" fill="#00A2D2"/>
<path d="M4.52969 16.7772H37.605L62.0341 29.5393L62.3086 29.6827H69.308C69.4452 29.6827 69.4452 29.5393 69.4452 29.5393C69.308 28.8223 69.1707 28.2487 69.0335 27.5318C69.0335 27.3884 68.8962 27.3884 68.8962 27.3884H62.8576L38.154 14.4829H5.90211C5.76487 14.4829 5.62763 14.4829 5.62763 14.6263C5.2159 15.1999 4.80417 15.9168 4.52969 16.4904C4.39245 16.6338 4.39245 16.7772 4.52969 16.7772Z" fill="#00A2D2"/>
<path d="M8.09623 11.6148H48.5827L55.7192 6.16587C55.8565 6.16587 55.8565 6.02248 55.7192 5.87908C55.1703 5.4489 54.6213 5.01872 54.0723 4.73193H53.9351L47.8964 9.32054H9.88037C9.74313 9.32054 9.74313 9.32054 9.60589 9.46393C9.05692 10.0375 8.50795 10.7545 7.95898 11.3281C7.95898 11.4714 7.95898 11.6148 8.09623 11.6148Z" fill="#00A2D2"/>
</svg>
