<svg width="375" height="56" viewBox="0 0 375 56" fill="none" xmlns="http://www.w3.org/2000/svg">
<g clip-path="url(#clip0)">
<path d="M-177 0H1743V49H203.5L179 55H-177L-177 0Z" fill="white"/>
<path d="M198.101 36.2583C192.062 29.949 183.965 25.7905 179.024 24.5C178.887 24.5 178.75 24.6434 178.75 24.7868C179.161 27.0811 179.436 28.8018 179.71 30.5225L180.122 33.1036C180.491 35.321 180.798 37.3439 181.168 39.7824C181.349 40.9709 181.544 42.2582 181.769 43.7148C182.181 46.5827 180.122 51.4581 179.161 53.609H178.887H0V55.9033H179.024L204.002 50.0241H375V47.8732H205.375C204.414 44.8619 202.767 42.1374 200.983 39.6998L198.101 36.2583Z" fill="#00A2D2"/>
<rect x="331" y="20" width="28" height="3" fill="#00A2D2"/>
<rect x="331" y="27" width="28" height="3" fill="#00A2D2"/>
<rect x="331" y="34" width="28" height="3" fill="#00A2D2"/>
</g>
<defs>
<clipPath id="clip0">
<rect width="375" height="56" fill="white"/>
</clipPath>
</defs>
</svg>
