<svg width="66" height="63" viewBox="0 0 66 63" fill="none" xmlns="http://www.w3.org/2000/svg">
<path d="M54.387 44.69V56.69C46.9461 56.69 40.9034 45.74 40.9034 32.23C40.9034 18.72 46.8961 7.77002 54.387 7.77002V19.73" stroke="#F1B642" stroke-width="2.13" stroke-linecap="round" stroke-linejoin="round"/>
<path d="M51.4705 8.36987L21.6569 21.6699V42.8699L51.5005 56.2299" stroke="#F1B642" stroke-width="2.13" stroke-linecap="round" stroke-linejoin="round"/>
<path d="M21.7468 43.04H7.45422V21.49H21.7468" stroke="#F1B642" stroke-width="2.13" stroke-miterlimit="10"/>
<path d="M7.91368 36.02H5.32684C4.36947 35.9836 3.4657 35.5682 2.814 34.8651C2.16231 34.1619 1.81598 33.2286 1.85108 32.27C1.81594 31.3131 2.16091 30.3812 2.81046 29.6784C3.46002 28.9756 4.36125 28.5591 5.31685 28.52H7.91368" stroke="#F1B642" stroke-width="2.13" stroke-miterlimit="10"/>
<path d="M58.242 43.3C59.781 43.3 61.0286 38.3617 61.0286 32.27C61.0286 26.1783 59.781 21.24 58.242 21.24C56.703 21.24 55.4554 26.1783 55.4554 32.27C55.4554 38.3617 56.703 43.3 58.242 43.3Z" stroke="#F1B642" stroke-width="2.13" stroke-miterlimit="10"/>
<path d="M57.9726 21.18L43.6001 17.99" stroke="#F1B642" stroke-width="2.13" stroke-miterlimit="10" stroke-linecap="round"/>
<path d="M43.6001 46.5699L57.9726 43.3899" stroke="#F1B642" stroke-width="2.13" stroke-miterlimit="10" stroke-linecap="round"/>
<path d="M25.9217 45.3801L21.587 60.6201H9.40186L14.2559 43.5601" stroke="#F1B642" stroke-width="2.13" stroke-miterlimit="10" stroke-linecap="round"/>
<path d="M34.1914 56.47L39.3851 61.66" stroke="#FFCB4E" stroke-width="1.42" stroke-miterlimit="10"/>
<path d="M34.1914 61.66L39.3851 56.47" stroke="#FFCB4E" stroke-width="1.42" stroke-miterlimit="10"/>
<path d="M17.9813 3.57995L15.1049 0.699951" stroke="#FFCB4E" stroke-width="1.42" stroke-miterlimit="10"/>
<path d="M23.5546 9.16002L20.6681 6.27002" stroke="#FFCB4E" stroke-width="1.42" stroke-miterlimit="10"/>
<path d="M17.9813 6.27002L15.1049 9.16002" stroke="#FFCB4E" stroke-width="1.42" stroke-miterlimit="10"/>
<path d="M23.5546 0.699951L20.6681 3.57995" stroke="#FFCB4E" stroke-width="1.42" stroke-miterlimit="10"/>
<path d="M64.175 40.5801C63.3061 45.0301 61.758 48.6401 59.8303 50.7401" stroke="#FFCB4E" stroke-width="1.42" stroke-miterlimit="10"/>
<path d="M47.5552 24.67C48.8836 17.13 52.1296 11.8 55.935 11.8C60.0799 11.8 63.5756 18.1501 64.6244 26.8" stroke="#FFCB4E" stroke-width="1.42" stroke-miterlimit="10"/>
<path d="M16.5131 48.02H22.0064" stroke="#FFCB4E" stroke-width="2.13" stroke-linejoin="round"/>
<path d="M14.9451 52.3899H20.4384" stroke="#FFCB4E" stroke-width="2.13" stroke-linejoin="round"/>
<path d="M13.5767 56.76H19.07" stroke="#FFCB4E" stroke-width="2.13" stroke-linejoin="round"/>
</svg>
