<svg width="219" height="219" viewBox="0 0 219 219" fill="none" xmlns="http://www.w3.org/2000/svg">
<path d="M215.965 85.7602H202.402C200.107 76.579 196.56 68.0239 191.761 60.0947L201.359 50.4963C192.804 37.1419 181.536 25.8741 168.182 17.319L158.583 26.9174C150.654 22.1182 142.099 18.5709 132.918 16.2757V2.50395C125.197 0.834649 117.268 0 109.339 0C101.41 0 93.4807 0.834649 85.9688 2.50395V16.067C76.7877 18.3623 68.2326 21.9095 60.3034 26.7088L50.7049 17.1103C37.3505 25.6655 26.0828 36.9332 17.5276 50.2876L27.1261 59.8861C22.3269 67.8152 18.7796 76.3704 16.4843 85.5515H2.50395C0.834649 93.4807 0 101.201 0 109.339C0 117.477 0.834649 125.197 2.50395 132.709H16.067C18.3623 141.89 21.9095 150.445 26.7088 158.375L17.1103 167.973C25.6655 181.327 36.9332 192.595 50.2876 201.15L59.8861 191.552C67.8152 196.351 76.3704 199.898 85.5515 202.194V215.757C93.0634 217.426 100.993 218.261 108.922 218.261C116.851 218.261 124.78 217.426 132.292 215.757V202.402C141.473 200.107 150.028 196.56 157.957 191.761L167.556 201.359C181.536 192.804 192.804 181.536 201.359 168.182L191.761 158.583C196.56 150.654 200.107 142.099 202.402 132.918H215.965C217.635 125.406 218.469 117.477 218.469 109.548C218.678 101.201 217.635 93.4807 215.965 85.7602ZM109.339 176.946C71.9885 176.946 41.7324 146.69 41.7324 109.339C41.7324 71.9885 71.9885 41.7324 109.339 41.7324C146.69 41.7324 176.946 71.9885 176.946 109.339C176.946 146.69 146.69 176.946 109.339 176.946Z" fill="url(#paint0_linear)"/>
<path d="M68.8594 44.0279C70.32 43.1932 71.7806 42.3586 73.2413 41.5239" stroke="#00A1D2" stroke-width="0.8504" stroke-miterlimit="10"/>
<path d="M54.8783 165.052C40.4806 151.071 31.7168 131.457 31.7168 109.965C31.7168 89.516 39.646 70.945 52.583 57.1733" stroke="#00A1D2" stroke-width="0.8504" stroke-miterlimit="10"/>
<path d="M94.316 111.634L92.0207 70.9453H80.753L78.249 111.634H94.316Z" fill="url(#paint1_linear)"/>
<path d="M121.859 111.634L119.564 84.5083H108.296L105.792 111.634H121.859Z" fill="url(#paint2_linear)"/>
<path d="M73.4492 111.634V149.819H144.812V111.634H73.4492ZM94.5241 134.587H83.0477V123.111H94.5241V134.587ZM114.973 134.587H103.497V123.111H114.973V134.587ZM135.631 134.587H124.154V123.111H135.631V134.587Z" fill="url(#paint3_linear)"/>
<path d="M154.202 150.028H64.0596" stroke="#00A1D2" stroke-width="0.8504" stroke-miterlimit="10"/>
<path d="M123.528 58.4254C123.528 63.016 119.981 66.5633 115.39 66.5633H84.7168L101.618 62.1813V58.4254C101.618 53.8349 105.166 50.2876 109.756 50.2876H115.181C119.772 50.2876 123.528 54.0435 123.528 58.4254Z" fill="url(#paint4_linear)"/>
<path d="M144.186 73.8661C144.186 77.4134 141.264 80.3346 137.717 80.3346H112.052L123.32 76.996V74.0748C123.32 70.5275 126.241 67.6062 129.788 67.6062H137.717C141.264 67.3976 144.186 70.3188 144.186 73.8661Z" fill="url(#paint5_linear)"/>
<path d="M36.3071 39.6457C35.0552 38.3938 35.0552 36.3071 36.3071 35.0552L44.8623 26.5C46.1143 25.248 48.2009 25.248 49.4529 26.5C50.7048 27.752 50.7048 29.8386 49.4529 31.0906L40.8977 39.6457C39.6457 40.8977 37.5591 40.8977 36.3071 39.6457Z" fill="#E6E6E6"/>
<defs>
<linearGradient id="paint0_linear" x1="72.2558" y1="7.53083" x2="146.334" y2="211.059" gradientUnits="userSpaceOnUse">
<stop stop-color="#75C2E3"/>
<stop offset="0.153" stop-color="#90CBE4"/>
<stop offset="0.4047" stop-color="#B5D7E5"/>
<stop offset="0.638" stop-color="#D1E0E6"/>
<stop offset="0.8437" stop-color="#E1E5E7"/>
<stop offset="1" stop-color="#E7E7E7"/>
</linearGradient>
<linearGradient id="paint1_linear" x1="78.1547" y1="91.3832" x2="94.2267" y2="91.3832" gradientUnits="userSpaceOnUse">
<stop stop-color="#FFCB4E"/>
<stop offset="1" stop-color="#F1B642"/>
</linearGradient>
<linearGradient id="paint2_linear" x1="105.728" y1="98.1362" x2="121.8" y2="98.1362" gradientUnits="userSpaceOnUse">
<stop stop-color="#FFCB4E"/>
<stop offset="1" stop-color="#F1B642"/>
</linearGradient>
<linearGradient id="paint3_linear" x1="73.386" y1="130.871" x2="144.853" y2="130.871" gradientUnits="userSpaceOnUse">
<stop stop-color="#F48777"/>
<stop offset="1" stop-color="#F1655D"/>
</linearGradient>
<linearGradient id="paint4_linear" x1="84.7312" y1="58.492" x2="123.459" y2="58.492" gradientUnits="userSpaceOnUse">
<stop stop-color="#75C2E3"/>
<stop offset="0.153" stop-color="#90CBE4"/>
<stop offset="0.4047" stop-color="#B5D7E5"/>
<stop offset="0.638" stop-color="#D1E0E6"/>
<stop offset="0.8437" stop-color="#E1E5E7"/>
<stop offset="1" stop-color="#E7E7E7"/>
</linearGradient>
<linearGradient id="paint5_linear" x1="112.064" y1="73.8035" x2="144.185" y2="73.8035" gradientUnits="userSpaceOnUse">
<stop stop-color="#75C2E3"/>
<stop offset="0.153" stop-color="#90CBE4"/>
<stop offset="0.4047" stop-color="#B5D7E5"/>
<stop offset="0.638" stop-color="#D1E0E6"/>
<stop offset="0.8437" stop-color="#E1E5E7"/>
<stop offset="1" stop-color="#E7E7E7"/>
</linearGradient>
</defs>
</svg>
