<svg width="117" height="107" viewBox="0 0 117 107" fill="none" xmlns="http://www.w3.org/2000/svg">
<path d="M101.269 107H15.7311C7.02281 107 0 99.9882 0 91.2936V50.7654C0 42.0708 7.02281 35.059 15.7311 35.059H101.269C109.977 35.059 117 42.0708 117 50.7654V91.2936C117 99.9882 109.837 107 101.269 107Z" fill="#CDE6F5"/>
<path d="M67.9806 43.8938H23.7369C19.1019 43.8938 15.3096 47.6802 15.3096 52.308C15.3096 56.9358 19.1019 60.7221 23.7369 60.7221H67.8402V43.8938H67.9806Z" fill="#D27228"/>
<path d="M72.756 63.6671H28.5123C23.8773 63.6671 20.085 67.4535 20.085 72.0813C20.085 76.709 23.8773 80.4954 28.5123 80.4954H72.6156V63.6671H72.756Z" fill="#D27228"/>
<path d="M72.8965 0C89.049 0 102.111 13.0419 102.111 29.1691V106.72L43.6816 106.86V29.1691C43.6816 13.0419 56.7441 0 72.8965 0Z" fill="#C9C9C9"/>
<path opacity="0.5" d="M54.0754 29.3093V79.9345V107H43.6816V79.9345V29.3093C43.6816 13.1822 56.7441 0.140244 72.8965 0.140244C74.7225 0.140244 76.4079 0.280479 78.0934 0.560951C64.4692 3.0852 54.0754 15.0052 54.0754 29.3093Z" fill="white"/>
<path d="M25.703 53.4299C27.5647 53.4299 29.0739 51.923 29.0739 50.0642C29.0739 48.2054 27.5647 46.6985 25.703 46.6985C23.8413 46.6985 22.332 48.2054 22.332 50.0642C22.332 51.923 23.8413 53.4299 25.703 53.4299Z" fill="#F09B40"/>
<path d="M66.9983 24.962H46.9131V29.4495H66.9983V24.962Z" fill="#525254"/>
<path d="M107.168 13.3224H95.37L78.2344 30.4312L82.1671 34.498L98.8814 17.81H107.168V13.3224Z" fill="#808285"/>
<path d="M75.425 41.0891H66.0145C61.3794 41.0891 57.7275 37.443 57.7275 32.8152V24.8218H83.7119V32.8152C83.7119 37.443 80.0601 41.0891 75.425 41.0891Z" fill="#414042"/>
<path d="M63.065 24.962L57.8682 30.1507V32.8152C57.8682 33.7969 58.0086 34.6383 58.2895 35.4797L68.9642 24.8218H63.065V24.962Z" fill="#525254"/>
<path d="M83.7122 24.962H75.9872L61.2393 39.6868C62.6438 40.6684 64.1888 41.2294 66.0148 41.2294H69.9475L83.5718 27.6265V24.962H83.7122Z" fill="#525254"/>
<path d="M46.3508 41.0891H36.9402C32.3052 41.0891 28.6533 37.443 28.6533 32.8152V24.8218H54.6377V32.8152C54.6377 37.443 50.8454 41.0891 46.3508 41.0891Z" fill="#414042"/>
<path d="M33.8502 24.962L28.6533 30.1507V32.8152C28.6533 33.7969 28.7938 34.6383 29.0747 35.4797L39.7494 24.8218H33.8502V24.962Z" fill="#525254"/>
<path d="M54.638 24.962H46.9129L32.165 39.6868C33.5696 40.6684 35.1146 41.2294 36.9405 41.2294H40.8733L54.4976 27.6265V24.962H54.638Z" fill="#525254"/>
<path d="M97.7571 106.86V102.092C97.7571 79.3735 79.2169 60.8624 56.463 60.8624H43.541V106.86H97.7571Z" fill="#FFEFCF"/>
</svg>
