<svg width="65" height="63" viewBox="0 0 65 63" fill="none" xmlns="http://www.w3.org/2000/svg">
<path d="M54 44.7501V56.7501C46.55 56.7501 40.5 45.8001 40.5 32.2901C40.5 18.7801 46.5 7.83008 54 7.83008V19.7901" stroke="#00A1D2" stroke-width="2.13" stroke-linecap="round" stroke-linejoin="round"/>
<path d="M51.0795 8.42993L21.2295 21.7299V42.9299L51.1095 56.2899" stroke="#00A1D2" stroke-width="2.13" stroke-linecap="round" stroke-linejoin="round"/>
<path d="M21.3198 43.1H7.00977V21.55H21.3198" stroke="#00A1D2" stroke-width="2.13" stroke-miterlimit="10"/>
<path d="M7.46991 36.0801H4.87991C3.92138 36.0436 3.0165 35.6282 2.36401 34.9251C1.71152 34.222 1.36477 33.2887 1.39991 32.3301C1.36472 31.3732 1.71011 30.4413 2.36046 29.7385C3.01082 29.0356 3.91314 28.6191 4.86991 28.5801H7.46991" stroke="#00A1D2" stroke-width="2.13" stroke-miterlimit="10"/>
<path d="M57.8603 43.3601C59.4012 43.3601 60.6503 38.4218 60.6503 32.3301C60.6503 26.2384 59.4012 21.3 57.8603 21.3C56.3194 21.3 55.0703 26.2384 55.0703 32.3301C55.0703 38.4218 56.3194 43.3601 57.8603 43.3601Z" stroke="#00A1D2" stroke-width="2.13" stroke-miterlimit="10"/>
<path d="M57.5902 21.24L43.2002 18.05" stroke="#00A1D2" stroke-width="2.13" stroke-miterlimit="10" stroke-linecap="round"/>
<path d="M43.2002 46.63L57.5902 43.45" stroke="#00A1D2" stroke-width="2.13" stroke-miterlimit="10" stroke-linecap="round"/>
<path d="M25.5 45.4401L21.16 60.6801H8.95996L13.82 43.6201" stroke="#00A1D2" stroke-width="2.13" stroke-miterlimit="10" stroke-linecap="round"/>
<path d="M33.7803 56.53L38.9803 61.72" stroke="#75C2E3" stroke-width="1.42" stroke-miterlimit="10"/>
<path d="M33.7803 61.72L38.9803 56.53" stroke="#75C2E3" stroke-width="1.42" stroke-miterlimit="10"/>
<path d="M17.5499 3.64001L14.6699 0.76001" stroke="#75C2E3" stroke-width="1.42" stroke-miterlimit="10"/>
<path d="M23.1302 9.22008L20.2402 6.33008" stroke="#75C2E3" stroke-width="1.42" stroke-miterlimit="10"/>
<path d="M17.5499 6.33008L14.6699 9.22008" stroke="#75C2E3" stroke-width="1.42" stroke-miterlimit="10"/>
<path d="M23.1302 0.76001L20.2402 3.64001" stroke="#75C2E3" stroke-width="1.42" stroke-miterlimit="10"/>
<path d="M63.8002 40.6399C62.9302 45.0899 61.3802 48.6999 59.4502 50.7999" stroke="#75C2E3" stroke-width="1.42" stroke-miterlimit="10"/>
<path d="M47.1602 24.7301C48.4902 17.1901 51.7402 11.8601 55.5502 11.8601C59.7002 11.8601 63.2002 18.2101 64.2502 26.8601" stroke="#75C2E3" stroke-width="1.42" stroke-miterlimit="10"/>
<path d="M16.0801 48.0801H21.5801" stroke="#75C2E3" stroke-width="2.13" stroke-linejoin="round"/>
<path d="M14.5098 52.45H20.0098" stroke="#75C2E3" stroke-width="2.13" stroke-linejoin="round"/>
<path d="M13.1396 56.8201H18.6396" stroke="#75C2E3" stroke-width="2.13" stroke-linejoin="round"/>
</svg>
