<svg width="70" height="70" viewBox="0 0 70 70" fill="none" xmlns="http://www.w3.org/2000/svg">
<path d="M45.62 34.3601C46.1732 36.1776 46.1023 38.1279 45.4186 39.9004C44.735 41.673 43.4778 43.1658 41.8475 44.141C40.2171 45.1163 38.3073 45.518 36.4222 45.2822C34.5371 45.0463 32.7851 44.1864 31.4453 42.8394C30.1055 41.4925 29.2549 39.736 29.0291 37.8496C28.8033 35.9633 29.2151 34.0556 30.1991 32.4305C31.183 30.8053 32.6825 29.5562 34.4587 28.8819C36.2348 28.2077 38.1855 28.1472 40 28.7101" stroke="#75C2E3" stroke-width="1.42" stroke-linejoin="round"/>
<path d="M59.4306 56.73H29.0006C29.0006 57.5968 28.8299 58.455 28.4982 59.2557C28.1665 60.0565 27.6804 60.7841 27.0675 61.3969C26.4546 62.0098 25.727 62.4959 24.9263 62.8276C24.1255 63.1593 23.2673 63.33 22.4006 63.33C20.6502 63.33 18.9714 62.6347 17.7337 61.3969C16.4959 60.1592 15.8006 58.4805 15.8006 56.73V16C15.8006 15.1333 15.6299 14.2751 15.2982 13.4743C14.9665 12.6736 14.4804 11.946 13.8675 11.3331C13.2546 10.7203 12.527 10.2341 11.7263 9.90242C10.9255 9.57074 10.0673 9.40002 9.20059 9.40002V9.40002C7.45016 9.40002 5.77142 10.0954 4.53368 11.3331C3.29594 12.5709 2.60059 14.2496 2.60059 16H15.7906" stroke="#00A1D2" stroke-width="2.13" stroke-miterlimit="10"/>
<path d="M20 65.83C18.0002 65.83 16.0824 65.0356 14.6684 63.6216C13.2544 62.2076 12.46 60.2897 12.46 58.29V48" stroke="#75C2E3" stroke-width="1.42" stroke-miterlimit="10"/>
<path d="M45.5104 22.83V16C45.5104 14.2496 44.8151 12.5709 43.5773 11.3331C42.3396 10.0954 40.6609 9.40002 38.9104 9.40002H9.19043" stroke="#00A1D2" stroke-width="2.13" stroke-miterlimit="10"/>
<path d="M45.5098 56.7701V50.2101" stroke="#00A1D2" stroke-width="2.13" stroke-miterlimit="10"/>
<path d="M58.7006 56.7301C58.7006 58.4805 58.0052 60.1593 56.7675 61.397C55.5298 62.6347 53.851 63.3301 52.1006 63.3301" stroke="#00A1D2" stroke-width="2.13" stroke-miterlimit="10"/>
<path d="M52.1099 63.3301H22.8799" stroke="#00A1D2" stroke-width="2.13" stroke-miterlimit="10"/>
<path d="M37.4698 52.8C46.2842 52.8 53.4298 45.6545 53.4298 36.84C53.4298 28.0255 46.2842 20.88 37.4698 20.88C28.6553 20.88 21.5098 28.0255 21.5098 36.84C21.5098 45.6545 28.6553 52.8 37.4698 52.8Z" stroke="#00A1D2" stroke-width="2.13" stroke-miterlimit="10"/>
<path d="M52.1898 22.18L50.5098 15.99L57.6198 8.88L59.2998 15.07L52.1898 22.18Z" stroke="#75C2E3" stroke-width="2.13" stroke-linejoin="round"/>
<path d="M52.1904 22.1801L58.3804 23.8701L65.5004 16.7501L59.3004 15.0701L52.1904 22.1801Z" stroke="#75C2E3" stroke-width="2.13" stroke-linejoin="round"/>
<path d="M61.6602 12.7201L44.2002 30.1701" stroke="#00A1D2" stroke-width="2.13" stroke-miterlimit="10"/>
<path d="M40.54 27.0801L37.46 36.7301C37.4511 36.7565 37.4497 36.785 37.4561 36.8122C37.4625 36.8394 37.4763 36.8642 37.4961 36.884C37.5158 36.9037 37.5407 36.9176 37.5679 36.9239C37.5951 36.9303 37.6235 36.929 37.65 36.9201L47.3 33.8401L43.79 30.3301L43 29.5001L40.54 27.0801Z" stroke="#00A1D2" stroke-width="2.13" stroke-miterlimit="10"/>
<path d="M40.3806 35.92C40.5946 36.5655 40.5874 37.2639 40.3603 37.9049C40.1332 38.5459 39.6991 39.093 39.1264 39.4598C38.5538 39.8265 37.8753 39.9921 37.1981 39.9304C36.5208 39.8686 35.8835 39.583 35.3866 39.1186C34.8898 38.6543 34.5618 38.0377 34.4544 37.3662C34.347 36.6947 34.4664 36.0066 34.7936 35.4104C35.1209 34.8143 35.6374 34.3442 36.2616 34.0743C36.8858 33.8044 37.5821 33.7501 38.2406 33.92" stroke="#00A1D2" stroke-width="2.13" stroke-miterlimit="10"/>
<path d="M20.6006 15.2101H40.8106" stroke="#75C2E3" stroke-width="1.42" stroke-miterlimit="10"/>
<path d="M20.6006 20.1101H25.0406" stroke="#75C2E3" stroke-width="1.42" stroke-miterlimit="10"/>
<path d="M56.4102 46.88L61.6802 52.15" stroke="#75C2E3" stroke-width="1.42" stroke-miterlimit="10"/>
<path d="M56.4102 52.15L61.6802 46.88" stroke="#75C2E3" stroke-width="1.42" stroke-miterlimit="10"/>
</svg>
