<svg width="66" height="65" viewBox="0 0 66 65" fill="none" xmlns="http://www.w3.org/2000/svg">
<path d="M45.8175 24.4302V51.5802" stroke="#FFCB4E" stroke-width="1.42" stroke-miterlimit="10"/>
<path d="M29.1779 24.4302V51.5802" stroke="#FFCB4E" stroke-width="1.42" stroke-miterlimit="10"/>
<path d="M16.8528 62.9599C19.0647 62.9599 20.8579 61.1646 20.8579 58.9499C20.8579 56.7353 19.0647 54.9399 16.8528 54.9399C14.6408 54.9399 12.8477 56.7353 12.8477 58.9499C12.8477 61.1646 14.6408 62.9599 16.8528 62.9599Z" stroke="#F1B642" stroke-width="2.13" stroke-miterlimit="10"/>
<path d="M44.1196 62.9599C46.3316 62.9599 48.1247 61.1646 48.1247 58.9499C48.1247 56.7353 46.3316 54.9399 44.1196 54.9399C41.9077 54.9399 40.1145 56.7353 40.1145 58.9499C40.1145 61.1646 41.9077 62.9599 44.1196 62.9599Z" stroke="#F1B642" stroke-width="2.13" stroke-miterlimit="10"/>
<path d="M26.2014 23.6499C26.1541 21.974 26.443 20.3056 27.0509 18.7434C27.6588 17.1812 28.5734 15.757 29.7407 14.5548C30.9079 13.3527 32.304 12.3971 33.8466 11.7446C35.3891 11.0921 37.0466 10.7559 38.7211 10.7559C40.3957 10.7559 42.0532 11.0921 43.5957 11.7446C45.1382 12.3971 46.5344 13.3527 47.7016 14.5548C48.8689 15.757 49.7835 17.1812 50.3914 18.7434C50.9993 20.3056 51.2882 21.974 51.2409 23.6499" stroke="#F1B642" stroke-width="2.13" stroke-miterlimit="10"/>
<path d="M60.9089 23.6501C60.9047 22.0456 60.7272 20.4464 60.3796 18.8801H57.6229C57.1609 17.0365 56.4307 15.271 55.4556 13.6401L57.4532 11.6401C55.6986 8.9423 53.3816 6.65665 50.6614 4.9401L48.6639 6.9401C47.035 5.96384 45.2716 5.23269 43.4303 4.7701V1.9401C40.2928 1.23807 37.0393 1.23807 33.9019 1.9401V4.7201C32.0751 5.20297 30.3287 5.95089 28.7182 6.9401L26.7206 4.9401C24.0133 6.67675 21.7134 8.97945 19.9789 11.6901L21.9764 13.6901C21.0014 15.321 20.2711 17.0865 19.8091 18.9301H17.0524C16.7048 20.4964 16.5273 22.0956 16.5231 23.7001" stroke="#F1B642" stroke-width="2.13" stroke-miterlimit="10"/>
<path d="M0.912231 29.5H9.89128V51.88H47.1558" stroke="#F1B642" stroke-width="2.13" stroke-miterlimit="10"/>
<path d="M56.8241 51.8799H14.3859V23.8999H64.5747L56.8241 51.8799Z" stroke="#F1B642" stroke-width="2.13" stroke-miterlimit="10"/>
<path d="M14.3859 33.23H62.3374" stroke="#F1B642" stroke-width="2.13" stroke-miterlimit="10"/>
<path d="M14.3859 42.5601H59.5807" stroke="#F1B642" stroke-width="2.13" stroke-miterlimit="10"/>
<path d="M10.0811 5.07005V0.800049" stroke="#FFCB4E" stroke-width="1.42" stroke-miterlimit="10"/>
<path d="M10.0811 13.33V9.05005" stroke="#FFCB4E" stroke-width="1.42" stroke-miterlimit="10"/>
<path d="M8.09339 7.06006H3.8186" stroke="#FFCB4E" stroke-width="1.42" stroke-miterlimit="10"/>
<path d="M16.3334 7.06006H12.0686" stroke="#FFCB4E" stroke-width="1.42" stroke-miterlimit="10"/>
<path d="M51.5205 56.1999H59.3709L63.8355 42.1699" stroke="#FFCB4E" stroke-width="1.42" stroke-miterlimit="10"/>
</svg>
