<svg width="67" height="64" viewBox="0 0 67 64" fill="none" xmlns="http://www.w3.org/2000/svg">
<path d="M12.7093 59.54L5.2793 52.11" stroke="#75C2E3" stroke-width="2.13" stroke-linejoin="round"/>
<path d="M54.4096 14.45C51.2507 10.2586 46.6555 7.38106 41.5054 6.36936C36.3554 5.35767 31.0131 6.28303 26.5034 8.96795C21.9936 11.6529 18.6339 15.9083 17.0688 20.918C15.5036 25.9277 15.8432 31.3388 18.0223 36.1135C20.2015 40.8883 24.0667 44.6903 28.8768 46.7904C33.6868 48.8905 39.1028 49.1408 44.086 47.4932C49.0692 45.8457 53.2686 42.4163 55.8788 37.8628C58.489 33.3094 59.3261 27.9526 58.2296 22.82" stroke="#75C2E3" stroke-width="2.13" stroke-linejoin="round"/>
<path d="M23.4198 48.6801L10.2898 61.8101C9.94519 62.1551 9.536 62.4288 9.08558 62.6155C8.63516 62.8022 8.15235 62.8984 7.66475 62.8984C7.17716 62.8984 6.69435 62.8022 6.24393 62.6155C5.79351 62.4288 5.38432 62.1551 5.03975 61.8101L2.85975 59.6301C2.51476 59.2855 2.24107 58.8763 2.05433 58.4259C1.8676 57.9755 1.77148 57.4927 1.77148 57.0051C1.77148 56.5175 1.8676 56.0347 2.05433 55.5843C2.24107 55.1338 2.51476 54.7247 2.85975 54.3801L15.9998 41.2101" stroke="#00A1D2" stroke-width="2.13" stroke-miterlimit="10"/>
<path d="M57.7697 11.69C53.8704 6.59749 48.2034 3.15206 41.8876 2.03405C35.5719 0.916037 29.0665 2.20671 23.6559 5.65122C18.2453 9.09573 14.3229 14.4437 12.6631 20.6392C11.0033 26.8346 11.7268 33.4273 14.6907 39.1153C17.6546 44.8034 22.6435 49.1735 28.6723 51.3626C34.7011 53.5518 41.3316 53.4009 47.2545 50.9398C53.1775 48.4787 57.9625 43.8863 60.6646 38.0693C63.3667 32.2523 63.7896 25.6336 61.8497 19.52" stroke="#00A1D2" stroke-width="2.13" stroke-miterlimit="10"/>
<path d="M30.8496 56.0001C37.6063 57.4796 44.6631 56.6705 50.9096 53.7001" stroke="#75C2E3" stroke-width="1.42" stroke-miterlimit="10"/>
<path d="M23.8701 53.16C24.8394 53.7641 25.8409 54.3149 26.8701 54.81" stroke="#75C2E3" stroke-width="1.42" stroke-miterlimit="10"/>
<path d="M9.24992 18.4601C8.91177 19.564 8.63469 20.6857 8.41992 21.8201" stroke="#75C2E3" stroke-width="1.42" stroke-miterlimit="10"/>
<path d="M59.9195 9.85999L37.4695 29.12L26.0995 19.02L20.7695 25.62L37.4695 40.41L65.2495 16.46L59.9195 9.85999Z" stroke="#00A1D2" stroke-width="2.13" stroke-miterlimit="10"/>
<path d="M43.9902 39.22L46.1502 37.42" stroke="#75C2E3" stroke-width="1.42" stroke-miterlimit="10"/>
<path d="M24.1094 33.11L37.7094 44.47L42.3994 40.55" stroke="#75C2E3" stroke-width="1.42" stroke-miterlimit="10"/>
</svg>
