<svg width="168" height="214" viewBox="0 0 168 214" fill="none" xmlns="http://www.w3.org/2000/svg">
<g clip-path="url(#clip0)">
<path d="M101.5 18.9546V48.5773C139.38 56.5045 167.842 90.0907 167.842 130.144C167.842 176.247 130.172 213.797 83.921 213.797C37.6703 213.797 0 176.455 0 130.144C0 90.0907 28.462 56.5045 66.3415 48.3687V18.9546H101.5Z" fill="url(#paint0_linear)"/>
<path d="M155.704 130.144C155.704 138.488 154.239 146.416 151.727 153.717C144.193 175.412 126.195 192.519 104.012 198.985" stroke="#00A1D2" stroke-width="0.8504" stroke-miterlimit="10"/>
<path d="M47.5068 0.179688H120.336V21.8752H47.5068V0.179688Z" fill="url(#paint1_linear)"/>
<path d="M80.3633 201.071H87.6881" stroke="#00A1D2" stroke-width="0.8504" stroke-miterlimit="10"/>
<path d="M135.404 143.495C136.241 139.949 136.66 135.985 136.66 132.23C136.66 128.266 136.241 124.511 135.404 120.965H124.521C123.684 117.627 122.219 114.498 120.545 111.578L128.288 103.859C124.103 97.392 118.662 91.9682 112.174 87.796L104.64 95.7232C101.71 94.0543 98.5708 92.8026 95.2224 91.7596V80.9118C91.6646 80.0774 87.6883 79.6602 83.9213 79.6602C79.945 79.6602 76.1779 80.0774 72.6202 80.9118V91.7596C69.2717 92.594 66.1325 94.0543 63.2026 95.7232L55.4593 88.0046C48.9716 92.1768 43.5304 97.6007 39.3448 104.068L47.0881 111.786C45.4139 114.707 44.1582 117.836 43.1118 121.174H32.2293C31.3922 124.72 30.9736 128.684 30.9736 132.439C30.9736 136.402 31.3922 140.157 32.2293 143.704H43.1118C43.9489 147.041 45.4139 150.17 47.0881 153.091L39.3448 160.81C43.5304 167.277 48.9716 172.7 55.4593 176.873L63.2026 169.154C66.1325 170.823 69.2717 172.075 72.6202 173.118V183.965C76.1779 184.8 80.1543 185.217 83.9213 185.217C87.8976 185.217 91.6646 184.8 95.2224 183.965V173.118C98.5708 172.283 101.71 170.823 104.64 169.154L112.383 176.873C118.871 172.7 124.312 167.277 128.498 160.81L120.754 153.091C122.429 150.17 123.684 147.041 124.731 143.704H135.404V143.495ZM83.9213 149.336C74.5037 149.336 66.9697 141.826 66.9697 132.439C66.9697 123.051 74.5037 115.541 83.9213 115.541C93.3388 115.541 100.873 123.051 100.873 132.439C100.873 141.826 93.3388 149.336 83.9213 149.336Z" fill="url(#paint2_linear)"/>
<path d="M142.101 97.1836H138.334C137.706 94.6803 136.66 92.3855 135.404 90.2994L137.915 87.7961C135.613 84.2497 132.474 81.1206 128.916 78.8259L126.405 81.3292C124.312 80.0775 122.01 79.0345 119.499 78.4086V74.6537C117.406 74.2364 115.313 74.0278 113.22 74.0278C111.127 74.0278 108.825 74.2364 106.942 74.6537V78.4086C104.431 79.0345 102.128 80.0775 100.036 81.3292L97.5243 78.8259C93.9666 81.1206 90.8274 84.2497 88.5253 87.7961L91.0367 90.2994C89.781 92.3855 88.7346 94.6803 88.1068 97.1836H84.3398C83.9212 99.2697 83.7119 101.356 83.7119 103.442C83.7119 105.528 83.9212 107.823 84.3398 109.7H87.8975C88.5253 112.204 89.5717 114.498 90.8274 116.584L88.3161 119.088C90.6181 122.634 93.7573 125.763 97.3151 128.058L99.8264 125.555C101.919 126.806 104.221 127.849 106.733 128.475V132.23C108.825 132.647 110.918 132.856 113.011 132.856C115.104 132.856 117.406 132.647 119.289 132.23V128.475C121.801 127.849 124.103 126.806 126.196 125.555L128.707 128.058C132.265 125.763 135.404 122.634 137.706 119.088L135.195 116.584C136.45 114.498 137.497 112.204 138.125 109.7H141.892C142.31 107.614 142.519 105.528 142.519 103.442C142.519 101.356 142.519 99.2697 142.101 97.1836ZM113.22 114.081C107.36 114.081 102.547 109.283 102.547 103.442C102.547 97.6008 107.36 92.8028 113.22 92.8028C119.08 92.8028 123.894 97.6008 123.894 103.442C123.684 109.283 119.08 114.081 113.22 114.081Z" fill="url(#paint3_linear)"/>
<path d="M30.764 83.2067C29.5083 81.955 29.5083 79.8689 30.764 78.6173L39.3445 70.0642C40.6001 68.8126 42.6929 68.8126 43.9486 70.0642C45.2043 71.3159 45.2043 73.402 43.9486 74.6537L35.3682 83.2067C33.9032 84.4584 32.0197 84.4584 30.764 83.2067Z" fill="white"/>
</g>
<defs>
<linearGradient id="paint0_linear" x1="45.9761" y1="26.281" x2="112.262" y2="208.984" gradientUnits="userSpaceOnUse">
<stop stop-color="#BFE1F6"/>
<stop offset="0.3052" stop-color="#D1E4EF"/>
<stop offset="0.6996" stop-color="#E1E6E9"/>
<stop offset="1" stop-color="#E7E7E7"/>
</linearGradient>
<linearGradient id="paint1_linear" x1="107.599" y1="34.616" x2="60.4054" y2="-12.7292" gradientUnits="userSpaceOnUse">
<stop stop-color="#75C2E3"/>
<stop offset="1" stop-color="#E7E7E7"/>
</linearGradient>
<linearGradient id="paint2_linear" x1="31.1821" y1="132.299" x2="136.671" y2="132.299" gradientUnits="userSpaceOnUse">
<stop stop-color="#FFCB4E"/>
<stop offset="1" stop-color="#F1B642"/>
</linearGradient>
<linearGradient id="paint3_linear" x1="83.5407" y1="103.521" x2="142.749" y2="103.521" gradientUnits="userSpaceOnUse">
<stop stop-color="#F48777"/>
<stop offset="1" stop-color="#F1655D"/>
</linearGradient>
<clipPath id="clip0">
<rect y="0.179688" width="167.842" height="213.617" fill="white"/>
</clipPath>
</defs>
</svg>
