<svg width="70" height="70" viewBox="0 0 70 70" fill="none" xmlns="http://www.w3.org/2000/svg">
<path d="M50.2704 26.3001C52.4485 29.1314 53.7843 32.5193 54.1245 36.0752C54.4648 39.6311 53.7958 43.2109 52.1942 46.4038C50.5926 49.5968 48.1234 52.2736 45.0698 54.1271C42.0162 55.9807 38.5019 56.9358 34.9302 56.883C31.3584 56.8302 27.8739 55.7716 24.8764 53.8287C21.8789 51.8857 19.4899 49.1371 17.9833 45.8982C16.4768 42.6593 15.9139 39.0613 16.3591 35.517C16.8043 31.9728 18.2396 28.6258 20.5004 25.8601" stroke="#00A1D2" stroke-width="2.13" stroke-miterlimit="10"/>
<path d="M19.6802 13.5801C16.1633 15.835 13.1751 18.8232 10.9202 22.3401L13.4602 24.8801C12.1923 26.9964 11.2421 29.2875 10.6402 31.6801H7.0002C6.08717 35.763 6.08717 39.9972 7.0002 44.0801H10.6002C11.2021 46.4726 12.1523 48.7637 13.4202 50.8801L10.8802 53.4201C13.1351 56.937 16.1233 59.9251 19.6402 62.1801L22.1802 59.6401C24.3028 60.9098 26.6008 61.86 29.0002 62.4601V66.0601C33.0799 66.9716 37.3105 66.9716 41.3902 66.0601V62.4601C43.7827 61.8581 46.0739 60.908 48.1902 59.6401L50.7302 62.1801C54.2471 59.9251 57.2353 56.937 59.4902 53.4201L57.0002 50.8801C58.2681 48.7637 59.2183 46.4726 59.8202 44.0801H63.4202C64.3317 40.0004 64.3317 35.7698 63.4202 31.6901H59.8002C59.2055 29.2952 58.2621 27.0007 57.0002 24.8801L59.5402 22.3401C57.2853 18.8232 54.2971 15.835 50.7802 13.5801" stroke="#00A1D2" stroke-width="2.13" stroke-miterlimit="10"/>
<path d="M20.5798 54.6801C17.603 51.7711 15.464 48.1145 14.3872 44.0941C13.3104 40.0736 13.3355 35.8375 14.4598 31.8301" stroke="#75C2E3" stroke-width="1.42" stroke-miterlimit="10"/>
<path d="M44.31 57.52C43.9633 57.68 43.61 57.8334 43.25 57.98L42.25 58.36" stroke="#75C2E3" stroke-width="1.42" stroke-miterlimit="10"/>
<path d="M35.2101 28.65C40.2524 28.65 44.3401 24.5624 44.3401 19.52C44.3401 14.4777 40.2524 10.39 35.2101 10.39C30.1677 10.39 26.0801 14.4777 26.0801 19.52C26.0801 24.5624 30.1677 28.65 35.2101 28.65Z" stroke="#75C2E3" stroke-width="2.13" stroke-linejoin="round"/>
<path d="M51.56 19.18C51.5659 16.3658 50.8294 13.5997 49.4248 11.161C48.0202 8.72227 45.9972 6.69717 43.56 5.29003L43.26 5.12003C40.8277 3.71574 38.0686 2.97644 35.26 2.97644C32.4514 2.97644 29.6923 3.71574 27.26 5.12003L26.96 5.29003C24.5227 6.69717 22.4998 8.72227 21.0952 11.161C19.6906 13.5997 18.9541 16.3658 18.96 19.18V19.18C18.9565 22.4968 19.9839 25.7327 21.9 28.44L35.3 47.44L48.7 28.44C50.5877 25.7233 51.5869 22.4881 51.56 19.18Z" stroke="#00A1D2" stroke-width="2.13" stroke-miterlimit="10"/>
</svg>
