<svg width="110" height="116" viewBox="0 0 110 116" fill="none" xmlns="http://www.w3.org/2000/svg">
<g clip-path="url(#clip0)">
<path d="M100.612 88.745H9.38755C4.30723 88.745 0 84.5349 0 79.3277V37.1156C0 32.0192 4.19679 27.6982 9.38755 27.6982H100.723C105.803 27.6982 110.11 31.9084 110.11 37.1156V79.4384C110 84.5349 105.803 88.745 100.612 88.745Z" fill="#FBD9E2"/>
<path d="M20.4318 100.711V88.3018H34.8996L21.9779 101.265C21.4257 101.818 20.4318 101.486 20.4318 100.711Z" fill="#FBD9E2"/>
<path d="M63.8354 23.4883H31.255C27.8314 23.4883 25.0703 26.2581 25.0703 29.6927C25.0703 33.1272 27.8314 35.8971 31.255 35.8971H63.8354V23.4883Z" fill="#D27228"/>
<path d="M67.3696 38.1128H34.7892C31.3655 38.1128 28.6045 40.8826 28.6045 44.3172C28.6045 47.7518 31.3655 50.5216 34.7892 50.5216H67.3696V38.1128Z" fill="#D27228"/>
<path d="M67.48 0C79.4077 0 89.0161 9.63897 89.0161 21.6046V88.745L45.9438 88.8558V21.6046C45.9438 9.63897 55.5523 0 67.48 0Z" fill="#C9C9C9"/>
<path d="M45.9438 44.6494V88.9665H85.9238V84.7564C85.9238 62.5978 68.0322 44.6494 45.9438 44.6494Z" fill="#FFEFCF"/>
<path opacity="0.5" d="M53.6748 21.7154V59.2742V88.9666H45.9438V59.2742V21.7154C45.9438 9.74981 55.5523 0.11084 67.48 0.11084C68.8053 0.11084 70.0202 0.221633 71.3455 0.443218C61.2953 2.32669 53.6748 11.0793 53.6748 21.7154Z" fill="white"/>
<path d="M78.4137 38.6668C85.1842 38.6668 90.6727 33.1608 90.6727 26.3688C90.6727 19.5768 85.1842 14.0708 78.4137 14.0708C71.6432 14.0708 66.1547 19.5768 66.1547 26.3688C66.1547 33.1608 71.6432 38.6668 78.4137 38.6668Z" fill="white"/>
<path d="M78.4137 26.5902V19.2778C78.5241 19.2778 78.5241 19.2778 78.6346 19.2778C82.5 19.2778 85.5924 22.38 85.5924 26.2578C85.5924 30.1355 82.5 33.2377 78.6346 33.2377C74.8796 33.2377 71.8976 30.3571 71.6768 26.5902H78.4137Z" fill="#525254"/>
<path d="M66.1547 33.7918C68.4739 38.3343 73.1125 41.3257 78.5241 41.3257C84.9298 41.3257 90.3414 36.894 91.8876 31.022C91.4458 37.8911 85.7029 43.32 78.745 43.32C72.7812 43.32 67.7008 39.3314 66.1547 33.7918Z" fill="#525254"/>
<path d="M32.8013 30.5789C34.2042 30.5789 35.3414 29.438 35.3414 28.0307C35.3414 26.6233 34.2042 25.4824 32.8013 25.4824C31.3984 25.4824 30.2611 26.6233 30.2611 28.0307C30.2611 29.438 31.3984 30.5789 32.8013 30.5789Z" fill="#F09B40"/>
<g opacity="0.54">
<path opacity="0.54" d="M77.1989 8.75293L99.1768 30.8007C98.9559 33.6813 98.0724 36.3403 96.7471 38.7778L69.2471 11.1904C71.6768 9.86086 74.3274 9.08531 77.1989 8.75293Z" fill="#E1F4FD"/>
<path opacity="0.54" d="M60.3012 21.1616L86.8072 47.7519C84.9297 48.5274 82.9418 48.9706 80.9538 49.1922L58.8655 27.1444C59.0864 25.0394 59.5281 23.0451 60.3012 21.1616Z" fill="#E1F4FD"/>
</g>
<path d="M78.5241 48.8597C89.6862 48.8597 98.7349 39.7823 98.7349 28.5846C98.7349 17.387 89.6862 8.30957 78.5241 8.30957C67.3619 8.30957 58.3132 17.387 58.3132 28.5846C58.3132 39.7823 67.3619 48.8597 78.5241 48.8597Z" stroke="#525254" stroke-width="1.4173" stroke-miterlimit="10"/>
<path d="M98.2931 41.7692C99.7569 41.7692 100.944 40.5787 100.944 39.1102C100.944 37.6417 99.7569 36.4512 98.2931 36.4512C96.8292 36.4512 95.6425 37.6417 95.6425 39.1102C95.6425 40.5787 96.8292 41.7692 98.2931 41.7692Z" fill="#525254"/>
<path d="M98.0723 40.4395V106.694C98.0723 111.347 94.3173 115.114 89.6787 115.114C85.0402 115.114 81.2852 111.347 81.2852 106.694V89.7422" stroke="#525254" stroke-width="1.4173" stroke-miterlimit="10" stroke-linecap="round" stroke-linejoin="round" stroke-dasharray="0.14 0.14"/>
</g>
<defs>
<clipPath id="clip0">
<rect width="110" height="116" fill="white"/>
</clipPath>
</defs>
</svg>
