<svg width="66" height="65" viewBox="0 0 66 65" fill="none" xmlns="http://www.w3.org/2000/svg">
<path d="M45.4199 24.49V51.64" stroke="#75C2E3" stroke-width="1.42" stroke-miterlimit="10"/>
<path d="M28.7598 24.49V51.64" stroke="#75C2E3" stroke-width="1.42" stroke-miterlimit="10"/>
<path d="M16.4202 63.02C18.6348 63.02 20.4302 61.2247 20.4302 59.01C20.4302 56.7953 18.6348 55 16.4202 55C14.2055 55 12.4102 56.7953 12.4102 59.01C12.4102 61.2247 14.2055 63.02 16.4202 63.02Z" stroke="#00A1D2" stroke-width="2.13" stroke-miterlimit="10"/>
<path d="M43.72 63.02C45.9346 63.02 47.73 61.2247 47.73 59.01C47.73 56.7953 45.9346 55 43.72 55C41.5053 55 39.71 56.7953 39.71 59.01C39.71 61.2247 41.5053 63.02 43.72 63.02Z" stroke="#00A1D2" stroke-width="2.13" stroke-miterlimit="10"/>
<path d="M25.7804 23.71C25.7331 22.0341 26.0223 20.3657 26.6309 18.8035C27.2396 17.2413 28.1553 15.817 29.324 14.6149C30.4926 13.4127 31.8905 12.4572 33.4349 11.8046C34.9793 11.1521 36.6388 10.8159 38.3154 10.8159C39.992 10.8159 41.6515 11.1521 43.1959 11.8046C44.7403 12.4572 46.1382 13.4127 47.3068 14.6149C48.4755 15.817 49.3912 17.2413 49.9999 18.8035C50.6085 20.3657 50.8977 22.0341 50.8504 23.71" stroke="#00A1D2" stroke-width="2.13" stroke-miterlimit="10"/>
<path d="M60.5298 23.71C60.5256 22.1056 60.3479 20.5063 59.9998 18.94H57.2398C56.7773 17.0965 56.0461 15.3309 55.0698 13.7L57.0698 11.7C55.3131 9.00224 52.9934 6.71659 50.2698 5.00003L48.2698 7.00003C46.639 6.02378 44.8734 5.29263 43.0298 4.83003V2.00003C39.8886 1.298 36.6311 1.298 33.4898 2.00003V4.78003C31.6608 5.2629 29.9123 6.01083 28.2998 7.00003L26.2998 5.00003C23.5892 6.73668 21.2865 9.03939 19.5498 11.75L21.5498 13.75C20.5736 15.3809 19.8424 17.1464 19.3798 18.99H16.6198C16.2718 20.5563 16.0941 22.1556 16.0898 23.76" stroke="#00A1D2" stroke-width="2.13" stroke-miterlimit="10"/>
<path d="M0.459961 29.5599H9.44996V51.9399H46.76" stroke="#00A1D2" stroke-width="2.13" stroke-miterlimit="10"/>
<path d="M56.4402 51.94H13.9502V23.96H64.2002L56.4402 51.94Z" stroke="#00A1D2" stroke-width="2.13" stroke-miterlimit="10"/>
<path d="M13.9502 33.29H61.9602" stroke="#00A1D2" stroke-width="2.13" stroke-miterlimit="10"/>
<path d="M13.9502 42.62H59.2002" stroke="#00A1D2" stroke-width="2.13" stroke-miterlimit="10"/>
<path d="M9.63965 5.12999V0.859985" stroke="#75C2E3" stroke-width="1.42" stroke-miterlimit="10"/>
<path d="M9.63965 13.39V9.10999" stroke="#75C2E3" stroke-width="1.42" stroke-miterlimit="10"/>
<path d="M7.65012 7.12H3.37012" stroke="#75C2E3" stroke-width="1.42" stroke-miterlimit="10"/>
<path d="M15.8999 7.12H11.6299" stroke="#75C2E3" stroke-width="1.42" stroke-miterlimit="10"/>
<path d="M51.1299 56.26H58.9899L63.4599 42.23" stroke="#75C2E3" stroke-width="1.42" stroke-miterlimit="10"/>
</svg>
