<svg width="71" height="70" viewBox="0 0 71 70" fill="none" xmlns="http://www.w3.org/2000/svg">
<path d="M11.7923 38.39C12.7289 37.9992 13.4768 37.2587 13.8776 36.3255C14.2784 35.3922 14.3007 34.3394 13.9397 33.39L13.1807 31.23L10.0645 32.45" stroke="#FFCB4E" stroke-width="1.42" stroke-miterlimit="10"/>
<path d="M31.4983 38.8201V24.1401H38.0203V38.4901" stroke="#F1B642" stroke-width="2.13" stroke-miterlimit="10"/>
<path d="M22.6091 25.1899H27.8328V19.9599H22.6091V25.1899Z" stroke="#F1B642" stroke-width="2.13" stroke-miterlimit="10"/>
<path d="M22.6091 15.3201H27.8328V10.0901H22.6091V15.3201Z" stroke="#F1B642" stroke-width="2.13" stroke-miterlimit="10"/>
<path d="M25.2159 24.78V29.84" stroke="#F1B642" stroke-width="2.13" stroke-miterlimit="10"/>
<path d="M25.2159 15.5V19.88" stroke="#F1B642" stroke-width="2.13" stroke-miterlimit="10"/>
<path d="M32.1473 19.6201H37.371V14.3901H32.1473V19.6201Z" stroke="#F1B642" stroke-width="2.13" stroke-miterlimit="10"/>
<path d="M32.1473 9.75H37.371V4.52L32.1473 4.52V9.75Z" stroke="#F1B642" stroke-width="2.13" stroke-miterlimit="10"/>
<path d="M34.7643 19.22V24.27" stroke="#F1B642" stroke-width="2.13" stroke-miterlimit="10"/>
<path d="M34.7643 9.92993V14.3099" stroke="#F1B642" stroke-width="2.13" stroke-miterlimit="10"/>
<path d="M42.0454 23.21H47.269V17.98H42.0454V23.21Z" stroke="#F1B642" stroke-width="2.13" stroke-miterlimit="10"/>
<path d="M42.0454 13.3401H47.269V8.11009H42.0454V13.3401Z" stroke="#F1B642" stroke-width="2.13" stroke-miterlimit="10"/>
<path d="M44.6521 22.8V27.86" stroke="#F1B642" stroke-width="2.13" stroke-miterlimit="10"/>
<path d="M44.6521 13.52V17.9" stroke="#F1B642" stroke-width="2.13" stroke-miterlimit="10"/>
<path d="M51.9332 26.9299H57.1569V21.6999H51.9332V26.9299Z" stroke="#F1B642" stroke-width="2.13" stroke-miterlimit="10"/>
<path d="M51.9332 17.0601H57.1569V11.8301H51.9332V17.0601Z" stroke="#F1B642" stroke-width="2.13" stroke-miterlimit="10"/>
<path d="M54.5403 26.53V31.58" stroke="#F1B642" stroke-width="2.13" stroke-miterlimit="10"/>
<path d="M54.5403 17.24V21.62" stroke="#F1B642" stroke-width="2.13" stroke-miterlimit="10"/>
<path d="M41.2964 38.8199V27.9099H47.8284V38.4899" stroke="#F1B642" stroke-width="2.13" stroke-miterlimit="10"/>
<path d="M51.2741 39.5799V31.3499H57.7962V53.4499C57.8014 54.9561 57.5099 56.4485 56.9381 57.8416C56.3664 59.2348 55.5257 60.5013 54.4643 61.5686C53.4029 62.636 52.1416 63.4832 50.7527 64.0617C49.3638 64.6402 47.8745 64.9386 46.3701 64.9399H29.3908C26.9579 64.9425 24.5875 64.1682 22.6243 62.7294C20.661 61.2907 19.2072 59.2626 18.4741 56.9399L8.48633 28.7499L8.84589 28.6199C9.71825 28.3042 10.6446 28.1655 11.5711 28.2118C12.4975 28.2582 13.4055 28.4886 14.2421 28.8897C15.0787 29.2909 15.8272 29.8547 16.4441 30.5483C17.0609 31.2419 17.5337 32.0515 17.8349 32.9299L22.0198 45.1299L22.1197 29.7599H28.1124V38.5699" stroke="#F1B642" stroke-width="2.13" stroke-miterlimit="10"/>
<path d="M25.2659 38.9299H53.7511" stroke="#F1B642" stroke-width="2.13" stroke-miterlimit="10"/>
<path d="M61.5915 49.8501V54.3101C61.5915 57.9993 60.1278 61.5373 57.5224 64.146C54.9169 66.7546 51.3832 68.2201 47.6985 68.2201" stroke="#FFCB4E" stroke-width="1.42" stroke-miterlimit="10"/>
<path d="M61.5914 46.37V43.28" stroke="#FFCB4E" stroke-width="1.42" stroke-miterlimit="10"/>
</svg>
