<svg width="51" height="67" viewBox="0 0 51 67" fill="none" xmlns="http://www.w3.org/2000/svg">
<path d="M28.7095 50.8001L40.2795 35.5101C42.6764 32.3446 43.9691 28.4805 43.9595 24.5101V24.5101C43.9516 21.3328 43.1097 18.2132 41.518 15.4633C39.9263 12.7134 37.6407 10.4296 34.8895 8.84005L34.1695 8.43005C31.4104 6.83706 28.2805 5.99841 25.0945 5.99841C21.9086 5.99841 18.7787 6.83706 16.0195 8.43005L15.2995 8.84005C12.5411 10.4338 10.2507 12.7256 8.65861 15.485C7.0665 18.2444 6.22875 21.3743 6.22954 24.5601V24.5601C6.22001 28.5305 7.51272 32.3946 9.90954 35.5601L21.4595 50.7601" stroke="#75C2E3" stroke-width="1.42" stroke-miterlimit="10"/>
<path d="M21.8594 60.9401V62.3001C21.8594 62.7255 21.9432 63.1469 22.106 63.54C22.2688 63.9331 22.5075 64.2902 22.8083 64.5911C23.1092 64.8919 23.4664 65.1306 23.8595 65.2934C24.2526 65.4563 24.6739 65.5401 25.0994 65.5401V65.5401C25.9587 65.5401 26.7828 65.1987 27.3904 64.5911C27.998 63.9835 28.3394 63.1594 28.3394 62.3001V60.9401" stroke="#00A1D2" stroke-width="2.13" stroke-miterlimit="10"/>
<path d="M49.4995 1.30005L45.2695 5.53005" stroke="#75C2E3" stroke-width="1.42" stroke-miterlimit="10"/>
<path d="M4.78957 46.01L0.55957 50.24" stroke="#75C2E3" stroke-width="1.42" stroke-miterlimit="10"/>
<path d="M42.8497 38.7601L43.0197 38.5401C43.2264 38.2734 43.4297 38.0067 43.6297 37.7401L43.8197 37.4801C44.0197 37.1934 44.2131 36.9001 44.3997 36.6001L44.5197 36.4101C44.7497 36.0401 44.9697 35.6601 45.1797 35.2801C45.3697 34.9201 45.5597 34.5501 45.7297 34.1801L45.8697 33.8601C45.9964 33.5734 46.1197 33.2868 46.2397 33.0001L46.3897 32.6301C46.4997 32.3301 46.6097 32.0301 46.7097 31.7301L46.8197 31.4101C46.9497 31.0001 47.0697 30.5901 47.1797 30.1701V30.1001C47.2797 29.7101 47.3697 29.3101 47.4397 28.9101C47.4397 28.7801 47.4397 28.6401 47.5097 28.5101C47.5597 28.2101 47.6097 27.9101 47.6497 27.6101C47.6497 27.4567 47.6697 27.3067 47.7097 27.1601C47.7097 26.8601 47.7697 26.5501 47.7997 26.2401C47.7997 26.1001 47.7997 25.9701 47.7997 25.8301C47.7997 25.3901 47.7997 24.9401 47.7997 24.5001C47.7997 18.4558 45.3986 12.6591 41.1247 8.38512C36.8507 4.11117 31.054 1.71008 25.0097 1.71008C18.9654 1.71008 13.1687 4.11117 8.89476 8.38512C4.62081 12.6591 2.21973 18.4558 2.21973 24.5001C2.21973 24.9501 2.21973 25.3901 2.21973 25.8301C2.21973 25.9701 2.21973 26.1001 2.21973 26.2401C2.21973 26.5501 2.26973 26.8501 2.30973 27.1601C2.30973 27.3134 2.32973 27.4634 2.36973 27.6101C2.36973 27.9101 2.45973 28.2101 2.50973 28.5101C2.50973 28.6401 2.50973 28.7801 2.57973 28.9101C2.65973 29.3101 2.74973 29.7101 2.83973 30.1001V30.1701C2.94973 30.5901 3.06973 31.0001 3.19973 31.4101L3.30973 31.7301C3.40973 32.0301 3.51973 32.3301 3.62973 32.6301L3.99973 32.9401C4.11973 33.2334 4.24306 33.5201 4.36973 33.8001L4.50973 34.1201C4.67973 34.4901 4.86973 34.8601 5.05973 35.2201C5.26973 35.6001 5.48973 35.9801 5.71973 36.3501L5.83973 36.5401C6.02639 36.8401 6.21973 37.1334 6.41973 37.4201L6.60973 37.6801C6.80306 37.9534 7.00639 38.2201 7.21973 38.4801L7.38973 38.7001C7.92973 39.3701 17.4997 50.7501 17.4997 50.7501H32.7397C32.7397 50.7501 42.2997 39.4401 42.8497 38.7601Z" stroke="#00A1D2" stroke-width="2.13" stroke-miterlimit="10"/>
<path d="M0.55957 1.30005L4.78957 5.53005" stroke="#75C2E3" stroke-width="1.42" stroke-miterlimit="10"/>
<path d="M45.2695 46.01L49.4995 50.24" stroke="#75C2E3" stroke-width="1.42" stroke-miterlimit="10"/>
<path d="M25.0995 11.3301L28.6295 20.2701L38.2195 20.8601L30.8095 26.9801L33.2095 36.2901L25.0995 31.1201L16.9895 36.2901L19.3895 26.9801L11.9795 20.8601L21.5695 20.2701L25.0995 11.3301Z" stroke="#75C2E3" stroke-width="2.13" stroke-linejoin="round"/>
<path d="M32.3695 50.8101H17.8195C16.505 50.8101 15.4395 51.8756 15.4395 53.1901V53.3901C15.4395 54.7045 16.505 55.7701 17.8195 55.7701H32.3695C33.6839 55.7701 34.7495 54.7045 34.7495 53.3901V53.1901C34.7495 51.8756 33.6839 50.8101 32.3695 50.8101Z" stroke="#00A1D2" stroke-width="2.13" stroke-miterlimit="10"/>
<path d="M32.3695 55.78H17.8195C16.505 55.78 15.4395 56.8456 15.4395 58.16V58.36C15.4395 59.6745 16.505 60.74 17.8195 60.74H32.3695C33.6839 60.74 34.7495 59.6745 34.7495 58.36V58.16C34.7495 56.8456 33.6839 55.78 32.3695 55.78Z" stroke="#00A1D2" stroke-width="2.13" stroke-miterlimit="10"/>
</svg>
