<svg width="70" height="70" viewBox="0 0 70 70" fill="none" xmlns="http://www.w3.org/2000/svg">
<path d="M11.2202 38.45C12.1579 38.0592 12.9067 37.3188 13.308 36.3855C13.7093 35.4523 13.7316 34.3995 13.3702 33.45L12.6102 31.29L9.49023 32.51" stroke="#75C2E3" stroke-width="1.42" stroke-miterlimit="10"/>
<path d="M30.9502 38.8801V24.2001H37.4802V38.5501" stroke="#00A1D2" stroke-width="2.13" stroke-miterlimit="10"/>
<path d="M22.0503 25.25H27.2803V20.02H22.0503V25.25Z" stroke="#00A1D2" stroke-width="2.13" stroke-miterlimit="10"/>
<path d="M22.0503 15.38H27.2803V10.15H22.0503V15.38Z" stroke="#00A1D2" stroke-width="2.13" stroke-miterlimit="10"/>
<path d="M24.6602 24.8401V29.9001" stroke="#00A1D2" stroke-width="2.13" stroke-miterlimit="10"/>
<path d="M24.6602 15.5601V19.9401" stroke="#00A1D2" stroke-width="2.13" stroke-miterlimit="10"/>
<path d="M31.6001 19.6801H36.8301V14.4501H31.6001V19.6801Z" stroke="#00A1D2" stroke-width="2.13" stroke-miterlimit="10"/>
<path d="M31.6001 9.81006H36.8301V4.58006L31.6001 4.58006V9.81006Z" stroke="#00A1D2" stroke-width="2.13" stroke-miterlimit="10"/>
<path d="M34.2197 19.28V24.33" stroke="#00A1D2" stroke-width="2.13" stroke-miterlimit="10"/>
<path d="M34.2197 9.99011V14.3701" stroke="#00A1D2" stroke-width="2.13" stroke-miterlimit="10"/>
<path d="M41.5102 23.27H46.7402V18.04H41.5102V23.27Z" stroke="#00A1D2" stroke-width="2.13" stroke-miterlimit="10"/>
<path d="M41.5102 13.4H46.7402V8.17002H41.5102V13.4Z" stroke="#00A1D2" stroke-width="2.13" stroke-miterlimit="10"/>
<path d="M44.1201 22.8601V27.9201" stroke="#00A1D2" stroke-width="2.13" stroke-miterlimit="10"/>
<path d="M44.1201 13.5801V17.9601" stroke="#00A1D2" stroke-width="2.13" stroke-miterlimit="10"/>
<path d="M51.4106 26.9901H56.6406V21.7601H51.4106V26.9901Z" stroke="#00A1D2" stroke-width="2.13" stroke-miterlimit="10"/>
<path d="M51.4106 17.1201H56.6406V11.8901H51.4106V17.1201Z" stroke="#00A1D2" stroke-width="2.13" stroke-miterlimit="10"/>
<path d="M54.0205 26.5901V31.6401" stroke="#00A1D2" stroke-width="2.13" stroke-miterlimit="10"/>
<path d="M54.0205 17.3V21.68" stroke="#00A1D2" stroke-width="2.13" stroke-miterlimit="10"/>
<path d="M40.7598 38.8801V27.9701H47.2998V38.5501" stroke="#00A1D2" stroke-width="2.13" stroke-miterlimit="10"/>
<path d="M50.7502 39.6401V31.4101H57.2802V53.5101C57.2854 55.0163 56.9935 56.5087 56.421 57.9018C55.8486 59.2949 55.0069 60.5615 53.9442 61.6288C52.8815 62.6961 51.6187 63.5433 50.2281 64.1218C48.8374 64.7003 47.3463 64.9988 45.8402 65.0001H28.8402C26.4042 65.0027 24.031 64.2283 22.0654 62.7896C20.0997 61.3509 18.6441 59.3228 17.9102 57.0001L7.91016 28.8101L8.27016 28.6801C9.14358 28.3644 10.0711 28.2257 10.9987 28.272C11.9262 28.3183 12.8353 28.5488 13.673 28.9499C14.5106 29.351 15.26 29.9148 15.8776 30.6085C16.4952 31.3021 16.9686 32.1117 17.2702 32.9901L21.4602 45.1901L21.5602 29.8201H27.5602V38.6301" stroke="#00A1D2" stroke-width="2.13" stroke-miterlimit="10"/>
<path d="M24.71 38.9901H53.23" stroke="#00A1D2" stroke-width="2.13" stroke-miterlimit="10"/>
<path d="M61.0799 49.91V54.37C61.0799 58.0592 59.6144 61.5973 57.0058 64.2059C54.3971 66.8145 50.8591 68.28 47.1699 68.28" stroke="#75C2E3" stroke-width="1.42" stroke-miterlimit="10"/>
<path d="M61.0801 46.4301V43.3401" stroke="#75C2E3" stroke-width="1.42" stroke-miterlimit="10"/>
</svg>
