<svg width="70" height="70" viewBox="0 0 70 70" fill="none" xmlns="http://www.w3.org/2000/svg">
<path d="M48.9795 11.8199L62.5795 25.4199" stroke="#75C2E3" stroke-width="2.13" stroke-linejoin="round"/>
<path d="M24.8699 36.34L16.1299 45.08" stroke="#00A1D2" stroke-width="2.13" stroke-miterlimit="10"/>
<path d="M44.2403 43.31L62.9003 24.66L63.9103 10.63L49.8403 11.37L31.0703 30.14" stroke="#00A1D2" stroke-width="2.13" stroke-miterlimit="10"/>
<path d="M29.5195 58.03L38.0795 49.48" stroke="#00A1D2" stroke-width="2.13" stroke-miterlimit="10"/>
<path d="M57.6602 10.9999C58.131 12.3504 58.9 13.5775 59.9102 14.5899C60.9047 15.6196 62.1179 16.4124 63.4602 16.9099L63.9102 10.6799L57.6602 10.9999Z" stroke="#00A1D2" stroke-width="2.13" stroke-miterlimit="10"/>
<path d="M29.2397 40.7799L20.9297 49.0899" stroke="#75C2E3" stroke-width="2.13" stroke-linejoin="round"/>
<path d="M53.5197 16.5L35.4697 34.55" stroke="#75C2E3" stroke-width="2.13" stroke-linejoin="round"/>
<path d="M33.6298 45.1699L24.7998 54.0099" stroke="#75C2E3" stroke-width="2.13" stroke-linejoin="round"/>
<path d="M57.8698 20.9299L40.0098 38.7899" stroke="#75C2E3" stroke-width="2.13" stroke-linejoin="round"/>
<path d="M30.2882 59.2291L15.0713 44.0122L10.0367 49.0468L25.2536 64.2637L30.2882 59.2291Z" stroke="#00A1D2" stroke-width="2.13" stroke-miterlimit="10"/>
<path d="M11.5252 50.5361L23.7581 62.769L22.3439 64.1833C21.4249 65.0838 20.1891 65.5876 18.9024 65.5863C17.6157 65.585 16.3809 65.0786 15.4638 64.1762L10.1463 58.8587C9.22553 57.9379 8.70823 56.6891 8.70823 55.3868C8.70823 54.0846 9.22553 52.8357 10.1463 51.9149L11.5605 50.5007L11.5252 50.5361Z" stroke="#00A1D2" stroke-width="2.13" stroke-miterlimit="10"/>
<path d="M47.8901 47.0799L27.0001 26.2099C27.8452 24.2338 28.1262 22.0621 27.8118 19.9359C27.4974 17.8098 26.6 15.8123 25.2192 14.1653C23.8384 12.5183 22.0282 11.2861 19.9895 10.6055C17.9508 9.92497 15.7634 9.82264 13.6701 10.3099L19.3101 15.9499C19.7011 16.3514 19.9199 16.8896 19.9199 17.4499C19.9199 18.0103 19.7011 18.5485 19.3101 18.9499L13.6301 24.6299C13.2287 25.0209 12.6905 25.2396 12.1301 25.2396C11.5698 25.2396 11.0316 25.0209 10.6301 24.6299L5.00015 18.9999C4.51062 21.0922 4.61034 23.2792 5.28822 25.3183C5.96611 27.3574 7.19566 29.1688 8.84046 30.5515C10.4853 31.9343 12.481 32.8343 14.6062 33.1518C16.7314 33.4692 18.9031 33.1917 20.8801 32.3499L41.7501 53.2199C41.1023 55.2445 41.1538 57.4282 41.8962 59.42C42.6387 61.4119 44.0291 63.0964 45.844 64.2031C47.659 65.3097 49.7933 65.7742 51.904 65.522C54.0147 65.2698 55.9794 64.3155 57.4826 62.8123C58.9857 61.3092 59.94 59.3445 60.1922 57.2338C60.4445 55.123 59.9799 52.9888 58.8733 51.1738C57.7667 49.3588 56.0821 47.9684 54.0903 47.226C52.0984 46.4835 49.9148 46.4321 47.8901 47.0799V47.0799ZM55.5301 54.7899L54.2501 59.5699L49.4701 60.8499L46.0001 57.4199L47.2801 52.6399L52.0602 51.3599L55.5301 54.7899Z" stroke="#00A1D2" stroke-width="2.13" stroke-miterlimit="10"/>
<path d="M60.3301 37.6599L65.5001 42.8399" stroke="#75C2E3" stroke-width="1.42" stroke-miterlimit="10"/>
<path d="M60.3301 42.8399L65.5001 37.6599" stroke="#75C2E3" stroke-width="1.42" stroke-miterlimit="10"/>
<path d="M35.6299 8.66998V4.59998" stroke="#75C2E3" stroke-width="1.42" stroke-miterlimit="10"/>
<path d="M35.6299 16.52V12.45" stroke="#75C2E3" stroke-width="1.42" stroke-miterlimit="10"/>
<path d="M33.7302 10.5599H29.6602" stroke="#75C2E3" stroke-width="1.42" stroke-miterlimit="10"/>
<path d="M41.5895 10.5599H37.5195" stroke="#75C2E3" stroke-width="1.42" stroke-miterlimit="10"/>
</svg>
