<svg width="224" height="120" viewBox="0 0 224 120" fill="none" xmlns="http://www.w3.org/2000/svg">
<path d="M19.4194 120H155.581C166.194 120 175 111.837 175 102C175 92.1628 166.194 84 155.581 84H19.4194C8.80645 84 0 92.1628 0 102C0 111.837 8.58065 120 19.4194 120Z" fill="#C1A7C1"/>
<path d="M37.4194 93H109.581C120.194 93 129 84.8372 129 75C129 65.1628 120.194 57 109.581 57H37.4194C26.8065 57 18 65.1628 18 75C18 84.8372 26.5806 93 37.4194 93Z" fill="#C1A7C1"/>
<path d="M141.594 107.639C140.39 107.036 139.789 105.83 140.39 104.624L145.808 91.3571C146.41 90.1511 147.613 89.5481 148.817 90.1511C150.021 90.7541 150.623 91.9602 150.021 93.1662L144.604 106.433C144.002 107.639 142.798 108.242 141.594 107.639Z" fill="#D27228"/>
<path d="M199.078 38.8948L220.747 47.6385C223.155 48.543 224.057 51.2566 223.155 53.3672C222.252 55.7792 219.543 56.6838 217.436 55.7792L195.768 47.0355L199.078 38.8948Z" fill="#D27228"/>
<path d="M192.155 47.3367L213.824 56.0804C216.232 56.9849 217.135 59.6985 216.232 61.8091C215.329 64.2211 212.62 65.1256 210.514 64.2211L188.845 55.4774L192.155 47.3367Z" fill="#D27228"/>
<path d="M200.883 25.6282C193.058 22.3116 184.03 26.2312 180.719 34.372L170.788 59.3971L92.8398 28.3418C92.8398 28.3418 108.791 80.5027 152.128 97.6886C174.399 106.734 189.748 95.2766 197.573 75.6786V75.377L199.378 71.1559L209.31 46.1308C212.62 37.99 208.708 28.9448 200.883 25.6282Z" fill="#C9C9C9"/>
<path opacity="0.5" d="M197.573 75.6789V75.3774L199.078 71.7593C196.971 70.8547 194.864 69.6487 192.758 68.7442C170.487 59.699 155.138 71.1563 147.313 90.7543V91.0558L145.809 94.6739C147.915 95.5784 150.022 96.7844 152.129 97.689C174.399 106.734 189.748 95.2769 197.573 75.6789Z" fill="white"/>
<path opacity="0.5" d="M200.883 25.6282C199.981 25.3266 199.078 25.0251 198.175 24.7236C204.495 28.6432 207.203 36.4824 204.194 43.7186L194.262 68.7438L192.457 72.9649V73.2664C184.933 92.2614 170.487 103.417 149.42 96.181C150.323 96.4826 151.226 97.0856 152.129 97.3871C174.399 106.432 189.748 94.975 197.573 75.377V75.0755L199.379 70.8544L209.31 45.8292C212.621 37.99 208.708 28.9447 200.883 25.6282Z" fill="white"/>
<path d="M220.099 50.6671C220.47 49.7398 220.021 48.6866 219.095 48.3148C218.169 47.9431 217.118 48.3935 216.747 49.3208C216.376 50.2482 216.826 51.3014 217.751 51.6731C218.677 52.0449 219.728 51.5945 220.099 50.6671Z" fill="#F09B40"/>
<path d="M112.403 54.8743C111.801 55.1758 111.199 54.8743 110.898 54.2713L109.995 52.4622C109.694 51.8592 109.995 51.2562 110.597 50.9547C111.199 50.6532 111.801 50.9547 112.102 51.5577L113.005 53.3668C113.306 53.6683 113.005 54.5728 112.403 54.8743Z" fill="#525254"/>
<path d="M207.806 33.7689L190.049 26.5327C187.341 25.3266 185.836 22.3116 187.04 19.598V19.2965C187.943 16.8844 190.651 15.3769 193.059 15.9799L208.708 19.2965C213.825 20.5025 216.834 25.9297 214.728 30.7538C213.524 33.4674 210.514 34.9749 207.806 33.7689Z" fill="#F47A63"/>
<path d="M200.582 19.8996C199.98 19.5981 199.98 18.995 199.98 18.6935L201.184 15.6785C201.485 15.0754 202.087 15.0754 202.388 15.0754C202.99 15.3769 202.99 15.98 202.99 16.2815L201.786 19.2966C201.485 19.8996 200.883 20.2011 200.582 19.8996Z" fill="#F47A63"/>
<path d="M176.807 53.0656C174.399 52.1611 172.292 50.3521 170.788 47.94L163.264 36.7842C162.963 36.4827 162.963 35.8797 163.264 35.2767C163.565 34.6736 163.866 34.3721 164.468 34.3721L177.71 31.357C183.127 30.151 188.845 32.2616 191.855 37.0857L199.379 48.543C199.68 48.8445 199.68 49.4475 199.379 50.0505C199.078 50.6536 198.777 50.9551 198.175 50.9551L184.933 53.9701C181.923 54.2717 179.214 53.9701 176.807 53.0656ZM167.176 36.7842L173.195 46.1309C175.603 49.749 179.816 51.2566 184.03 50.3521L194.864 47.6385L188.845 38.2917C186.437 34.6736 182.224 33.1661 178.011 34.0706L167.176 36.7842Z" fill="#525254"/>
<path d="M164.468 35.8796L171.992 47.3369C174.7 51.558 179.516 53.3671 184.331 52.4625L197.573 49.4474L190.049 37.9901C187.34 33.769 182.525 31.96 177.71 32.8645L164.468 35.8796Z" fill="#79C2E7"/>
<path d="M189.65 45.9902C191.568 41.1987 189.245 35.7574 184.462 33.8366C179.68 31.9158 174.248 34.2429 172.331 39.0343C170.414 43.8257 172.736 49.2671 177.519 51.1879C182.302 53.1087 187.733 50.7816 189.65 45.9902Z" fill="white"/>
<path d="M181.021 42.8143L183.128 37.6886C183.128 37.6886 183.128 37.6886 182.827 37.6886C180.118 36.4826 177.109 37.9901 175.905 40.7037C174.701 43.4173 176.206 46.4324 178.914 47.6384C181.623 48.5429 184.332 47.3369 185.535 44.9248L181.021 42.8143Z" fill="#525254"/>
<path d="M187.642 25.6285C187.04 25.327 186.739 25.6285 186.438 26.2316L185.535 28.9451C185.234 29.5481 185.535 29.8497 186.137 30.1512C186.739 30.4527 187.04 30.1512 187.341 29.5481L188.244 26.8346C188.545 26.5331 188.244 25.93 187.642 25.6285Z" fill="#525254"/>
<path d="M202.69 41.0054C202.389 40.4023 202.088 40.4023 201.486 40.4023L198.778 41.3069C198.176 41.6084 198.176 41.9099 198.176 42.5129C198.477 43.1159 198.778 43.1159 199.38 43.1159L202.088 42.2114C202.69 41.9099 202.991 41.3069 202.69 41.0054Z" fill="#525254"/>
<path d="M167.779 26.8346C167.478 26.5331 166.876 26.2316 166.575 26.5331C166.274 26.8346 165.973 27.4376 166.274 27.7391L167.478 30.1512C167.779 30.4527 168.381 30.7542 168.682 30.4527C168.983 30.1512 169.284 29.5482 168.983 29.2467L167.779 26.8346Z" fill="#525254"/>
<path d="M196.069 31.96L193.962 33.7691C193.661 34.0706 193.661 34.6736 193.962 34.9751C194.263 35.2766 194.865 35.2766 195.166 34.9751L197.273 33.166C197.574 32.8645 197.574 32.2615 197.273 31.96C196.972 31.6585 196.37 31.6585 196.069 31.96Z" fill="#525254"/>
<path d="M177.409 24.4223C177.409 23.8193 176.807 23.5178 176.506 23.5178C175.904 23.5178 175.604 24.1208 175.604 24.4223L175.904 27.1359C175.904 27.7389 176.506 28.0404 176.807 28.0404C177.409 28.0404 177.71 27.4374 177.71 27.1359L177.409 24.4223Z" fill="#525254"/>
<path d="M174.099 59.6988C174.701 60.0003 175.002 59.6988 175.303 59.0957L176.206 56.3822C176.507 55.7792 176.206 55.4777 175.604 55.1761C175.002 54.8746 174.701 55.1761 174.4 55.7792L173.497 58.4927C173.497 58.7942 173.798 59.3973 174.099 59.6988Z" fill="#525254"/>
<path d="M159.051 44.3217C159.352 44.9248 159.653 44.9248 160.255 44.9248L162.963 44.0202C163.565 43.7187 163.565 43.4172 163.565 42.8142C163.264 42.2112 162.963 42.2112 162.361 42.2112L159.653 43.1157C159.352 43.4172 159.051 44.0202 159.051 44.3217Z" fill="#525254"/>
<path d="M194.263 58.4927C194.564 58.7943 195.166 59.0958 195.467 58.7942C195.768 58.4927 196.069 57.8897 195.768 57.5882L194.564 55.1762C194.263 54.8746 193.962 54.5731 193.36 54.8746C193.059 55.1762 192.758 55.7792 193.059 56.0807L194.263 58.4927Z" fill="#525254"/>
<path d="M165.672 53.367L167.778 51.5579C168.079 51.2564 168.079 50.6534 167.778 50.3519C167.477 50.0504 166.876 50.0504 166.575 50.3519L164.468 51.8594C164.167 52.1609 164.167 52.7639 164.468 53.0654C164.769 53.6685 165.371 53.6685 165.672 53.367Z" fill="#525254"/>
<path d="M184.632 60.9047C184.632 61.5077 185.234 61.8092 185.535 61.8092C186.137 61.8092 186.438 61.2062 186.438 60.9047L186.137 57.8896C186.137 57.2866 185.535 56.9851 185.234 56.9851C184.632 56.9851 184.331 57.5881 184.331 57.8896L184.632 60.9047Z" fill="#525254"/>
<path d="M117.217 30.4523H110.295V15.0754C110.295 10.5528 106.684 6.93469 102.17 6.93469H77.4912C72.9768 6.93469 69.3653 10.5528 69.3653 15.0754V30.4523H62.4434V15.0754C62.4434 6.93468 69.0644 0 77.4912 0H102.17C110.295 0 117.217 6.63318 117.217 15.0754V30.4523Z" fill="#08A9D8"/>
<path d="M153.634 22.9146H26.3291V120H153.634V22.9146Z" fill="#08A9D8"/>
<path d="M109.693 86.2312H69.9669C45.5895 86.2312 26.0273 66.6332 26.0273 42.2111V22.9146H153.332V42.2111C153.633 66.6332 134.071 86.2312 109.693 86.2312Z" fill="#79C2E7"/>
<path d="M99.1603 72.6636H80.501V96.7842H99.1603V72.6636Z" fill="#525254"/>
</svg>
