<svg width="71" height="70" viewBox="0 0 71 70" fill="none" xmlns="http://www.w3.org/2000/svg">
<path d="M39.2481 52.8001L50.804 37.5101C53.1979 34.3446 54.489 30.4805 54.4795 26.5101V26.5101C54.4716 23.3328 53.6307 20.2132 52.0409 17.4633C50.4512 14.7134 48.1683 12.4296 45.4206 10.8401L44.7014 10.4301C41.9456 8.83706 38.8196 7.99841 35.6375 7.99841C32.4554 7.99841 29.3293 8.83706 26.5735 10.4301L25.8544 10.8401C23.0993 12.4338 20.8117 14.7256 19.2216 17.485C17.6314 20.2444 16.7947 23.3743 16.7955 26.5601V26.5601C16.7859 30.5305 18.0771 34.3946 20.471 37.5601L32.0069 52.7601" stroke="#75C2E3" stroke-width="1.42" stroke-miterlimit="10"/>
<path d="M32.4065 62.9401V64.3001C32.4065 64.7255 32.4902 65.1469 32.6528 65.54C32.8154 65.9331 33.0538 66.2902 33.3543 66.5911C33.6548 66.8919 34.0115 67.1306 34.4042 67.2934C34.7968 67.4563 35.2176 67.5401 35.6425 67.5401V67.5401C36.5008 67.5401 37.3239 67.1987 37.9308 66.5911C38.5377 65.9835 38.8786 65.1594 38.8786 64.3001V62.9401" stroke="#00A1D2" stroke-width="2.13" stroke-miterlimit="10"/>
<path d="M60.0129 3.30005L55.7881 7.53005" stroke="#75C2E3" stroke-width="1.42" stroke-miterlimit="10"/>
<path d="M15.3574 48.0101L11.1326 52.2401" stroke="#75C2E3" stroke-width="1.42" stroke-miterlimit="10"/>
<path d="M53.3708 40.76L53.5406 40.54C53.747 40.2734 53.9501 40.0067 54.1498 39.74L54.3396 39.48C54.5394 39.1934 54.7325 38.9 54.9189 38.6L55.0388 38.41C55.2685 38.04 55.4882 37.66 55.698 37.28C55.8877 36.92 56.0775 36.55 56.2473 36.18L56.3871 35.86C56.5136 35.5734 56.6368 35.2867 56.7567 35L56.9065 34.63C57.0163 34.33 57.1262 34.03 57.2261 33.73L57.336 33.41C57.4658 33 57.5857 32.59 57.6955 32.17V32.1C57.7954 31.71 57.8853 31.31 57.9552 30.91C57.9552 30.78 57.9552 30.64 58.0251 30.51C58.0751 30.21 58.125 29.91 58.1649 29.61C58.1649 29.4567 58.1849 29.3067 58.2249 29.16C58.2249 28.86 58.2848 28.55 58.3148 28.24C58.3148 28.1 58.3148 27.97 58.3148 27.83C58.3148 27.39 58.3148 26.94 58.3148 26.5C58.3148 20.4557 55.9166 14.659 51.6479 10.3851C47.3791 6.1111 41.5894 3.71002 35.5525 3.71002C29.5156 3.71002 23.7259 6.1111 19.4572 10.3851C15.1884 14.659 12.7903 20.4557 12.7903 26.5C12.7903 26.95 12.7903 27.39 12.7903 27.83C12.7903 27.97 12.7903 28.1 12.7903 28.24C12.7903 28.55 12.8402 28.85 12.8802 29.16C12.8802 29.3134 12.9001 29.4634 12.9401 29.61C12.9401 29.91 13.03 30.21 13.0799 30.51C13.0799 30.64 13.0799 30.78 13.1498 30.91C13.2297 31.31 13.3196 31.71 13.4095 32.1V32.17C13.5194 32.59 13.6392 33 13.7691 33.41L13.879 33.73C13.9788 34.03 14.0887 34.33 14.1986 34.63L14.5681 34.94C14.688 35.2334 14.8112 35.52 14.9377 35.8L15.0775 36.12C15.2473 36.49 15.4371 36.86 15.6268 37.22C15.8366 37.6 16.0563 37.98 16.286 38.35L16.4059 38.54C16.5923 38.84 16.7854 39.1334 16.9852 39.42L17.1749 39.68C17.368 39.9534 17.5711 40.22 17.7842 40.48L17.954 40.7C18.4933 41.37 28.0517 52.75 28.0517 52.75H43.2731C43.2731 52.75 52.8215 41.44 53.3708 40.76Z" stroke="#00A1D2" stroke-width="2.13" stroke-miterlimit="10"/>
<path d="M11.1326 3.30005L15.3574 7.53005" stroke="#75C2E3" stroke-width="1.42" stroke-miterlimit="10"/>
<path d="M55.7881 48.0101L60.0129 52.2401" stroke="#75C2E3" stroke-width="1.42" stroke-miterlimit="10"/>
<path d="M35.6426 13.3301L39.1683 22.2701L48.7466 22.8601L41.3456 28.9801L43.7427 38.2901L35.6426 33.1201L27.5425 38.2901L29.9395 28.9801L22.5386 22.8601L32.1169 22.2701L35.6426 13.3301Z" stroke="#75C2E3" stroke-width="2.13" stroke-linejoin="round"/>
<path d="M42.9035 52.8101H28.3712C27.0584 52.8101 25.9941 53.8756 25.9941 55.1901V55.3901C25.9941 56.7045 27.0584 57.7701 28.3712 57.7701H42.9035C44.2164 57.7701 45.2806 56.7045 45.2806 55.3901V55.1901C45.2806 53.8756 44.2164 52.8101 42.9035 52.8101Z" stroke="#00A1D2" stroke-width="2.13" stroke-miterlimit="10"/>
<path d="M42.9035 57.78H28.3712C27.0584 57.78 25.9941 58.8456 25.9941 60.16V60.36C25.9941 61.6745 27.0584 62.74 28.3712 62.74H42.9035C44.2164 62.74 45.2806 61.6745 45.2806 60.36V60.16C45.2806 58.8456 44.2164 57.78 42.9035 57.78Z" stroke="#00A1D2" stroke-width="2.13" stroke-miterlimit="10"/>
</svg>
