<svg width="249" height="82" viewBox="0 0 249 82" fill="none" xmlns="http://www.w3.org/2000/svg">
<path d="M102.055 23.8573C102.21 24.8311 102.521 25.9671 102.676 27.1032C102.987 28.2393 103.142 29.3753 103.453 30.5114C103.763 31.6475 103.919 32.7836 104.229 33.7573C104.54 34.7311 104.695 35.7049 105.006 36.6787C105.161 35.7049 105.317 34.7311 105.627 33.5951C105.783 32.459 105.938 31.1606 106.093 30.0245C106.249 28.7262 106.404 27.4278 106.559 26.1294C106.715 24.8311 106.87 23.3704 106.87 22.072H109.045C108.734 25.4802 108.268 28.5639 107.802 31.4852C107.336 34.4065 106.87 37.0033 106.249 39.7623H104.074C103.763 38.9508 103.608 37.977 103.297 37.0033C102.987 36.0295 102.676 34.8934 102.521 33.9196C102.21 32.7836 102.055 31.6475 101.744 30.6737C101.433 29.5376 101.278 28.4016 100.967 27.4278C100.812 28.4016 100.501 29.5376 100.191 30.6737C99.8801 31.8098 99.7248 32.9459 99.4141 33.9196C99.1035 35.0557 98.7928 36.0295 98.6375 37.0033C98.4821 37.977 98.0161 38.9508 97.8608 39.7623H95.6861C95.0648 37.1656 94.5988 34.4065 94.1328 31.4852C93.6668 28.5639 93.2008 25.4802 92.8901 22.072H95.0648C95.2201 23.3704 95.2201 24.8311 95.3755 26.1294C95.5308 27.4278 95.6861 28.7262 95.8415 30.0245C95.9968 31.3229 96.1521 32.459 96.3075 33.7573C96.4628 34.8934 96.6181 36.0295 96.9288 36.841C97.2395 36.0295 97.3948 35.0557 97.7055 33.9196C98.0161 32.7836 98.3268 31.8098 98.4821 30.6737C98.7928 29.5376 98.9481 28.4016 99.2588 27.2655C99.5695 26.1294 99.7248 24.9934 99.8801 24.0196H102.055V23.8573Z" fill="white"/>
<path d="M124.423 30.5111C124.423 31.8095 124.267 33.1079 124.112 34.244C123.801 35.38 123.491 36.3538 123.025 37.1653C122.559 37.9768 121.937 38.626 121.161 38.9505C120.384 39.4374 119.452 39.5997 118.52 39.5997C117.433 39.5997 116.656 39.4374 115.879 38.9505C115.103 38.4637 114.481 37.8145 114.015 37.1653C113.549 36.3538 113.083 35.38 112.928 34.244C112.617 33.1079 112.617 31.8095 112.617 30.5111C112.617 29.2128 112.773 27.9144 112.928 26.7783C113.239 25.6423 113.549 24.6685 114.015 23.857C114.481 23.0455 115.103 22.3963 115.879 21.9094C116.656 21.4225 117.588 21.2603 118.52 21.2603C119.607 21.2603 120.384 21.4225 121.161 21.9094C121.937 22.3963 122.559 23.0455 123.025 23.857C123.491 24.6685 123.957 25.6423 124.112 26.7783C124.267 27.9144 124.423 29.2128 124.423 30.5111ZM122.093 30.5111C122.093 29.3751 122.093 28.4013 121.937 27.5898C121.782 26.7783 121.627 25.9668 121.316 25.3177C121.005 24.6685 120.695 24.1816 120.229 23.857C119.763 23.5324 119.141 23.3701 118.52 23.3701C117.899 23.3701 117.277 23.5324 116.811 23.857C116.345 24.1816 116.035 24.6685 115.724 25.3177C115.258 25.9668 115.103 26.7783 114.947 27.5898C114.792 28.4013 114.792 29.3751 114.792 30.5111C114.792 31.6472 114.792 32.621 114.947 33.4325C115.103 34.244 115.258 35.0554 115.569 35.7046C115.879 36.3538 116.19 36.8407 116.656 37.1653C117.122 37.4899 117.743 37.6522 118.365 37.6522C118.986 37.6522 119.607 37.4899 120.073 37.1653C120.539 36.8407 120.85 36.3538 121.161 35.7046C121.471 35.0554 121.627 34.4063 121.782 33.4325C121.937 32.621 122.093 31.6472 122.093 30.5111Z" fill="white"/>
<path d="M139.956 30.5111C139.956 31.8095 139.801 33.1079 139.645 34.244C139.335 35.38 139.024 36.3538 138.558 37.1653C138.092 37.9768 137.471 38.626 136.694 38.9505C135.917 39.4374 134.985 39.5997 134.053 39.5997C133.121 39.5997 132.189 39.4374 131.413 38.9505C130.636 38.4637 130.015 37.8145 129.549 37.1653C129.083 36.3538 128.617 35.38 128.461 34.244C128.151 33.1079 128.151 31.8095 128.151 30.5111C128.151 29.2128 128.306 27.9144 128.461 26.7783C128.772 25.6423 129.083 24.6685 129.549 23.857C130.015 23.0455 130.636 22.3963 131.413 21.9094C132.189 21.4225 133.121 21.2603 134.053 21.2603C134.985 21.2603 135.917 21.4225 136.694 21.9094C137.471 22.3963 138.092 23.0455 138.558 23.857C139.024 24.6685 139.49 25.6423 139.645 26.7783C139.956 27.9144 139.956 29.2128 139.956 30.5111ZM137.626 30.5111C137.626 29.3751 137.626 28.4013 137.471 27.5898C137.315 26.7783 137.16 25.9668 136.849 25.3177C136.539 24.6685 136.228 24.1816 135.762 23.857C135.296 23.5324 134.675 23.3701 134.053 23.3701C133.432 23.3701 132.811 23.5324 132.345 23.857C131.879 24.1816 131.568 24.6685 131.257 25.3177C130.947 25.9668 130.791 26.7783 130.636 27.5898C130.481 28.4013 130.481 29.3751 130.481 30.5111C130.481 31.6472 130.481 32.621 130.636 33.4325C130.791 34.244 130.947 35.0554 131.257 35.7046C131.568 36.3538 131.879 36.8407 132.345 37.1653C132.811 37.4899 133.432 37.6522 134.053 37.6522C134.675 37.6522 135.296 37.4899 135.762 37.1653C136.228 36.8407 136.539 36.3538 136.849 35.7046C137.16 35.0554 137.315 34.4063 137.471 33.4325C137.626 32.621 137.626 31.6472 137.626 30.5111Z" fill="white"/>
<path d="M155.024 30.511C155.024 32.1339 154.869 33.5946 154.558 34.7307C154.247 35.8667 153.781 36.8405 153.16 37.4897C152.539 38.1389 151.762 38.7881 150.83 39.1127C149.898 39.4373 148.966 39.5996 147.879 39.5996C146.791 39.5996 145.549 39.4373 144.306 39.1127V21.9093C144.927 21.747 145.549 21.5847 146.17 21.5847C146.791 21.4224 147.257 21.4224 147.879 21.4224C148.966 21.4224 149.898 21.5847 150.83 21.9093C151.762 22.2338 152.539 22.7207 153.16 23.5322C153.781 24.1814 154.247 25.1552 154.558 26.2913C154.869 27.4273 155.024 28.888 155.024 30.511ZM152.694 30.511C152.694 29.2126 152.539 28.2388 152.383 27.265C152.228 26.4535 151.917 25.6421 151.607 25.1552C151.296 24.6683 150.675 24.1814 150.209 23.8568C149.587 23.5322 148.811 23.5322 148.034 23.5322C147.879 23.5322 147.568 23.5322 147.413 23.5322C147.257 23.5322 146.947 23.5322 146.636 23.5322V37.3274C146.947 37.3274 147.102 37.3274 147.413 37.3274C147.568 37.3274 147.879 37.3274 148.034 37.3274C148.966 37.3274 149.587 37.1651 150.209 37.0028C150.83 36.6782 151.296 36.3536 151.607 35.8667C151.917 35.3799 152.228 34.5684 152.383 33.7569C152.539 32.7831 152.694 31.8093 152.694 30.511Z" fill="white"/>
<path d="M159.372 39.2748V21.7468H166.984V23.6944H161.547V29.2125H166.362V31.16H161.547V37.3273H167.294V39.2748H159.372Z" fill="white"/>
<path d="M179.722 39.2748C179.256 38.3011 178.945 37.165 178.324 36.0289C177.858 34.8928 177.236 33.7568 176.77 32.4584C176.304 31.3223 175.683 30.1862 175.062 28.8879C174.44 27.7518 173.974 26.6157 173.353 25.6419V39.1125H171.334V21.7468H173.198C173.819 22.7206 174.44 23.8567 174.906 24.9928C175.528 26.1288 175.994 27.1026 176.615 28.2387C177.081 29.3748 177.547 30.3485 178.013 31.4846C178.479 32.4584 178.945 33.4322 179.256 34.4059V21.7468H181.275V39.2748H179.722Z" fill="white"/>
<path d="M188.575 37.6526C189.507 37.6526 190.129 37.328 190.595 36.8411C191.061 36.3542 191.372 35.705 191.372 34.7312C191.372 34.2443 191.372 33.9197 191.216 33.4328C191.061 33.1083 190.905 32.7837 190.595 32.4591C190.284 32.1345 190.129 31.9722 189.818 31.6476C189.507 31.4853 189.197 31.1607 188.886 30.9984C188.575 30.6738 188.109 30.5115 187.643 30.1869C187.177 29.8623 186.867 29.5377 186.556 29.0508C186.245 28.564 185.935 28.2394 185.779 27.5902C185.624 27.1033 185.469 26.4541 185.469 25.6426C185.469 24.9934 185.624 24.3443 185.779 23.6951C186.09 23.0459 186.401 22.559 186.711 22.2344C187.022 21.9098 187.643 21.5852 188.265 21.2606C188.886 21.0983 189.507 20.936 190.129 20.936C190.75 20.936 191.372 21.0983 191.993 21.2606C192.614 21.4229 193.08 21.5852 193.391 21.9098L192.77 23.6951C192.459 23.5328 191.993 23.2082 191.682 23.2082C191.216 23.0459 190.906 23.0459 190.439 23.0459C189.663 23.0459 189.041 23.2082 188.575 23.6951C188.109 24.182 187.799 24.8311 187.799 25.6426C187.799 26.1295 187.799 26.4541 187.954 26.941C188.109 27.2656 188.265 27.5902 188.575 27.9148C188.886 28.2394 189.041 28.4017 189.507 28.7263C189.818 28.8886 190.129 29.2131 190.595 29.5377C190.905 29.8623 191.372 30.0246 191.682 30.3492C191.993 30.6738 192.459 30.9984 192.77 31.323C193.08 31.6476 193.391 32.1345 193.546 32.7837C193.702 33.2706 193.857 33.9197 193.857 34.7312C193.857 35.3804 193.702 36.0296 193.546 36.6788C193.391 37.328 193.08 37.8148 192.614 38.3017C192.148 38.7886 191.682 39.1132 191.061 39.4378C190.44 39.7624 189.663 39.7624 188.886 39.7624C188.109 39.7624 187.488 39.6001 186.867 39.4378C186.245 39.2755 185.779 38.9509 185.313 38.6263L185.935 36.8411C186.401 37.1657 186.711 37.328 187.177 37.4903C187.488 37.6526 187.954 37.6526 188.575 37.6526Z" fill="white"/>
<path d="M204.886 21.7468H207.061V39.2748H204.886V31.16H199.294V39.2748H197.275V21.7468H199.45V29.2125H205.042V21.7468H204.886Z" fill="white"/>
<path d="M217.468 21.7468C217.934 23.0452 218.244 24.3436 218.555 25.6419C218.866 26.9403 219.332 28.2387 219.642 29.6993C219.953 31.16 220.419 32.6207 220.73 34.2436C221.04 35.8666 221.506 37.4896 221.817 39.4371H219.642C219.487 38.6256 219.332 37.9765 219.176 37.165C219.021 36.3535 218.866 35.7043 218.71 34.8928H213.429C213.274 35.7043 213.118 36.3535 212.963 37.165C212.808 37.9765 212.652 38.6256 212.652 39.4371H210.478C210.788 37.6519 211.254 35.8666 211.565 34.2436C211.876 32.6207 212.342 31.16 212.652 29.6993C212.963 28.2387 213.429 26.9403 213.74 25.6419C214.05 24.3436 214.516 23.0452 214.827 21.7468H217.468ZM216.225 24.3436C215.759 25.8042 215.448 27.1026 215.138 28.5633C214.827 30.0239 214.361 31.4846 214.05 32.9453H218.4C218.089 31.4846 217.778 30.0239 217.312 28.5633C216.846 27.1026 216.536 25.6419 216.225 24.3436Z" fill="white"/>
<path d="M225.39 21.9093C226.477 21.5847 227.564 21.4224 228.652 21.4224C229.428 21.4224 230.205 21.5847 230.982 21.747C231.603 21.9093 232.224 22.2338 232.69 22.7207C233.156 23.2076 233.622 23.6945 233.778 24.3437C234.088 24.9929 234.244 25.8044 234.244 26.7781C234.244 28.0765 234.088 29.0503 233.622 29.6995C233.156 30.511 232.535 30.9978 231.758 31.4847C231.914 31.8093 232.224 32.2962 232.535 32.9454C232.846 33.5946 233.156 34.2438 233.467 34.893C233.778 35.5421 234.088 36.3536 234.399 37.0028C234.71 37.8143 235.02 38.4635 235.176 39.1127H233.001C232.846 38.6258 232.535 37.9766 232.38 37.3274C232.069 36.6782 231.758 36.029 231.603 35.3798C231.292 34.7307 230.982 34.0815 230.671 33.5946C230.36 32.9454 230.05 32.4585 229.894 32.1339C229.584 32.1339 229.428 32.1339 229.118 32.1339C228.807 32.1339 228.496 32.1339 228.341 32.1339H227.72V38.9504H225.545V21.9093H225.39ZM227.564 30.511H228.496C229.584 30.511 230.516 30.1864 231.137 29.6995C231.758 29.2126 232.069 28.2388 232.069 26.9404C232.069 26.2913 232.069 25.8044 231.914 25.3175C231.758 24.8306 231.603 24.506 231.292 24.1814C230.982 23.8568 230.671 23.6945 230.205 23.5322C229.739 23.3699 229.428 23.3699 228.807 23.3699C228.341 23.3699 228.03 23.3699 227.564 23.3699V30.511Z" fill="white"/>
<path d="M248.379 21.7468C248.069 22.396 247.603 22.8829 247.137 23.6944C246.671 24.3436 246.205 25.155 245.739 25.8042C245.273 26.6157 244.807 27.2649 244.341 27.9141C243.875 28.5633 243.409 29.2125 242.943 29.8616C243.409 30.3485 244.03 30.9977 244.496 31.8092C245.117 32.6207 245.583 33.4322 246.205 34.2436C246.826 35.0551 247.292 36.0289 247.758 36.8404C248.224 37.6519 248.69 38.4634 249.001 39.2748H246.515C246.205 38.4634 245.739 37.6519 245.273 36.8404C244.807 36.0289 244.341 35.2174 243.875 34.5682C243.409 33.7568 242.943 33.1076 242.321 32.4584C241.855 31.8092 241.389 31.3223 240.768 30.8354V39.2748H238.593V21.7468H240.768V29.5371C241.234 29.0502 241.7 28.401 242.166 27.5895C242.632 26.9403 243.098 26.1288 243.564 25.4796C244.03 24.8305 244.496 24.019 244.807 23.3698C245.273 22.7206 245.583 22.2337 245.894 21.7468H248.379Z" fill="white"/>
<path d="M99.2598 52.0964C99.2598 53.0702 99.1045 53.7194 98.9491 54.3686C98.7938 55.0178 98.4831 55.5047 98.1725 55.8292C97.8618 56.1538 97.3958 56.4784 96.9298 56.6407C96.4638 56.803 95.8425 56.9653 95.3765 56.9653C94.7551 56.9653 94.1338 56.803 93.5125 56.6407V47.3898C93.8231 47.3898 94.1338 47.2275 94.4445 47.2275C94.7551 47.2275 95.0658 47.2275 95.3765 47.2275C95.9978 47.2275 96.4638 47.3898 96.9298 47.5521C97.3958 47.7144 97.8618 48.039 98.1725 48.3636C98.4831 48.6882 98.7938 49.3374 98.9491 49.8243C99.1045 50.4735 99.2598 51.2849 99.2598 52.0964ZM98.0171 52.0964C98.0171 51.4472 98.0171 50.7981 97.8618 50.3112C97.7065 49.8243 97.5511 49.4997 97.3958 49.1751C97.2405 48.8505 96.9298 48.6882 96.6191 48.5259C96.3085 48.3636 95.8425 48.3636 95.3765 48.3636C95.2211 48.3636 95.0658 48.3636 95.0658 48.3636C94.9105 48.3636 94.7551 48.3636 94.7551 48.3636V55.8292C94.9105 55.8292 95.0658 55.8292 95.0658 55.8292C95.2211 55.8292 95.3765 55.8292 95.3765 55.8292C95.8425 55.8292 96.3085 55.8292 96.6191 55.6669C96.9298 55.5047 97.2405 55.3424 97.3958 55.0178C97.5511 54.6932 97.7065 54.3686 97.8618 53.8817C97.8618 53.3948 98.0171 52.7456 98.0171 52.0964Z" fill="white"/>
<path d="M104.23 50.7984C103.92 50.6361 103.609 50.6361 103.298 50.6361C102.988 50.6361 102.677 50.6361 102.366 50.7984V56.9656H101.279V49.9869C101.59 49.8246 101.9 49.8246 102.211 49.6623C102.522 49.5 102.832 49.5 103.298 49.5C103.454 49.5 103.764 49.5 103.92 49.5C104.075 49.5 104.386 49.5 104.541 49.6623L104.23 50.7984Z" fill="white"/>
<path d="M106.561 53.5574C106.561 53.882 106.561 54.2066 106.717 54.5312C106.717 54.8558 106.872 55.0181 107.027 55.3427C107.183 55.505 107.338 55.6673 107.493 55.8296C107.649 55.9919 107.959 55.9919 108.27 55.9919C108.581 55.9919 108.736 55.9919 109.047 55.8296C109.202 55.8296 109.357 55.6673 109.513 55.6673L109.668 56.641C109.513 56.8033 109.357 56.8033 109.047 56.9656C108.736 57.1279 108.425 57.1279 108.115 57.1279C107.649 57.1279 107.183 56.9656 106.872 56.8033C106.561 56.641 106.251 56.3164 106.095 55.9919C105.94 55.6673 105.785 55.3427 105.629 54.8558C105.474 54.3689 105.474 53.882 105.474 53.3951C105.474 52.0967 105.629 51.123 106.095 50.4738C106.561 49.8246 107.027 49.5 107.804 49.5C108.581 49.5 109.202 49.8246 109.513 50.4738C109.823 51.123 109.979 51.9344 109.979 53.0705C109.979 53.2328 109.979 53.2328 109.979 53.3951C109.979 53.5574 109.979 53.5574 109.979 53.7197H106.561V53.5574ZM107.649 50.4738C107.338 50.4738 107.027 50.6361 106.872 51.123C106.717 51.4476 106.561 52.0967 106.561 52.7459H108.736C108.736 52.0967 108.736 51.6099 108.581 51.123C108.27 50.6361 108.115 50.4738 107.649 50.4738Z" fill="white"/>
<path d="M111.841 49.8246C111.997 49.6623 112.307 49.6623 112.618 49.6623C112.929 49.6623 113.084 49.5 113.395 49.5C114.016 49.5 114.482 49.6623 114.948 50.1492C115.414 50.4738 115.57 51.123 115.57 52.0967V56.9656C115.259 57.1279 114.948 57.1279 114.638 57.1279C114.327 57.1279 114.016 57.2902 113.705 57.2902C113.395 57.2902 113.084 57.2902 112.773 57.1279C112.463 56.9656 112.307 56.9656 111.997 56.8033C111.841 56.641 111.686 56.3164 111.531 56.1541C111.375 55.8296 111.375 55.505 111.375 55.1804C111.375 54.8558 111.375 54.5312 111.531 54.2066C111.686 53.882 111.841 53.7197 111.997 53.5574C112.152 53.3951 112.463 53.2328 112.618 53.0705C112.773 52.9082 113.239 52.9082 113.55 52.9082C113.861 52.9082 114.171 52.9082 114.482 53.0705V51.9344C114.482 51.4476 114.327 50.9607 114.171 50.7984C114.016 50.6361 113.705 50.4738 113.239 50.4738C113.084 50.4738 112.773 50.4738 112.618 50.4738C112.463 50.4738 112.307 50.6361 111.997 50.6361L111.841 49.8246ZM112.463 54.8558C112.463 55.3427 112.618 55.6673 112.773 55.8296C112.929 55.9919 113.239 56.1541 113.705 56.1541C114.016 56.1541 114.171 56.1542 114.482 55.9919V53.5574C114.171 53.5574 114.016 53.3951 113.705 53.3951C113.55 53.3951 113.395 53.3951 113.239 53.3951C113.084 53.3951 112.929 53.5574 112.773 53.5574C112.618 53.7197 112.618 53.7197 112.463 53.882C112.463 54.3689 112.463 54.5312 112.463 54.8558Z" fill="white"/>
<path d="M117.745 49.8245C118.056 49.6622 118.366 49.6622 118.677 49.4999C118.988 49.4999 119.298 49.3376 119.609 49.3376C119.92 49.3376 120.23 49.3376 120.386 49.4999C120.696 49.6622 120.852 49.6622 121.007 49.9868C121.162 49.8245 121.473 49.6622 121.784 49.6622C122.094 49.4999 122.405 49.4999 122.716 49.4999C123.026 49.4999 123.337 49.4999 123.648 49.6622C123.958 49.8245 124.114 49.9868 124.269 50.1491C124.424 50.3114 124.58 50.636 124.735 51.1229C124.89 51.4475 124.89 51.9344 124.89 52.5836V56.9656H123.803V52.7459C123.803 52.0967 123.648 51.4475 123.492 51.1229C123.337 50.7983 123.026 50.636 122.56 50.636C122.405 50.636 122.25 50.636 122.094 50.7983C121.939 50.7983 121.784 50.9606 121.628 51.1229C121.628 51.2852 121.784 51.6098 121.784 51.7721C121.784 52.0967 121.784 52.259 121.784 52.7459V57.1279H120.696V52.9082C120.696 52.259 120.541 51.6098 120.386 51.2852C120.23 50.9606 119.92 50.7983 119.454 50.7983C119.298 50.7983 118.988 50.7983 118.677 50.9606V57.1279H117.59V49.8245H117.745Z" fill="white"/>
<path d="M130.327 56.9649V47.3894H134.521V48.5255H131.57V51.4468H134.211V52.4206H131.57V55.8288H134.677V56.9649H130.327Z" fill="white"/>
<path d="M136.54 49.8245C136.85 49.6622 137.161 49.6622 137.627 49.4999C137.938 49.4999 138.404 49.3376 138.714 49.3376C139.025 49.3376 139.336 49.3376 139.646 49.4999C139.957 49.6622 140.112 49.8245 140.423 49.9868C140.578 50.1491 140.734 50.4737 140.889 50.9606C141.044 51.2852 141.044 51.7721 141.044 52.4213V56.8033H139.802V52.5836C139.802 51.9344 139.646 51.2852 139.491 50.9606C139.336 50.636 139.025 50.4737 138.559 50.4737C138.248 50.4737 138.093 50.4737 137.627 50.636V56.8033H136.54V49.8245Z" fill="white"/>
<path d="M147.257 56.6409C147.257 57.1278 147.257 57.6147 147.102 57.9393C146.947 58.2639 146.791 58.5885 146.636 58.7508C146.481 58.9131 146.17 59.0754 145.859 59.2377C145.549 59.4 145.238 59.4 144.927 59.4C144.617 59.4 144.306 59.4 144.151 59.2377C143.84 59.2377 143.685 59.0754 143.374 58.9131L143.685 57.9393C143.84 58.1016 143.995 58.1016 144.306 58.2639C144.461 58.2639 144.772 58.4262 145.083 58.4262C145.549 58.4262 145.859 58.2639 146.17 58.1016C146.481 57.777 146.481 57.4524 146.481 56.8032V56.4786C146.325 56.4786 146.17 56.6409 146.015 56.6409C145.859 56.6409 145.704 56.6409 145.549 56.6409C144.772 56.6409 144.151 56.3163 143.685 55.6671C143.219 55.018 143.063 54.2065 143.063 53.0704C143.063 52.4212 143.063 51.9343 143.219 51.4474C143.374 50.9606 143.529 50.636 143.685 50.3114C143.84 49.9868 144.151 49.6622 144.461 49.4999C144.772 49.3376 145.238 49.1753 145.704 49.1753C146.015 49.1753 146.325 49.1753 146.636 49.3376C146.947 49.3376 147.257 49.4999 147.413 49.6622V56.6409H147.257ZM146.17 50.636C146.015 50.636 145.859 50.636 145.859 50.636C145.704 50.636 145.704 50.636 145.549 50.636C145.083 50.636 144.617 50.7983 144.461 51.2851C144.151 51.772 144.151 52.4212 144.151 53.395C144.151 54.2065 144.306 54.8557 144.461 55.1803C144.772 55.5048 145.083 55.6671 145.549 55.6671C145.704 55.6671 145.859 55.6671 146.015 55.6671C146.17 55.6671 146.325 55.5048 146.481 55.5048V50.636H146.17Z" fill="white"/>
<path d="M150.209 48.3639C150.054 48.3639 149.898 48.3639 149.743 48.2016C149.588 48.0393 149.588 47.877 149.588 47.5524C149.588 47.3902 149.588 47.0656 149.743 46.9033C149.898 46.741 150.054 46.741 150.209 46.741C150.364 46.741 150.52 46.741 150.675 46.9033C150.83 47.0656 150.83 47.2279 150.83 47.5524C150.83 47.7147 150.83 48.0393 150.675 48.2016C150.52 48.3639 150.364 48.3639 150.209 48.3639ZM150.675 56.9656H149.588V49.6623H150.675V56.9656Z" fill="white"/>
<path d="M153.005 49.8245C153.316 49.6622 153.627 49.6622 154.093 49.4999C154.403 49.4999 154.869 49.3376 155.18 49.3376C155.491 49.3376 155.801 49.3376 156.112 49.4999C156.423 49.6622 156.578 49.8245 156.889 49.9868C157.044 50.1491 157.199 50.4737 157.355 50.9606C157.51 51.2852 157.51 51.7721 157.51 52.4213V56.8033H156.423V52.5836C156.423 51.9344 156.267 51.2852 156.112 50.9606C155.957 50.636 155.646 50.4737 155.18 50.4737C154.869 50.4737 154.714 50.4737 154.248 50.636V56.8033H153.161V49.8245H153.005Z" fill="white"/>
<path d="M160.461 53.5574C160.461 53.882 160.461 54.2066 160.616 54.5312C160.616 54.8558 160.772 55.0181 160.927 55.3427C161.082 55.505 161.238 55.6673 161.393 55.8296C161.548 55.9919 161.859 55.9919 162.17 55.9919C162.48 55.9919 162.636 55.9919 162.946 55.8296C163.102 55.8296 163.257 55.6673 163.412 55.6673L163.568 56.641C163.412 56.8033 163.257 56.8033 162.946 56.9656C162.636 57.1279 162.325 57.1279 162.014 57.1279C161.548 57.1279 161.082 56.9656 160.772 56.8033C160.461 56.641 160.15 56.3164 159.995 55.9919C159.84 55.6673 159.684 55.3427 159.529 54.8558C159.374 54.3689 159.374 53.882 159.374 53.3951C159.374 52.0967 159.529 51.123 159.995 50.4738C160.461 49.8246 160.927 49.5 161.704 49.5C162.48 49.5 163.102 49.8246 163.412 50.4738C163.723 51.123 163.878 51.9344 163.878 53.0705C163.878 53.2328 163.878 53.2328 163.878 53.3951C163.878 53.5574 163.878 53.5574 163.878 53.7197H160.461V53.5574ZM161.704 50.4738C161.393 50.4738 161.082 50.6361 160.927 51.123C160.772 51.4476 160.616 52.0967 160.616 52.7459H162.791C162.791 52.0967 162.791 51.6099 162.636 51.123C162.325 50.6361 162.014 50.4738 161.704 50.4738Z" fill="white"/>
<path d="M166.519 53.5574C166.519 53.882 166.519 54.2066 166.674 54.5312C166.674 54.8558 166.829 55.0181 166.985 55.3427C167.14 55.505 167.295 55.6673 167.451 55.8296C167.606 55.9919 167.917 55.9919 168.227 55.9919C168.538 55.9919 168.693 55.9919 169.004 55.8296C169.159 55.8296 169.315 55.6673 169.47 55.6673L169.625 56.641C169.47 56.8033 169.315 56.8033 169.004 56.9656C168.693 57.1279 168.383 57.1279 168.072 57.1279C167.606 57.1279 167.14 56.9656 166.829 56.8033C166.519 56.641 166.208 56.3164 166.053 55.9919C165.897 55.6673 165.742 55.3427 165.587 54.8558C165.431 54.3689 165.431 53.882 165.431 53.3951C165.431 52.0967 165.587 51.123 166.053 50.4738C166.519 49.8246 166.985 49.5 167.761 49.5C168.538 49.5 169.159 49.8246 169.47 50.4738C169.781 51.123 169.936 51.9344 169.936 53.0705C169.936 53.2328 169.936 53.2328 169.936 53.3951C169.936 53.5574 169.936 53.5574 169.936 53.7197H166.519V53.5574ZM167.761 50.4738C167.451 50.4738 167.14 50.6361 166.985 51.123C166.829 51.4476 166.674 52.0967 166.674 52.7459H168.849C168.849 52.0967 168.849 51.6099 168.693 51.123C168.383 50.6361 168.072 50.4738 167.761 50.4738Z" fill="white"/>
<path d="M174.752 50.7984C174.441 50.6361 174.131 50.6361 173.82 50.6361C173.509 50.6361 173.199 50.6361 172.888 50.7984V56.9656H171.801V49.9869C172.111 49.8246 172.422 49.8246 172.733 49.6623C173.043 49.5 173.354 49.5 173.82 49.5C173.975 49.5 174.286 49.5 174.441 49.5C174.597 49.5 174.907 49.5 175.063 49.6623L174.752 50.7984Z" fill="white"/>
<path d="M176.927 48.3639C176.771 48.3639 176.616 48.3639 176.461 48.2016C176.305 48.0393 176.305 47.877 176.305 47.5524C176.305 47.3902 176.305 47.0656 176.461 46.9033C176.616 46.741 176.771 46.741 176.927 46.741C177.082 46.741 177.237 46.741 177.393 46.9033C177.548 47.0656 177.548 47.2279 177.548 47.5524C177.548 47.7147 177.548 48.0393 177.393 48.2016C177.393 48.3639 177.237 48.3639 176.927 48.3639ZM177.548 56.9656H176.461V49.6623H177.548V56.9656Z" fill="white"/>
<path d="M179.878 49.8245C180.189 49.6622 180.499 49.6622 180.965 49.4999C181.276 49.4999 181.742 49.3376 182.053 49.3376C182.363 49.3376 182.674 49.3376 182.985 49.4999C183.295 49.6622 183.451 49.8245 183.761 49.9868C183.917 50.1491 184.072 50.4737 184.227 50.9606C184.383 51.2852 184.383 51.7721 184.383 52.4213V56.8033H183.295V52.5836C183.295 51.9344 183.14 51.2852 182.985 50.9606C182.829 50.636 182.519 50.4737 182.053 50.4737C181.742 50.4737 181.587 50.4737 181.121 50.636V56.8033H180.033V49.8245H179.878Z" fill="white"/>
<path d="M190.752 56.6409C190.752 57.1278 190.752 57.6147 190.597 57.9393C190.441 58.2639 190.286 58.5885 190.131 58.7508C189.975 58.9131 189.665 59.0754 189.354 59.2377C189.043 59.4 188.733 59.4 188.422 59.4C188.111 59.4 187.801 59.4 187.645 59.2377C187.335 59.2377 187.179 59.0754 186.869 58.9131L187.179 57.9393C187.335 58.1016 187.49 58.1016 187.801 58.2639C187.956 58.2639 188.267 58.4262 188.577 58.4262C189.043 58.4262 189.354 58.2639 189.665 58.1016C189.975 57.777 189.975 57.4524 189.975 56.8032V56.4786C189.82 56.4786 189.665 56.6409 189.509 56.6409C189.354 56.6409 189.199 56.6409 189.043 56.6409C188.267 56.6409 187.645 56.3163 187.179 55.6671C186.713 55.018 186.558 54.2065 186.558 53.0704C186.558 52.4212 186.558 51.9343 186.713 51.4474C186.869 50.9606 187.024 50.636 187.179 50.3114C187.335 49.9868 187.645 49.6622 187.956 49.4999C188.267 49.3376 188.733 49.1753 189.199 49.1753C189.509 49.1753 189.82 49.1753 190.131 49.3376C190.441 49.3376 190.752 49.4999 190.907 49.6622V56.6409H190.752ZM189.509 50.636C189.354 50.636 189.199 50.636 189.199 50.636C189.043 50.636 189.043 50.636 188.888 50.636C188.422 50.636 187.956 50.7983 187.801 51.2851C187.49 51.772 187.49 52.4212 187.49 53.395C187.49 54.2065 187.645 54.8557 187.801 55.1803C188.111 55.5048 188.422 55.6671 188.888 55.6671C189.043 55.6671 189.199 55.6671 189.354 55.6671C189.509 55.6671 189.665 55.5048 189.82 55.5048V50.636H189.509Z" fill="white"/>
<path d="M7.30068 51.7725H11.9607V46.9036H7.30068V48.0396H0.155334C0 48.0396 0 48.0396 0 48.2019C0.155334 48.8511 0.310667 49.6626 0.466001 50.3118C0.466001 50.4741 0.621334 50.4741 0.776668 50.4741H7.45601V51.7725H7.30068Z" fill="white"/>
<path d="M29.8241 3.73281H57.7841C57.9394 3.73281 58.0948 3.40822 57.9394 3.40822C56.5414 2.59674 54.9881 1.94755 53.2794 1.29837C53.1241 1.29837 53.1241 1.29837 52.9688 1.29837H29.8241V0H25.1641V4.86889H29.8241V3.73281Z" fill="white"/>
<path d="M74.8707 58.2644H56.5414L33.086 73.0334H15.0673C14.912 73.0334 14.7567 73.1957 14.912 73.358C15.844 74.1694 16.776 74.8186 17.8633 75.4678C18.0187 75.6301 18.174 75.6301 18.3293 75.6301H33.7074L57.3181 60.8611H73.6281C73.7834 60.8611 73.9387 60.6988 73.9387 60.6988C74.2494 60.0497 74.7154 59.4005 75.0261 58.589C75.1814 58.4267 75.0261 58.2644 74.8707 58.2644Z" fill="white"/>
<path d="M70.211 66.0544H62.5996L37.9016 81.6349C37.7463 81.7972 37.7463 81.9595 38.0569 81.9595C38.5229 81.9595 38.9889 81.9595 39.2996 81.9595C40.2316 81.9595 41.1636 81.9595 42.0956 81.7972C42.2509 81.7972 42.4063 81.7972 42.5616 81.6349L63.3763 68.4889H68.347C68.5023 68.4889 68.6576 68.4889 68.6576 68.3266C69.279 67.6774 69.9003 66.8659 70.3663 66.2167C70.5216 66.2167 70.3663 66.0544 70.211 66.0544Z" fill="white"/>
<path d="M78.5986 45.1184L66.0166 44.9562L45.2019 38.4643C38.3672 31.3233 29.2025 26.6167 23.6105 25.156C23.4552 25.156 23.2999 25.3183 23.2999 25.4806C23.7659 28.0773 24.0765 30.0249 24.3872 31.9725L9.94117 27.5904H9.78583H1.39782C1.24249 27.5904 1.24249 27.5905 1.08715 27.7527C0.931821 28.4019 0.621154 29.2134 0.46582 29.8626C0.46582 30.0249 0.46582 30.0249 0.621154 30.0249L9.47517 30.1872L24.8532 34.8938C25.4745 38.6266 25.9405 41.8725 26.7172 46.9037C27.1832 50.1496 24.8532 55.6677 23.7659 58.1021H23.4552H3.26182C3.10649 58.1021 3.10649 58.2644 3.10649 58.4267C3.41716 59.0759 3.72783 59.8874 4.19383 60.5366C4.19383 60.6989 4.34916 60.6989 4.50449 60.6989H23.6105L51.8812 54.0447H76.2686C76.4239 54.0447 76.5793 53.8824 76.7346 53.7201C76.8899 53.071 77.2006 52.4218 77.3559 51.7726C77.3559 51.6103 77.3559 51.6103 77.2006 51.6103H53.4346C52.3472 48.2021 50.4832 45.1184 48.4639 42.3594L65.5506 47.7152H65.7059L78.2879 47.8775C78.4433 47.8775 78.5986 47.7152 78.5986 47.7152C78.7539 47.066 78.7539 46.2545 78.9093 45.6053C78.7539 45.2807 78.7539 45.1184 78.5986 45.1184Z" fill="white"/>
<path d="M5.12627 18.9886H42.5616L70.211 33.433L70.5217 33.5953H78.4437C78.599 33.5953 78.599 33.433 78.599 33.433C78.4437 32.6215 78.2883 31.9723 78.133 31.1608C78.133 30.9985 77.9777 30.9985 77.9777 30.9985H71.143L43.183 16.3918H6.6796C6.52427 16.3918 6.36893 16.3918 6.36893 16.5541C5.90293 17.2033 5.43693 18.0148 5.12627 18.664C4.97093 18.8263 4.97093 18.9886 5.12627 18.9886Z" fill="white"/>
<path d="M9.16412 13.1459H54.9875L63.0649 6.97868C63.2202 6.97868 63.2202 6.81638 63.0649 6.65408C62.4435 6.16719 61.8222 5.68031 61.2009 5.35571H61.0455L54.2108 10.5492H11.1835C11.0281 10.5492 11.0281 10.5492 10.8728 10.7115C10.2515 11.3607 9.63012 12.1722 9.00879 12.8213C9.00879 12.9836 9.00879 13.1459 9.16412 13.1459Z" fill="white"/>
</svg>
