<svg width="71" height="70" viewBox="0 0 71 70" fill="none" xmlns="http://www.w3.org/2000/svg">
<path d="M56.3871 47.69V59.69C48.9462 59.69 42.9036 48.74 42.9036 35.23C42.9036 21.72 48.8963 10.77 56.3871 10.77V22.73" stroke="#00A1D2" stroke-width="2.13" stroke-linecap="round" stroke-linejoin="round"/>
<path d="M53.4709 11.37L23.6572 24.67V45.87L53.5008 59.23" stroke="#00A1D2" stroke-width="2.13" stroke-linecap="round" stroke-linejoin="round"/>
<path d="M23.7472 46.04H9.45459V24.49H23.7472" stroke="#00A1D2" stroke-width="2.13" stroke-miterlimit="10"/>
<path d="M9.91393 39.02H7.32708C6.36972 38.9835 5.46594 38.5681 4.81425 37.865C4.16255 37.1619 3.81622 36.2285 3.85132 35.27C3.81618 34.313 4.16115 33.3812 4.81071 32.6783C5.46027 31.9755 6.36149 31.559 7.31709 31.52H9.91393" stroke="#00A1D2" stroke-width="2.13" stroke-miterlimit="10"/>
<path d="M60.2424 46.3C61.7814 46.3 63.029 41.3617 63.029 35.27C63.029 29.1783 61.7814 24.24 60.2424 24.24C58.7034 24.24 57.4558 29.1783 57.4558 35.27C57.4558 41.3617 58.7034 46.3 60.2424 46.3Z" stroke="#00A1D2" stroke-width="2.13" stroke-miterlimit="10"/>
<path d="M59.9728 24.18L45.6003 20.99" stroke="#00A1D2" stroke-width="2.13" stroke-miterlimit="10" stroke-linecap="round"/>
<path d="M45.6003 49.57L59.9728 46.39" stroke="#00A1D2" stroke-width="2.13" stroke-miterlimit="10" stroke-linecap="round"/>
<path d="M27.922 48.3799L23.5872 63.6199H11.4021L16.2562 46.5599" stroke="#00A1D2" stroke-width="2.13" stroke-miterlimit="10" stroke-linecap="round"/>
<path d="M36.1917 59.47L41.3853 64.66" stroke="#75C2E3" stroke-width="1.42" stroke-miterlimit="10"/>
<path d="M36.1917 64.66L41.3853 59.47" stroke="#75C2E3" stroke-width="1.42" stroke-miterlimit="10"/>
<path d="M19.9815 6.57995L17.105 3.69995" stroke="#75C2E3" stroke-width="1.42" stroke-miterlimit="10"/>
<path d="M25.5549 12.16L22.6685 9.26996" stroke="#75C2E3" stroke-width="1.42" stroke-miterlimit="10"/>
<path d="M19.9815 9.26996L17.105 12.16" stroke="#75C2E3" stroke-width="1.42" stroke-miterlimit="10"/>
<path d="M25.5549 3.69995L22.6685 6.57995" stroke="#75C2E3" stroke-width="1.42" stroke-miterlimit="10"/>
<path d="M66.1753 43.58C65.3063 48.03 63.7582 51.64 61.8306 53.74" stroke="#75C2E3" stroke-width="1.42" stroke-miterlimit="10"/>
<path d="M49.5554 27.6699C50.8838 20.1299 54.1298 14.7999 57.9352 14.7999C62.0801 14.7999 65.5759 21.1499 66.6246 29.7999" stroke="#75C2E3" stroke-width="1.42" stroke-miterlimit="10"/>
<path d="M18.5132 51.02H24.0065" stroke="#75C2E3" stroke-width="2.13" stroke-linejoin="round"/>
<path d="M16.9453 55.39H22.4386" stroke="#75C2E3" stroke-width="2.13" stroke-linejoin="round"/>
<path d="M15.5769 59.7599H21.0702" stroke="#75C2E3" stroke-width="2.13" stroke-linejoin="round"/>
</svg>
