<svg width="181" height="140" viewBox="0 0 181 140" fill="none" xmlns="http://www.w3.org/2000/svg">
<path d="M121.175 104.099H71.6707C65.3059 104.099 60.1787 99.012 60.1787 92.6977C60.1787 86.3834 65.3059 81.2969 71.6707 81.2969H121.175C127.54 81.2969 132.667 86.3834 132.667 92.6977C132.667 99.012 127.54 104.099 121.175 104.099Z" fill="#FBD9E2"/>
<path d="M153.352 86.9094H27.6472C12.6192 86.9094 0.243164 74.6316 0.243164 59.5474C0.243164 44.6387 12.6192 32.3608 27.6472 32.3608H153.352C168.38 32.3608 180.756 44.6387 180.756 59.5474C180.933 74.6316 168.557 86.9094 153.352 86.9094Z" fill="#FBD9E2"/>
<path d="M56.6423 68.8433L56.9959 69.1941L73.0847 85.1553L66.8967 91.2942C60.3551 97.7839 57.1727 90.4172 50.8079 84.1029L46.3879 79.718L24.8183 101.292L8.72949 85.3307L25.3487 68.8433C33.8351 60.2488 47.9791 60.2488 56.6423 68.8433Z" fill="#F47A63"/>
<path d="M79.6269 91.645L79.2733 91.2942L63.1845 75.333L56.9965 81.4719C50.4549 87.9616 57.8805 91.1188 64.2453 97.4331L68.6653 101.818L46.9189 123.392L63.0077 139.353L79.6269 122.866C88.2901 114.271 88.2901 100.239 79.6269 91.645Z" fill="#F47A63"/>
<path d="M78.5654 34.9917L29.415 83.7521L64.5982 118.656L113.749 69.8958C130.898 52.8822 142.213 30.9575 145.926 7.27891L146.81 2.19238L141.683 3.06937C117.815 6.75271 95.715 17.9781 78.5654 34.9917Z" fill="#CDE6F5"/>
<path d="M136.91 36.5703C140.977 27.625 143.982 18.3289 145.75 8.50669L146.811 2.19238L140.446 3.24477C130.722 4.99874 121.175 7.9805 112.158 12.0146L136.91 36.5703Z" fill="#79C2E7"/>
<path d="M35.7787 112.342C33.6571 110.237 33.6571 106.904 35.7787 104.8L59.4699 81.2964C61.5915 79.1916 64.9507 79.1916 67.0723 81.2964C69.1939 83.4011 69.1939 86.7337 67.0723 88.8384L43.3811 112.342C41.4363 114.446 37.9003 114.446 35.7787 112.342Z" fill="#F47A63"/>
<path opacity="0.5" d="M109.682 65.3354L60.3545 114.447L64.5977 118.656L113.748 69.8958C130.898 52.8822 142.213 30.9575 145.926 7.27891L146.81 2.19238C146.81 2.19238 126.831 48.4973 109.682 65.3354Z" fill="white"/>
<path d="M110.164 69.4404C123.006 56.7001 123.006 36.044 110.164 23.3037C97.3216 10.5634 76.5003 10.5634 63.6581 23.3037C50.8159 36.044 50.8159 56.7001 63.6581 69.4404C76.5003 82.1807 97.3216 82.1807 110.164 69.4404Z" fill="#08A9D8"/>
<path d="M102.82 61.4077C111.658 52.6402 111.658 38.4252 102.82 29.6577C93.9827 20.8902 79.654 20.8902 70.8164 29.6577C61.9788 38.4252 61.9788 52.6402 70.8164 61.4077C79.654 70.1752 93.9827 70.1752 102.82 61.4077Z" fill="#79C2E7"/>
<path d="M85.6367 26.0464H103.847C105.792 26.0464 107.383 27.625 107.383 29.5543C107.383 31.4837 105.792 33.0623 103.847 33.0623H85.6367V26.0464Z" fill="#D27228"/>
<path d="M83.3389 34.29H101.549C103.494 34.29 105.085 35.8686 105.085 37.798C105.085 39.7274 103.494 41.3059 101.549 41.3059H83.3389V34.29Z" fill="#D27228"/>
<path d="M95.3612 28.1511C95.3612 21.486 89.8804 16.2241 83.3388 16.2241C76.6204 16.2241 71.3164 21.6614 71.3164 28.1511V62.1782C75.3828 66.037 80.8636 68.3171 86.8748 68.3171C89.8804 68.3171 92.7092 67.7909 95.3612 66.7386V49.0234V28.1511Z" fill="#C9C9C9"/>
<path opacity="0.2" d="M95.3608 28.1511C95.3608 21.486 89.88 16.2241 83.3384 16.2241C82.6312 16.2241 81.924 16.2241 81.2168 16.3995C86.8744 17.4519 91.1176 22.363 91.1176 28.1511V48.848V67.7909C92.532 67.4402 94.1232 67.0894 95.3608 66.5632V49.0234V28.1511Z" fill="white"/>
<path d="M103.14 30.0803C103.921 30.0803 104.554 29.4521 104.554 28.6771C104.554 27.9022 103.921 27.2739 103.14 27.2739C102.359 27.2739 101.726 27.9022 101.726 28.6771C101.726 29.4521 102.359 30.0803 103.14 30.0803Z" fill="#F09B40"/>
<path d="M73.792 64.2831C77.5048 66.914 81.9248 68.4926 86.8752 68.4926C89.8808 68.4926 92.7096 67.9664 95.3616 66.914V44.814C84.0464 44.814 74.8528 53.4084 73.792 64.2831Z" fill="white"/>
<path d="M74.322 37.6224C78.1301 37.6224 81.2172 34.5598 81.2172 30.7819C81.2172 27.004 78.1301 23.9414 74.322 23.9414C70.5138 23.9414 67.4268 27.004 67.4268 30.7819C67.4268 34.5598 70.5138 37.6224 74.322 37.6224Z" fill="white"/>
<path d="M74.3223 30.9575V26.9233H74.1455C72.0239 26.9233 70.2559 28.6773 70.2559 30.7821C70.2559 32.8868 72.0239 34.6408 74.1455 34.6408C76.2671 34.6408 77.8583 33.0622 78.0351 30.9575H74.3223Z" fill="#525254"/>
<path d="M81.2173 34.9917C79.9797 37.4472 77.3277 39.2012 74.3221 39.2012C70.7861 39.2012 67.7805 36.7456 66.8965 33.4131C67.0733 37.2718 70.2557 40.2536 74.3221 40.2536C77.5045 40.2536 80.3333 37.9734 81.2173 34.9917Z" fill="#525254"/>
</svg>
