<svg width="300" height="300" viewBox="0 0 300 300" fill="none" xmlns="http://www.w3.org/2000/svg">
<rect x="5" y="5" width="290" height="290" stroke="#E5E5E5" stroke-width="10"/>
<g clip-path="url(#clip0)">
<path d="M252.192 294C184.663 294 117.337 294 49.809 294C48.7981 288.743 48.7981 283.688 49.6068 278.633C49.809 277.419 50.2134 276.206 50.2134 274.993C50.0112 264.276 51.6286 253.964 52.6395 243.247C53.8526 229.902 56.0766 216.556 58.7049 203.413C62.3442 184.81 67.3987 166.41 73.6663 148.616C81.9557 124.958 92.6712 102.514 106.824 81.8891C115.113 69.3525 125.222 58.4335 136.14 48.3234C140.79 44.0771 145.845 40.2352 151.708 37C163.03 44.4815 173.341 53.3784 182.439 64.0952C188.707 71.5767 194.772 79.2604 200.029 87.5507C209.329 102.312 216.81 117.881 223.482 134.057C231.771 154.076 237.837 174.902 242.285 196.134C244.711 207.457 246.935 218.78 248.35 230.306C249.361 238.799 250.978 247.291 251.383 255.784C251.989 267.714 253.607 279.846 253 291.776C252.798 292.382 252.596 292.989 252.192 294ZM105.004 205.435C107.43 202.806 110.867 201.593 113.698 199.369C114.305 195.932 114.911 192.696 115.315 189.259C115.72 186.024 114.709 182.384 116.529 178.34C119.157 180.969 121.583 182.991 123.2 185.215C125.222 187.843 127.042 190.472 129.872 192.09C133.714 192.494 137.151 190.674 140.992 190.674C145.44 185.417 147.26 178.946 150.899 172.678C153.932 176.924 155.954 180.969 157.369 185.417C158.38 188.652 160.604 190.876 164.041 190.876C166.467 191.079 168.691 192.494 171.522 191.887C176.374 187.641 180.822 182.788 185.876 177.127C187.089 185.013 187.898 192.09 188.1 198.965C191.537 201.391 194.57 203.817 198.007 205.435C203.062 203.413 206.297 198.762 212.564 197.751C210.745 204.222 211.755 210.288 209.936 216.354C219.843 226.666 226.919 238.596 232.984 251.537C229.345 223.431 222.269 196.134 208.925 171.061C204.073 171.667 202.455 176.116 198.209 177.935C199.22 171.061 200.231 164.59 201.242 158.12C197.401 153.873 194.974 148.414 190.324 144.572C185.27 148.212 184.057 154.48 178.194 158.726C178.194 149.425 176.172 141.337 176.576 133.653C172.128 129.205 166.871 128.194 161.413 126.374C158.178 132.844 154.943 139.113 151.506 145.785C146.856 139.315 145.036 132.238 140.588 126.374C135.533 127.587 131.288 129.609 127.042 132.238C124.009 140.326 125.829 149.02 123.2 157.513C119.359 153.267 117.337 148.009 112.687 144.572C107.43 148.616 103.993 153.469 100.961 158.524C101.972 164.792 103.185 170.656 104.196 176.722C99.7475 175.913 97.9279 172.072 93.6821 170.05C80.3382 196.336 72.6554 223.836 69.0161 252.548C74.0706 238.596 82.7644 227.273 92.0647 215.545C91.4582 209.681 90.8516 203.615 90.0429 196.538C95.5018 199.976 100.152 202.604 105.004 205.435Z" fill="#E5E5E5"/>
</g>
<defs>
<clipPath id="clip0">
<rect x="49" y="37" width="204" height="257" fill="white"/>
</clipPath>
</defs>
</svg>
