<svg width="138" height="18" viewBox="0 0 138 18" fill="none" xmlns="http://www.w3.org/2000/svg">
<path d="M8.16856 3.07831C8.30581 3.93867 8.58029 4.94243 8.71753 5.94619C8.99202 6.94994 9.12926 7.9537 9.40374 8.95746C9.67823 9.96121 9.81547 10.965 10.09 11.8253C10.3644 12.6857 10.5017 13.5461 10.7762 14.4064C10.9134 13.5461 11.0506 12.6857 11.3251 11.6819C11.4624 10.6782 11.5996 9.53103 11.7369 8.52728C11.8741 7.38013 12.0113 6.23297 12.1486 5.08582C12.2858 3.93867 12.4231 2.64813 12.4231 1.50098H14.3445C14.07 4.51225 13.6582 7.23673 13.2465 9.81782C12.8348 12.3989 12.4231 14.6932 11.8741 17.1309H9.95271C9.67823 16.4139 9.54099 15.5536 9.2665 14.6932C8.99202 13.8328 8.71754 12.8291 8.58029 11.9687C8.30581 10.965 8.16857 9.96121 7.89408 9.10085C7.6196 8.09709 7.48236 7.09334 7.20787 6.23297C7.07063 7.09334 6.79615 8.09709 6.52166 9.10085C6.24718 10.1046 6.10994 11.1084 5.83545 11.9687C5.56097 12.9725 5.28649 13.8328 5.14924 14.6932C5.012 15.5536 4.60028 16.4139 4.46303 17.1309H2.54164C1.99268 14.8366 1.58095 12.3989 1.16922 9.81782C0.757498 7.23673 0.345773 4.51225 0.0712891 1.50098H1.99268C2.12992 2.64813 2.12992 3.93867 2.26716 5.08582C2.40441 6.23297 2.54165 7.38013 2.67889 8.52728C2.81613 9.67443 2.95337 10.6782 3.09061 11.8253C3.22786 12.8291 3.3651 13.8329 3.63958 14.5498C3.91407 13.8329 4.05131 12.9725 4.32579 11.9687C4.60028 10.965 4.87476 10.1046 5.012 9.10085C5.28649 8.09709 5.42373 7.09334 5.69821 6.08958C5.9727 5.08582 6.10994 4.08207 6.24718 3.2217H8.16856V3.07831Z" fill="#4D4D4F"/>
<path d="M27.9324 8.95714C27.9324 10.1043 27.7951 11.2514 27.6579 12.2552C27.3834 13.259 27.1089 14.1193 26.6972 14.8363C26.2855 15.5533 25.7365 16.1268 25.0503 16.4136C24.3641 16.8438 23.5406 16.9872 22.7172 16.9872C21.7565 16.9872 21.0702 16.8438 20.384 16.4136C19.6978 15.9834 19.1489 15.4099 18.7371 14.8363C18.3254 14.1193 17.9137 13.259 17.7764 12.2552C17.5019 11.2514 17.502 10.1043 17.502 8.95714C17.502 7.80999 17.6392 6.66284 17.7764 5.65908C18.0509 4.65533 18.3254 3.79496 18.7371 3.07799C19.1489 2.36102 19.6978 1.78745 20.384 1.35727C21.0702 0.927085 21.8937 0.783691 22.7172 0.783691C23.6779 0.783691 24.3641 0.927085 25.0503 1.35727C25.7365 1.78745 26.2855 2.36102 26.6972 3.07799C27.1089 3.79496 27.5206 4.65533 27.6579 5.65908C27.7951 6.66284 27.9324 7.80999 27.9324 8.95714ZM25.8737 8.95714C25.8737 7.95338 25.8737 7.09302 25.7365 6.37605C25.5992 5.65908 25.462 4.94211 25.1875 4.36854C24.913 3.79496 24.6386 3.36478 24.2268 3.07799C23.8151 2.7912 23.2661 2.64781 22.7172 2.64781C22.1682 2.64781 21.6192 2.7912 21.2075 3.07799C20.7958 3.36478 20.5213 3.79496 20.2468 4.36854C19.8351 4.94211 19.6978 5.65908 19.5606 6.37605C19.4233 7.09302 19.4233 7.95338 19.4233 8.95714C19.4233 9.9609 19.4233 10.8213 19.5606 11.5382C19.6978 12.2552 19.8351 12.9722 20.1096 13.5457C20.384 14.1193 20.6585 14.5495 21.0702 14.8363C21.482 15.1231 22.0309 15.2665 22.5799 15.2665C23.1289 15.2665 23.6779 15.1231 24.0896 14.8363C24.5013 14.5495 24.7758 14.1193 25.0503 13.5457C25.3248 12.9722 25.462 12.3986 25.5992 11.5382C25.7365 10.8213 25.8737 9.9609 25.8737 8.95714Z" fill="#4D4D4F"/>
<path d="M41.655 8.95714C41.655 10.1043 41.5178 11.2514 41.3805 12.2552C41.1061 13.259 40.8316 14.1193 40.4198 14.8363C40.0081 15.5533 39.4591 16.1268 38.7729 16.4136C38.0867 16.8438 37.2633 16.9872 36.4398 16.9872C35.6164 16.9872 34.7929 16.8438 34.1067 16.4136C33.4205 15.9834 32.8715 15.4099 32.4598 14.8363C32.0481 14.1193 31.6363 13.259 31.4991 12.2552C31.2246 11.2514 31.2246 10.1043 31.2246 8.95714C31.2246 7.80999 31.3618 6.66284 31.4991 5.65908C31.7736 4.65533 32.0481 3.79496 32.4598 3.07799C32.8715 2.36102 33.4205 1.78745 34.1067 1.35727C34.7929 0.927085 35.6164 0.783691 36.4398 0.783691C37.2633 0.783691 38.0867 0.927085 38.7729 1.35727C39.4591 1.78745 40.0081 2.36102 40.4198 3.07799C40.8316 3.79496 41.2433 4.65533 41.3805 5.65908C41.655 6.66284 41.655 7.80999 41.655 8.95714ZM39.5964 8.95714C39.5964 7.95338 39.5964 7.09302 39.4591 6.37605C39.3219 5.65908 39.1847 4.94211 38.9102 4.36854C38.6357 3.79496 38.3612 3.36478 37.9495 3.07799C37.5378 2.7912 36.9888 2.64781 36.4398 2.64781C35.8908 2.64781 35.3419 2.7912 34.9301 3.07799C34.5184 3.36478 34.2439 3.79496 33.9695 4.36854C33.695 4.94211 33.5577 5.65908 33.4205 6.37605C33.2832 7.09302 33.2832 7.95338 33.2832 8.95714C33.2832 9.9609 33.2832 10.8213 33.4205 11.5382C33.5577 12.2552 33.695 12.9722 33.9695 13.5457C34.2439 14.1193 34.5184 14.5495 34.9301 14.8363C35.3419 15.1231 35.8908 15.2665 36.4398 15.2665C36.9888 15.2665 37.5378 15.1231 37.9495 14.8363C38.3612 14.5495 38.6357 14.1193 38.9102 13.5457C39.1847 12.9722 39.3219 12.3986 39.4591 11.5382C39.5964 10.8213 39.5964 9.9609 39.5964 8.95714Z" fill="#4D4D4F"/>
<path d="M54.9678 8.95731C54.9678 10.3912 54.8305 11.6818 54.556 12.6856C54.2815 13.6893 53.8698 14.5497 53.3208 15.1233C52.7719 15.6968 52.0857 16.2704 51.2622 16.5572C50.4388 16.844 49.6153 16.9874 48.6546 16.9874C47.6939 16.9874 46.596 16.844 45.498 16.5572V1.35743C46.047 1.21403 46.596 1.07064 47.1449 1.07064C47.6939 0.927247 48.1056 0.927246 48.6546 0.927246C49.6153 0.927246 50.4388 1.07064 51.2622 1.35743C52.0857 1.64422 52.7719 2.0744 53.3208 2.79137C53.8698 3.36494 54.2815 4.22531 54.556 5.22907C54.8305 6.23282 54.9678 7.52337 54.9678 8.95731ZM52.9091 8.95731C52.9091 7.81016 52.7719 6.94979 52.6346 6.08943C52.4974 5.37246 52.2229 4.65549 51.9484 4.22531C51.6739 3.79513 51.125 3.36494 50.7132 3.07816C50.1643 2.79137 49.4781 2.79137 48.7919 2.79137C48.6546 2.79137 48.3801 2.79137 48.2429 2.79137C48.1056 2.79137 47.8312 2.79137 47.5567 2.79137V14.9799C47.8312 14.9799 47.9684 14.9799 48.2429 14.9799C48.3801 14.9799 48.6546 14.9799 48.7919 14.9799C49.6153 14.9799 50.1643 14.8365 50.7132 14.6931C51.2622 14.4063 51.6739 14.1195 51.9484 13.6893C52.2229 13.2591 52.4974 12.5422 52.6346 11.8252C52.7719 10.9648 52.9091 10.1045 52.9091 8.95731Z" fill="#4D4D4F"/>
<path d="M58.8096 16.7004V1.21387H65.5344V2.9346H60.731V7.80999H64.9855V9.53072H60.731V14.9797H65.8089V16.7004H58.8096Z" fill="#4D4D4F"/>
<path d="M76.789 16.7004C76.3773 15.8401 76.1028 14.8363 75.5538 13.8325C75.1421 12.8288 74.5931 11.825 74.1814 10.6779C73.7697 9.67411 73.2207 8.67035 72.6717 7.5232C72.1228 6.51944 71.711 5.51569 71.1621 4.65532V16.557H69.3779V1.21387H71.0248C71.5738 2.07423 72.1228 3.07799 72.5345 4.08175C73.0835 5.0855 73.4952 5.94587 74.0442 6.94963C74.4559 7.95338 74.8676 8.81375 75.2793 9.81751C75.6911 10.6779 76.1028 11.5382 76.3773 12.3986V1.21387H78.1614V16.7004H76.789Z" fill="#4D4D4F"/>
<path d="M84.6126 15.2671C85.436 15.2671 85.985 14.9803 86.3967 14.5502C86.8084 14.12 87.0829 13.5464 87.0829 12.686C87.0829 12.2559 87.0829 11.9691 86.9457 11.5389C86.8084 11.2521 86.6712 10.9653 86.3967 10.6785C86.1222 10.3917 85.985 10.2483 85.7105 9.96156C85.436 9.81816 85.1615 9.53137 84.887 9.38798C84.6126 9.10119 84.2008 8.9578 83.7891 8.67101C83.3774 8.38422 83.1029 8.09743 82.8284 7.66725C82.5539 7.23707 82.2794 6.95028 82.1422 6.37671C82.0049 5.94653 81.8677 5.37295 81.8677 4.65598C81.8677 4.08241 82.0049 3.50883 82.1422 2.93526C82.4167 2.36168 82.6912 1.9315 82.9656 1.64471C83.2401 1.35792 83.7891 1.07114 84.3381 0.784347C84.887 0.640954 85.436 0.497559 85.985 0.497559C86.534 0.497559 87.0829 0.640954 87.6319 0.784347C88.1809 0.927741 88.5926 1.07113 88.8671 1.35792L88.3181 2.93526C88.0436 2.79186 87.6319 2.50507 87.3574 2.50507C86.9457 2.36168 86.6712 2.36168 86.2595 2.36168C85.5733 2.36168 85.0243 2.50507 84.6126 2.93526C84.2008 3.36544 83.9264 3.93901 83.9264 4.65598C83.9264 5.08616 83.9263 5.37295 84.0636 5.80313C84.2008 6.08992 84.3381 6.37671 84.6126 6.6635C84.887 6.95028 85.0243 7.09368 85.436 7.38047C85.7105 7.52386 85.985 7.81065 86.3967 8.09744C86.6712 8.38422 87.0829 8.52762 87.3574 8.81441C87.6319 9.10119 88.0436 9.38798 88.3181 9.67477C88.5926 9.96155 88.8671 10.3917 89.0043 10.9653C89.1416 11.3955 89.2788 11.9691 89.2788 12.686C89.2788 13.2596 89.1416 13.8332 89.0043 14.4068C88.8671 14.9803 88.5926 15.4105 88.1809 15.8407C87.7691 16.2709 87.3574 16.5577 86.8084 16.8445C86.2595 17.1312 85.5733 17.1313 84.887 17.1313C84.2008 17.1313 83.6519 16.9879 83.1029 16.8445C82.5539 16.7011 82.1422 16.4143 81.7305 16.1275L82.2794 14.5502C82.6912 14.8369 82.9656 14.9803 83.3774 15.1237C83.6519 15.2671 84.0636 15.2671 84.6126 15.2671Z" fill="#4D4D4F"/>
<path d="M99.0227 1.21387H100.944V16.7004H99.0227V9.53072H94.082V16.7004H92.2979V1.21387H94.2192V7.80999H99.1599V1.21387H99.0227Z" fill="#4D4D4F"/>
<path d="M110.14 1.21387C110.552 2.36102 110.826 3.50817 111.1 4.65532C111.375 5.80247 111.787 6.94963 112.061 8.24017C112.336 9.53072 112.747 10.8213 113.022 12.2552C113.296 13.6891 113.708 15.1231 113.983 16.8438H112.061C111.924 16.1268 111.787 15.5533 111.649 14.8363C111.512 14.1193 111.375 13.5457 111.238 12.8288H106.571C106.434 13.5457 106.297 14.1193 106.16 14.8363C106.023 15.5533 105.885 16.1268 105.885 16.8438H103.964C104.238 15.2665 104.65 13.6891 104.925 12.2552C105.199 10.8213 105.611 9.53072 105.885 8.24017C106.16 6.94963 106.571 5.80247 106.846 4.65532C107.12 3.50817 107.532 2.36102 107.807 1.21387H110.14ZM109.042 3.50817C108.63 4.79872 108.356 5.94587 108.081 7.23641C107.807 8.52696 107.395 9.8175 107.12 11.1081H110.963C110.689 9.8175 110.414 8.52696 110.003 7.23641C109.591 5.94587 109.316 4.65532 109.042 3.50817Z" fill="#4D4D4F"/>
<path d="M117.139 1.35743C118.099 1.07064 119.06 0.927246 120.021 0.927246C120.707 0.927246 121.393 1.07064 122.079 1.21403C122.628 1.35743 123.177 1.64422 123.589 2.0744C124.001 2.50458 124.413 2.93476 124.55 3.50834C124.824 4.08191 124.961 4.79888 124.961 5.65925C124.961 6.8064 124.824 7.66676 124.413 8.24034C124.001 8.95731 123.452 9.38749 122.766 9.81767C122.903 10.1045 123.177 10.5346 123.452 11.1082C123.726 11.6818 124.001 12.2554 124.275 12.8289C124.55 13.4025 124.824 14.1195 125.099 14.6931C125.373 15.41 125.648 15.9836 125.785 16.5572H123.864C123.726 16.127 123.452 15.5534 123.315 14.9799C123.04 14.4063 122.766 13.8327 122.628 13.2591C122.354 12.6856 122.079 12.112 121.805 11.6818C121.53 11.1082 121.256 10.678 121.119 10.3912C120.844 10.3912 120.707 10.3912 120.432 10.3912C120.158 10.3912 119.884 10.3912 119.746 10.3912H119.197V16.4138H117.276V1.35743H117.139ZM119.06 8.95731H119.884C120.844 8.95731 121.668 8.67052 122.217 8.24034C122.766 7.81016 123.04 6.94979 123.04 5.80264C123.04 5.22907 123.04 4.79888 122.903 4.3687C122.766 3.93852 122.628 3.65173 122.354 3.36494C122.079 3.07816 121.805 2.93476 121.393 2.79137C120.981 2.64797 120.707 2.64797 120.158 2.64797C119.746 2.64797 119.472 2.64797 119.06 2.64797V8.95731Z" fill="#4D4D4F"/>
<path d="M137.451 1.21387C137.176 1.78744 136.765 2.21763 136.353 2.9346C135.941 3.50817 135.53 4.22514 135.118 4.79872C134.706 5.51569 134.294 6.08926 133.883 6.66284C133.471 7.23642 133.059 7.80999 132.647 8.38357C133.059 8.81375 133.608 9.38733 134.02 10.1043C134.569 10.8213 134.981 11.5382 135.53 12.2552C136.079 12.9722 136.49 13.8325 136.902 14.5495C137.314 15.2665 137.725 15.9834 138 16.7004H135.804C135.53 15.9834 135.118 15.2665 134.706 14.5495C134.294 13.8325 133.883 13.1156 133.471 12.542C133.059 11.825 132.647 11.2514 132.098 10.6779C131.687 10.1043 131.275 9.67411 130.726 9.24393V16.7004H128.805V1.21387H130.726V8.09678C131.138 7.6666 131.55 7.09302 131.961 6.37605C132.373 5.80247 132.785 5.08551 133.196 4.51193C133.608 3.93835 134.02 3.22138 134.294 2.64781C134.706 2.07423 134.981 1.64405 135.255 1.21387H137.451Z" fill="#4D4D4F"/>
</svg>
