<svg id="Layer_1" data-name="Layer 1" xmlns="http://www.w3.org/2000/svg" viewBox="0 0 275.99 74.25"><defs><style>.cls-1{fill:#4d4d4f;}</style></defs><title>wdnshrk_logo_</title><path class="cls-1" d="M34.79,29q.47,2.19,1,4.63T37,38.46q.6,2.4,1.22,4.66t1.16,4.12q.43-2,.83-4.54T41,37.48q.38-2.73.71-5.65T42.2,26h3.21q-.83,7.32-1.87,13.48T41.13,51.25H37.81q-.55-1.78-1.18-4t-1.26-4.54q-.62-2.35-1.2-4.75t-1.06-4.66q-.47,2.26-1.06,4.66t-1.2,4.75q-.62,2.35-1.26,4.54t-1.18,4H25.11q-1.39-5.61-2.44-11.77T20.78,26H24.1q.22,2.92.55,5.81t.72,5.65q.38,2.75.79,5.25T27,47.24q.55-1.86,1.17-4.12t1.22-4.66q.6-2.4,1.15-4.85t1-4.63Z"/><path class="cls-1" d="M68.32,38.65A25.29,25.29,0,0,1,67.79,44a12.58,12.58,0,0,1-1.64,4.15,7.87,7.87,0,0,1-2.81,2.68,8.87,8.87,0,0,1-8,0,7.86,7.86,0,0,1-2.8-2.68A12.85,12.85,0,0,1,50.91,44a24.46,24.46,0,0,1-.55-5.37,24.72,24.72,0,0,1,.55-5.39,12.86,12.86,0,0,1,1.66-4.17,8,8,0,0,1,2.8-2.7,8.72,8.72,0,0,1,8,0,8,8,0,0,1,2.81,2.7,12.6,12.6,0,0,1,1.64,4.17A25.55,25.55,0,0,1,68.32,38.65Zm-3.5,0a27.71,27.71,0,0,0-.29-4.19,11.63,11.63,0,0,0-.95-3.26,5.58,5.58,0,0,0-1.69-2.13,4.57,4.57,0,0,0-5.06,0,5.58,5.58,0,0,0-1.69,2.13,12,12,0,0,0-1,3.26,28.48,28.48,0,0,0,0,8.38,11.73,11.73,0,0,0,1,3.24,5.44,5.44,0,0,0,1.69,2.09,4.66,4.66,0,0,0,5.06,0,5.44,5.44,0,0,0,1.69-2.09,11.37,11.37,0,0,0,.95-3.24A27.7,27.7,0,0,0,64.83,38.65Z"/><path class="cls-1" d="M91.82,38.65A25.29,25.29,0,0,1,91.29,44a12.58,12.58,0,0,1-1.64,4.15,7.87,7.87,0,0,1-2.81,2.68,8.87,8.87,0,0,1-8,0,7.86,7.86,0,0,1-2.8-2.68A12.85,12.85,0,0,1,74.41,44a24.46,24.46,0,0,1-.55-5.37,24.72,24.72,0,0,1,.55-5.39,12.86,12.86,0,0,1,1.66-4.17,8,8,0,0,1,2.8-2.7,8.72,8.72,0,0,1,8,0,8,8,0,0,1,2.81,2.7,12.6,12.6,0,0,1,1.64,4.17A25.55,25.55,0,0,1,91.82,38.65Zm-3.5,0A27.71,27.71,0,0,0,88,34.46a11.63,11.63,0,0,0-.95-3.26,5.58,5.58,0,0,0-1.69-2.13,4.57,4.57,0,0,0-5.06,0,5.58,5.58,0,0,0-1.69,2.13,12,12,0,0,0-1,3.26,28.48,28.48,0,0,0,0,8.38,11.73,11.73,0,0,0,1,3.24,5.44,5.44,0,0,0,1.69,2.09,4.66,4.66,0,0,0,5.06,0,5.44,5.44,0,0,0,1.69-2.09A11.37,11.37,0,0,0,88,42.84,27.7,27.7,0,0,0,88.32,38.65Z"/><path class="cls-1" d="M114.3,38.61a20.85,20.85,0,0,1-.75,6,10.2,10.2,0,0,1-2.15,4A8.17,8.17,0,0,1,108,50.81a13.39,13.39,0,0,1-4.43.69,22.78,22.78,0,0,1-5.25-.66V26.37q1.38-.29,2.7-.47a18.37,18.37,0,0,1,2.51-.18,13.51,13.51,0,0,1,4.46.69,8.17,8.17,0,0,1,3.39,2.22,10.2,10.2,0,0,1,2.15,4A20.85,20.85,0,0,1,114.3,38.61Zm-3.5,0a22.57,22.57,0,0,0-.4-4.59,8.44,8.44,0,0,0-1.24-3.1,4.8,4.8,0,0,0-2.2-1.75,8.77,8.77,0,0,0-3.26-.55c-.34,0-.68,0-1,0s-.69.06-1.06.11V48.45q.55.07,1.06.11t1,0a8.74,8.74,0,0,0,3.28-.55,5,5,0,0,0,2.2-1.73,8.07,8.07,0,0,0,1.26-3.08A22.79,22.79,0,0,0,110.8,38.61Z"/><path class="cls-1" d="M120.82,51.25V26h11.33v2.81H124.1v7.83h7.29v2.73H124.1v9.07h8.63v2.81Z"/><path class="cls-1" d="M151.27,51.25q-.87-2.15-2-4.65t-2.33-5q-1.22-2.53-2.5-5t-2.51-4.65V51.25h-3.06V26h2.73q1.38,2.26,2.68,4.63t2.46,4.68q1.17,2.31,2.2,4.55t1.91,4.24V26h3.06V51.25Z"/><path class="cls-1" d="M164.65,49a4.07,4.07,0,0,0,3-1.09,4,4,0,0,0,1.07-3,4.41,4.41,0,0,0-.33-1.75,5.4,5.4,0,0,0-.86-1.38,7.28,7.28,0,0,0-1.22-1.13l-1.42-1-1.75-1.24a9.36,9.36,0,0,1-1.66-1.53,7.38,7.38,0,0,1-1.22-2,7.22,7.22,0,0,1-.47-2.73,7,7,0,0,1,.53-2.77,6.2,6.2,0,0,1,1.46-2.11A6.43,6.43,0,0,1,164,25.89a8.06,8.06,0,0,1,2.79-.47,9.53,9.53,0,0,1,2.7.36,8.79,8.79,0,0,1,2.08.87l-1,2.59a6.28,6.28,0,0,0-1.66-.78,6.37,6.37,0,0,0-1.88-.27,4.12,4.12,0,0,0-2.86,1A3.6,3.6,0,0,0,163.11,32a4.29,4.29,0,0,0,.35,1.78,5.24,5.24,0,0,0,.91,1.38,7.42,7.42,0,0,0,1.31,1.13l1.58,1.06q.84.55,1.71,1.2A9.35,9.35,0,0,1,170.57,40a7.07,7.07,0,0,1,1.62,4.72,8.26,8.26,0,0,1-.44,2.7,6,6,0,0,1-1.37,2.24,6.6,6.6,0,0,1-2.33,1.53,8.8,8.8,0,0,1-3.3.56,10.51,10.51,0,0,1-3.06-.4,9.3,9.3,0,0,1-2.33-1.06l1-2.62a9.8,9.8,0,0,0,1.95.93A7.07,7.07,0,0,0,164.65,49Z"/><path class="cls-1" d="M189.13,26h3.28V51.25h-3.28V39.52h-8.31V51.25h-3.28V26h3.28V36.68h8.31Z"/><path class="cls-1" d="M207.83,26q.87,2.73,1.73,5.52t1.67,5.85q.82,3.06,1.64,6.49t1.65,7.4h-3.28q-.28-1.64-.59-3.24T210,44.8h-8q-.37,1.6-.66,3.21t-.58,3.24h-3.17q.8-4,1.64-7.39T201,37.37q.82-3.06,1.68-5.85T204.38,26ZM206,29.72q-.89,3-1.73,6.09t-1.61,6.26h6.61q-.73-3.2-1.56-6.26T206,29.72Z"/><path class="cls-1" d="M219.76,26.37a20.83,20.83,0,0,1,4.92-.62,12.45,12.45,0,0,1,3.42.44,6.79,6.79,0,0,1,2.62,1.38A6.26,6.26,0,0,1,232.42,30a9.66,9.66,0,0,1,.6,3.61,8,8,0,0,1-1,4.24,6.47,6.47,0,0,1-2.71,2.46q.44.73,1.11,2t1.38,2.77q.71,1.51,1.38,3.11t1.15,3.06H231q-.4-1.09-1-2.48T228.79,46q-.65-1.37-1.3-2.62t-1.16-2.13q-.58.07-1.2.11t-1.24,0H223v9.84h-3.21ZM223,38.72h1.38a5.79,5.79,0,0,0,3.86-1.15q1.35-1.15,1.35-4a7.13,7.13,0,0,0-.35-2.39,3.64,3.64,0,0,0-1-1.53,3.88,3.88,0,0,0-1.53-.82,7.22,7.22,0,0,0-2-.26,13,13,0,0,0-1.75.11Z"/><path class="cls-1" d="M254.37,26q-.8,1.24-1.8,2.73l-2.06,3.08q-1.06,1.58-2.13,3.11t-2.06,2.84a28.43,28.43,0,0,1,2.37,2.75q1.27,1.66,2.51,3.5t2.33,3.74a29.32,29.32,0,0,1,1.75,3.5h-3.68q-.77-1.68-1.77-3.43t-2.11-3.38q-1.11-1.62-2.26-3a19.82,19.82,0,0,0-2.24-2.34V51.25h-3.28V26h3.28V37.13q.95-1.2,2-2.73l2.09-3.06q1-1.53,1.95-2.93T250.8,26Z"/></svg>